<svg width="650" height="321" viewBox="0 0 650 321" fill="none" xmlns="http://www.w3.org/2000/svg">
<g opacity="0.32">
<path d="M641.216 119.496C650.166 119.496 650.166 119.496 650.139 127.891C650.139 137.457 644.335 144.62 634.652 146.111C629.689 146.617 619.735 146.58 619.735 146.58C611.124 146.715 611.965 145.692 611.965 153.594C611.965 179.864 611.883 206.146 611.965 232.416C612.087 234.992 610.73 237.642 606.54 237.63L595.433 237.531C582.808 237.236 576.312 231.368 576.244 219.879C576.122 197.492 576.326 152.682 576.326 152.682C576.326 147.886 575.105 146.185 569.64 146.518L545.759 146.752C540.172 146.826 538.72 143.929 538.87 140.243C539.249 129.26 542.64 123.638 551.807 120.692C555.011 119.86 558.334 119.466 561.666 119.521L641.216 119.496Z" fill="#27282B"/>
<path d="M46.6998 64.023C58.3218 81.6758 103.467 125.857 121.72 111.927C129.247 106.183 140.15 112.889 139.35 107.07C138.089 98.022 87.0987 45.2237 68.1944 42.524C58.8507 41.1803 57.82 47.6398 52.6397 50.2286C50.4427 51.6832 47.9746 49.9821 45.8591 51.2271C42.6315 54.4199 44.7606 60.5466 46.6998 64.023Z" fill="white"/>
<path d="M92.1402 188.321C88.3838 180.604 96.2086 179.494 100.779 174.588C103.64 169.94 98.6631 165.959 91.1909 166.427C83.7187 166.895 91.2723 166.501 91.2723 166.501C66.4553 168.88 45.3405 170.286 20.1166 174.526C9.34903 176.277 2.7176 183.414 0.832588 193.843C-0.0760131 198.109 -0.808319 203.964 1.83612 206.639C5.51121 210.867 52.1753 210.066 77.1144 200.032C83.3661 197.517 93.1437 194.09 92.1402 188.321Z" fill="white"/>
<path d="M194.329 79.9996C196.458 86.0031 198.926 86.4962 203.822 85.9661C210.603 85.5346 207.145 100.623 214.223 101.659C214.9 101.687 215.569 101.524 216.139 101.193C216.71 100.862 217.154 100.379 217.41 99.8098C227.676 77.793 234.62 50.9069 238.688 33.2787C242.756 15.86 234.62 6.61449 216.692 0.512413C208.555 -2.28591 204.839 7.05827 202.995 12.0632C193.76 37.3961 191.847 56.7008 194.329 79.9996Z" fill="white"/>
<path d="M286 291.846C280.725 282.97 275.436 273.922 269.225 265.539C259.556 252.127 246.551 245.729 228.121 244.915L224.283 244.718C223.725 244.724 223.177 244.854 222.687 245.097C222.197 245.34 221.78 245.688 221.473 246.112C221.165 246.535 220.976 247.02 220.922 247.525C220.868 248.03 220.951 248.539 221.164 249.008C230.033 268.029 238.292 280.468 249.249 296.555C254.05 303.347 257.942 311.262 267.828 311.816C271.368 311.816 275.816 309.228 280.033 308.303C284.251 307.378 287.628 307.477 289.241 305.505C292.279 301.683 288.211 295.593 286 291.846Z" fill="white"/>
<path d="M136.249 236.2C136.154 234.178 131.665 231.096 125.4 237.088C119.135 243.079 100.895 269.496 89.9241 293.387C89.4494 294.282 89.1761 295.255 89.1202 296.248C89.0643 297.241 89.2269 298.234 89.5986 299.168C92.1732 304.741 95.3245 310.078 99.0101 315.108C102.211 319.41 103.485 320.039 105.967 320.458C108.042 320.766 110.795 319.558 113.534 317.228C130.675 301.77 147.017 277.189 149.878 254.642C152.17 236.681 136.602 243.794 136.249 236.2Z" fill="white"/>
<path d="M251.642 198.922C263.468 181.294 266.56 161.57 259.142 142.426C238.434 100.352 182.209 120.902 185.287 166.908C185.464 169.608 188.122 173.22 191.471 171.198C194.821 169.176 198.103 150.956 211.094 148.589C221.17 146.753 231.26 153.262 232.711 163.567C234.162 173.873 226.744 191.514 206.429 205.345C192.285 214.973 180.134 204.051 171.902 192.549C164.996 182.99 161.952 171.549 163.291 160.177C164.389 152.941 165.488 147.702 169.014 145.273C173.72 142.882 179.225 147.061 185.287 144.164C188.65 142.216 185.721 137.593 183.782 134.98C168.661 116.489 144.59 114.985 133.741 141.144C116.329 176.733 153.107 235.251 193.044 237.359C216.207 238.592 239.654 216.809 251.642 198.922Z" fill="white"/>
<path d="M392.841 119.496C401.805 119.496 401.805 119.496 401.778 127.891C401.778 137.457 395.974 144.62 386.291 146.111C381.314 146.617 371.374 146.58 371.374 146.58C362.776 146.715 363.617 145.692 363.617 153.594C363.617 179.864 363.535 206.146 363.617 232.416C363.725 234.992 362.383 237.642 358.192 237.63L347.099 237.531C334.474 237.236 327.964 231.368 327.897 219.879C327.775 197.492 327.992 152.682 327.992 152.682C327.992 147.886 326.771 146.185 321.292 146.518L297.411 146.752C291.824 146.826 290.373 143.929 290.536 140.243C290.915 129.26 294.306 123.638 303.473 120.692C306.677 119.86 310 119.465 313.332 119.521L392.841 119.496Z" fill="#27282B"/>
<path d="M531.724 231.898C529.595 221.309 527.276 210.757 524.13 200.389C517.241 177.522 508.711 155.148 496.411 134.117C490.43 123.922 481.046 119.842 468.461 118.88C457.517 118.018 451.605 122.123 446.357 129.975C442.18 136.25 417.959 181.282 410.745 209.499C409.401 214.052 408.699 218.741 408.656 223.454C408.887 232.009 414.081 237.593 423.438 237.593H435.548C438.599 237.593 439.725 236.151 440.227 233.784C441.583 227.017 443.468 220.323 444.838 213.555C444.926 213.026 445.052 212.503 445.217 211.989C462.237 211.989 481.697 200.352 487.393 193.77C489.888 203.952 493.183 217.574 494.173 222.184C496.438 232.81 501.74 237.593 513.484 237.593H526.178C530.721 237.63 532.484 235.781 531.724 231.898ZM484.436 184.043C473.977 186.378 463.144 186.996 452.445 185.868C453.015 183.809 453.408 182.478 453.449 182.342C457.409 171.124 463.769 154.593 468.176 150.562C468.429 150.34 468.767 150.216 469.119 150.216C469.471 150.216 469.809 150.34 470.061 150.562C473.899 154.396 480.395 170.964 484.355 181.75C484.355 181.874 484.613 182.675 484.938 183.932L484.436 184.043Z" fill="#27282B"/>
</g>
</svg>
