<svg width="1104" height="300" viewBox="0 0 1104 300" fill="none" xmlns="http://www.w3.org/2000/svg">
<mask id="mask0_1_495" style="mask-type:alpha" maskUnits="userSpaceOnUse" x="0" y="0" width="1104" height="300">
<rect width="1104" height="300" rx="56" fill="#ABFFEE"/>
<rect width="1104" height="300" rx="56" fill="#B8E69A"/>
</mask>
<g mask="url(#mask0_1_495)">
<path d="M1071.13 -73.1063C625.278 -90.7157 113.866 -71.8315 -33.9571 -9.13123C-125.709 36.8935 -178.911 143.334 -56.5923 313.425C34.947 440.716 325.594 417.251 415.081 414.916C502.303 417.251 750.374 442.142 989.609 377.307C1259.77 291.261 1135.24 265.835 1139.77 204.802V38.1153C1139.77 35.183 1139.52 32.1607 1139.08 29.2631C1121.53 -83.9427 1138.23 -68.1673 1071.13 -73.1063Z" fill="#B5F5FE" fill-opacity="0.52"/>
<path d="M1174.19 248.592C1167.94 246.003 1163.47 240.938 1160.36 234.926C997.586 -79.9995 469.44 57.8521 318.762 73.1241C185.64 86.6167 309.501 332.043 266.995 417.818C179.596 594.185 320.513 514.621 602.43 514.621C962.961 514.621 964.476 497.482 1139.77 402.825C1318.17 306.492 1208.94 262.986 1174.19 248.592Z" fill="#B5F5FE" fill-opacity="0.52"/>
<path d="M68.7332 97.9872C48.6678 91.828 -625.361 -88.5266 -777.5 -73.1065C-910.622 -59.6139 -786.761 185.813 -829.267 271.587C-916.666 447.955 -775.75 368.391 -493.832 368.391C-133.302 368.391 -131.786 351.252 43.5103 256.595C246.668 146.893 88.7985 104.146 68.7332 97.9872Z" fill="#B5F5FE" fill-opacity="0.52"/>
</g>
</svg>
