<svg width="139" height="26" viewBox="0 0 139 26" fill="none" xmlns="http://www.w3.org/2000/svg">
<g clip-path="url(#clip0_1_327)">
<path d="M102.477 0.366943H102.373V25.7107H102.477V0.366943Z" fill="#575756"/>
<mask id="mask0_1_327" style="mask-type:luminance" maskUnits="userSpaceOnUse" x="109" y="0" width="18" height="23">
<path d="M111.553 2.23627C109.927 3.73675 109.103 5.64219 109.103 7.90015C109.103 9.77124 109.657 11.5447 110.751 13.1681C111.681 14.5385 113.34 16.2956 115.825 18.5464L119.682 22.1584C120.392 22.6809 121.386 22.5778 121.96 21.9396C122.556 21.2762 122.525 20.2276 121.867 19.5895C119.866 17.7817 120.172 18.0492 118.171 16.2414C116.089 14.3776 114.631 12.8066 113.836 11.5682C113.085 10.4004 112.704 9.20178 112.704 8.00862C112.704 6.60576 113.183 5.49395 114.164 4.60812C115.169 3.70241 116.344 3.2613 117.757 3.2613C119.169 3.2613 120.435 3.62648 121.529 4.34418C122.213 4.81602 122.916 5.4813 123.624 6.32735C123.62 6.32735 123.615 6.32735 123.611 6.32555C123.809 6.58045 124.151 7.09568 124.283 7.83326C124.455 8.80045 124.162 9.56696 124.03 9.86163C124.586 9.86163 125.366 9.5995 125.994 8.91615C126.628 8.22737 127.412 5.62954 125.697 3.61744C125.697 3.61744 125.694 3.61382 125.692 3.61202C125.252 3.10221 124.814 2.49479 123.475 1.60353C121.842 0.538729 119.859 0 117.572 0C115.285 0 113.163 0.752051 111.555 2.23627" fill="white"/>
</mask>
<g mask="url(#mask0_1_327)">
<path d="M127.41 0H109.103V22.6827H127.41V0Z" fill="url(#paint0_linear_1_327)"/>
</g>
<mask id="mask1_1_327" style="mask-type:luminance" maskUnits="userSpaceOnUse" x="109" y="0" width="18" height="11">
<path d="M111.553 2.23627C109.927 3.73675 109.103 5.64219 109.103 7.90015C109.103 8.71909 109.21 9.51815 109.42 10.2955C109.49 9.4386 109.744 7.99416 110.723 6.59129C113.041 3.27395 117.293 3.25768 117.755 3.26311C119.164 3.26311 120.433 3.62829 121.527 4.34599C122.211 4.81783 122.914 5.4831 123.622 6.32916C123.619 6.32916 123.613 6.32916 123.609 6.32735C123.807 6.58226 124.149 7.09748 124.281 7.83507C124.453 8.80225 124.16 9.56877 124.028 9.86344C124.584 9.86344 125.364 9.60131 125.993 8.91795C126.626 8.22918 127.41 5.63134 125.696 3.61925C125.696 3.61925 125.692 3.61563 125.69 3.61382C125.25 3.10402 124.812 2.49659 123.474 1.60534C121.842 0.538729 119.859 0 117.572 0C115.285 0 113.163 0.752051 111.555 2.23627" fill="white"/>
</mask>
<g mask="url(#mask1_1_327)">
<path d="M127.41 0H109.103V10.2955H127.41V0Z" fill="url(#paint1_linear_1_327)"/>
</g>
<mask id="mask2_1_327" style="mask-type:luminance" maskUnits="userSpaceOnUse" x="121" y="0" width="19" height="27">
<path d="M130.523 0C128.236 0 126.252 0.538729 124.622 1.60715C124.155 1.91809 123.798 2.19469 123.512 2.44417C123.414 2.52733 123.327 2.60868 123.247 2.68461C123.244 2.68822 123.24 2.69184 123.236 2.69545C123.235 2.69545 123.233 2.69907 123.231 2.70088C122.869 3.04978 122.639 3.34627 122.407 3.61563C122.407 3.61744 122.403 3.61925 122.402 3.62105C120.685 5.63134 121.471 8.22917 122.103 8.91976C122.731 9.60311 123.512 9.86525 124.068 9.86525C123.935 9.57057 123.642 8.80406 123.814 7.83688C123.946 7.09929 124.289 6.58406 124.486 6.32916C124.486 6.32916 124.484 6.32916 124.482 6.32916C125.192 5.4831 125.893 4.81963 126.577 4.3478C127.671 3.63009 128.939 3.26491 130.35 3.26491C131.76 3.26491 132.937 3.70602 133.942 4.61174C134.924 5.49757 135.402 6.60937 135.402 8.01224C135.402 9.20539 135.022 10.4022 134.27 11.5718C133.475 12.8102 132.017 14.3812 129.935 16.245L122.972 23.1635C122.972 23.1635 122.961 23.1744 122.958 23.178L122.95 23.1852C122.659 23.4853 122.478 23.8939 122.478 24.344C122.478 25.2606 123.222 26.0036 124.14 26.0036C124.586 26.0036 124.989 25.8283 125.288 25.5426L125.301 25.53C125.31 25.5209 125.319 25.5119 125.326 25.5047L132.282 18.5518C134.764 16.3011 136.423 14.5421 137.356 13.1735C138.45 11.5501 139.004 9.77666 139.004 7.90558C139.004 5.64761 138.18 3.74218 136.554 2.24169C134.945 0.757474 132.921 0.00542345 130.536 0.00542345H130.527L130.523 0Z" fill="white"/>
</mask>
<g mask="url(#mask2_1_327)">
<path d="M136.859 -5.87723L112.314 3.04126L122.827 31.8765L147.372 22.958L136.859 -5.87723Z" fill="url(#paint2_linear_1_327)"/>
</g>
<path d="M12.696 0.368809C9.48711 0.368809 6.70019 1.45169 4.34607 3.52345C4.15231 3.69157 3.96036 3.87235 3.76659 4.05494C1.27304 6.51357 0 9.52178 0 13.0271C0 16.5325 1.30563 19.4828 3.75573 21.9433C5.44345 23.63 7.38832 24.7725 9.57222 25.3185C10.5736 25.5535 11.6076 25.6909 12.696 25.6909C13.7843 25.6909 14.8473 25.5698 15.8324 25.3185C16.1112 25.257 16.3865 25.172 16.6563 25.0871C16.7613 25.0491 16.87 25.0111 16.9805 24.9678H16.9949C18.4907 24.4344 19.8525 23.6047 21.1074 22.4856L25.0189 25.3167L25.3774 25.5806V0.352539L21.0965 3.57045C18.7298 1.45169 15.9193 0.368809 12.696 0.368809ZM18.0905 18.4144C16.9207 19.5696 15.5789 20.2692 14.0487 20.5169C13.6141 20.5928 13.1686 20.629 12.696 20.629C10.5736 20.629 8.77544 19.9312 7.27786 18.4361C5.77122 16.9447 5.08128 15.1369 5.08128 13.0253C5.08128 11.0982 5.66438 9.42596 6.9175 8.01587C7.02615 7.88028 7.14566 7.75193 7.27786 7.61634C8.77544 6.11043 10.5736 5.42346 12.696 5.42346C14.8183 5.42346 16.5947 6.14839 18.0905 7.64165C19.5881 9.13671 20.3106 10.9192 20.3106 13.0253C20.3106 15.1314 19.5881 16.9157 18.0905 18.4126" fill="#E30613"/>
<path d="M58.9617 25.069C60.1894 25.4794 61.4933 25.6836 62.8804 25.6836C64.2675 25.6836 65.5605 25.4776 66.8154 25.069C67.7299 24.7779 68.6154 24.3694 69.4683 23.8397C71.424 22.6357 72.9814 21.0213 74.0552 18.9965L74.5279 18.0944L70.1094 15.5997L69.6023 16.5596C68.9395 17.8016 68.0341 18.8013 66.8263 19.5335C65.6202 20.2674 64.3092 20.62 62.8804 20.62C61.649 20.62 60.4919 20.3687 59.4198 19.8101L74.057 6.92214L73.5862 6.16466C72.4635 4.39301 70.9098 3.02087 69.0844 1.99765C67.7462 1.23837 66.3192 0.730372 64.8253 0.513435C64.1969 0.403158 63.5468 0.356155 62.8822 0.356155C62.5472 0.356155 62.2194 0.368809 61.8953 0.390503C58.853 0.609249 56.2001 1.84941 53.9655 4.0441C51.4701 6.50092 50.2007 9.51274 50.2007 13.0199C50.2007 15.0519 50.648 16.9103 51.5046 18.597C52.1202 19.7992 52.9424 20.9074 53.9547 21.9324C55.4377 23.4148 57.1019 24.4652 58.9635 25.0654M55.3635 11.834V11.8231C55.5844 10.2214 56.2599 8.81492 57.4659 7.61092C57.6723 7.40663 57.8878 7.20958 58.1051 7.03242H58.1178C59.4814 5.92423 61.0641 5.41623 62.884 5.41623C64.3454 5.41623 65.6727 5.77418 66.8806 6.52442L55.9593 16.198C55.5011 15.1965 55.2856 14.1371 55.2856 13.0199C55.2856 12.6041 55.3092 12.2208 55.3671 11.834" fill="#E30613"/>
<path d="M42.7961 25.6457H47.872V10.7746C47.872 8.07553 46.9466 5.71271 45.0325 3.79643C43.1112 1.88014 40.7444 0.961773 38.0354 0.961773C35.6504 0.961773 33.5209 1.70478 31.7354 3.25047L28.2042 0.394119V25.6457H33.28V10.7746C33.28 9.45489 33.7273 8.34851 34.6653 7.41025C35.6016 6.4738 36.7152 6.02546 38.0354 6.02546C39.3555 6.02546 40.4746 6.45211 41.4253 7.36686C42.3887 8.30331 42.7961 9.44766 42.7961 10.7764V25.6475V25.6457Z" fill="#E30613"/>
<path d="M95.7475 25.6764L87.5317 11.232L93.6995 0.367002H87.6946L84.5021 5.98027L81.3077 0.367002H75.292L81.5214 11.2356L73.244 25.6764H79.2596L84.5021 16.4837L89.7355 25.6764H95.7475Z" fill="#E30613"/>
</g>
<defs>
<linearGradient id="paint0_linear_1_327" x1="110.684" y1="10.868" x2="128.47" y2="10.868" gradientUnits="userSpaceOnUse">
<stop stop-color="#8C1912"/>
<stop offset="0.45" stop-color="#D71016"/>
<stop offset="1" stop-color="#E94A41"/>
</linearGradient>
<linearGradient id="paint1_linear_1_327" x1="110.684" y1="4.67129" x2="128.47" y2="4.67129" gradientUnits="userSpaceOnUse">
<stop stop-color="#E94A41"/>
<stop offset="0.55" stop-color="#D71016"/>
<stop offset="1" stop-color="#8C1912"/>
</linearGradient>
<linearGradient id="paint2_linear_1_327" x1="124.29" y1="-0.841669" x2="132.25" y2="21.065" gradientUnits="userSpaceOnUse">
<stop stop-color="#E30613"/>
<stop offset="0.13" stop-color="#E30613"/>
<stop offset="0.18" stop-color="#CD0920"/>
<stop offset="0.57" stop-color="#312783"/>
<stop offset="1" stop-color="#312783"/>
</linearGradient>
<clipPath id="clip0_1_327">
<rect width="139" height="26" fill="white"/>
</clipPath>
</defs>
</svg>
