<svg width="192" height="35" viewBox="0 0 192 35" fill="none" xmlns="http://www.w3.org/2000/svg">
<path d="M119.543 22.2857C118.514 22.2857 117.486 22.2857 116.343 22.2857C116.343 17.0286 116.343 10.9714 116.343 5.6C116.229 5.71429 111.2 12.6857 108.571 16.3429C105.714 13.0286 103.657 9.48572 100.914 6.28572C100.914 11.5429 100.914 16.8 100.914 22.1714C99.6572 22.1714 98.7429 22.1714 97.6 22.1714C97.6 15.0857 97.6 8 97.6 0.914287C98.8572 0.914287 100.114 0.914287 101.486 0.914287C103.771 4.11429 106.057 7.42857 108.571 10.9714C110.971 7.54286 113.371 4.22857 115.657 0.914287C116.914 0.914287 118.171 0.914287 119.543 0.914287C119.543 8.11429 119.543 15.0857 119.543 22.2857Z" fill="black"/>
<path d="M80.1143 0.457144C86.8571 0.228572 91.3143 5.71429 90.9714 12.2286C90.6286 18.0571 86.9714 22.9714 79.6571 22.8571C73.3714 22.7429 68.9143 18.0571 69.0286 11.5429C69.0286 4.91429 73.6 0.457144 80.1143 0.457144ZM80 3.54286C75.3143 3.54286 72.3429 6.62857 72.3429 11.6571C72.3429 16.4571 75.4286 19.7714 80 19.7714C84.6857 19.7714 87.5429 16.6857 87.5429 11.8857C87.5429 6.85714 84.5714 3.54286 80 3.54286Z" fill="black"/>
<path d="M170.4 22.2857C169.143 22.2857 168.114 22.2857 166.857 22.2857C166.171 20.9143 165.486 19.4286 164.8 17.9429C160.914 17.9429 157.029 17.9429 153.029 17.9429C152.343 19.4286 151.657 20.9143 150.971 22.2857C149.829 22.2857 148.8 22.2857 147.429 22.2857C150.629 15.0857 153.829 8 157.029 0.914287C158.286 0.914287 159.543 0.914287 160.8 0.914287C164 8 167.2 15.0857 170.4 22.2857ZM163.543 14.7429C162.057 11.3143 160.571 8 158.971 4.34286C157.371 8 155.886 11.2 154.4 14.7429C157.486 14.7429 160.457 14.7429 163.543 14.7429Z" fill="black"/>
<path d="M173.829 18.0571C174.629 17.4857 175.429 17.0286 176.229 16.4571C178.629 19.8857 181.943 20.5714 185.6 19.5429C186.514 19.3143 187.543 18.5143 188.114 17.6C189.029 16.2286 188.457 14.5143 186.971 13.8286C185.486 13.2571 183.771 12.9143 182.171 12.5714C180.686 12.1143 179.086 11.8857 177.6 11.3143C174.171 9.71429 173.486 5.02857 176.343 2.51429C179.543 -0.457142 187.429 -0.571428 190.4 3.31429C190.514 3.42857 190.629 3.65714 190.857 4C190.057 4.57143 189.257 5.14286 188.457 5.6C185.943 3.31429 183.2 2.74286 180.114 3.77143C179.086 4.11429 178.171 4.8 177.943 6.05714C177.714 7.65714 178.514 8.68572 180.457 9.14286C182.514 9.6 184.457 9.82857 186.514 10.4C188.571 10.9714 190.629 11.8857 191.429 14.1714C192.571 17.4857 191.2 20.8 187.771 22.1714C184.229 23.5429 180.686 23.4286 177.257 21.8286C175.886 20.9143 174.743 19.6571 173.829 18.0571Z" fill="black"/>
<path d="M130.971 15.7714C130.971 18.0571 130.971 20.2286 130.971 22.2857C129.829 22.2857 128.8 22.2857 127.771 22.2857C127.771 15.2 127.771 8 127.771 0.914287C128.114 0.914287 128.457 0.914287 128.686 0.914287C131.657 0.914287 134.629 0.800002 137.6 0.914287C143.2 1.02857 146.4 5.14286 145.029 10.6286C144.343 13.2571 142.057 15.4286 139.2 15.6571C137.029 15.8857 134.971 15.7714 132.8 15.8857C132.229 15.7714 131.771 15.7714 130.971 15.7714ZM131.086 12.5714C133.6 12.5714 135.886 12.5714 138.171 12.5714C140.229 12.4571 141.714 10.9714 141.829 9.02857C142.057 6.62857 141.029 4.45715 138.971 4.22857C136.343 3.88572 133.714 4.11429 131.086 4.11429C131.086 6.85715 131.086 9.71429 131.086 12.5714Z" fill="black"/>
<path d="M51.5429 12.8C51.5429 16.1143 51.5429 19.2 51.5429 22.4C50.4 22.4 49.3714 22.4 48.2286 22.4C48.2286 15.2 48.2286 8 48.2286 0.685716C49.2572 0.685716 50.2857 0.685716 51.4286 0.685716C51.4286 3.65714 51.4286 7.2 51.4286 10.1714C51.5429 9.94286 57.6 3.65714 60.4572 0.57143C61.8286 0.57143 63.0857 0.57143 64.8 0.57143C61.3714 4.22857 58.0572 7.54286 54.7429 11.0857C58.4 14.8571 61.9429 18.5143 65.7143 22.2857C64.1143 22.2857 62.7429 22.2857 61.4857 22.2857C58.2857 19.2 54.9714 16.1143 51.5429 12.8Z" fill="black"/>
<path d="M49.8286 28.9143H48.1143V28.4571H52V28.9143H50.2857V33.3714H49.7143V28.9143H49.8286Z" fill="black"/>
<path d="M55.5429 30.8571C55.5429 29.4857 56.5714 28.3429 58.0572 28.3429C59.5429 28.3429 60.5714 29.3714 60.5714 30.8571C60.5714 32.2286 59.4286 33.3714 58.0572 33.3714C56.5714 33.3714 55.5429 32.3429 55.5429 30.8571ZM60.1143 30.8571C60.1143 29.7143 59.2 28.8 58.0572 28.8C56.9143 28.8 56 29.6 56 30.8571C56 32.1143 56.9143 32.9143 58.0572 32.9143C59.2 32.9143 60.1143 32 60.1143 30.8571Z" fill="black"/>
<path d="M64.9143 31.2V28.4571H65.4857V31.2C65.4857 32.3429 66.0572 32.9143 66.9714 32.9143C67.8857 32.9143 68.4572 32.3429 68.4572 31.2V28.4571H68.9143V31.2C68.9143 32.5714 68.1143 33.3714 66.9714 33.3714C65.7143 33.3714 64.9143 32.5714 64.9143 31.2Z" fill="black"/>
<path d="M77.0286 33.2571L75.8857 31.6571C75.7714 31.6571 75.6572 31.6571 75.5429 31.6571H74.2857V33.2571H73.7143V28.3429H75.5429C76.8 28.3429 77.4857 28.9143 77.4857 30.0571C77.4857 30.8571 77.0286 31.3143 76.3429 31.5429L77.4857 33.2571H77.0286ZM77.0286 30.0571C77.0286 29.2571 76.4571 28.8 75.5429 28.8H74.2857V31.2H75.5429C76.4571 31.3143 77.0286 30.8571 77.0286 30.0571Z" fill="black"/>
<path d="M81.4857 30.8571C81.4857 29.4857 82.5143 28.3429 84 28.3429C85.4857 28.3429 86.5143 29.3714 86.5143 30.8571C86.5143 32.2286 85.3714 33.3714 84 33.3714C82.6286 33.3714 81.4857 32.3429 81.4857 30.8571ZM86.0572 30.8571C86.0572 29.7143 85.1429 28.8 84 28.8C82.8572 28.8 81.9429 29.6 81.9429 30.8571C81.9429 32.1143 82.8572 32.9143 84 32.9143C85.2572 32.9143 86.0572 32 86.0572 30.8571Z" fill="black"/>
<path d="M94.7429 30.0571C94.7429 31.0857 93.9429 31.7714 92.8 31.7714H91.5429V33.2571H90.9714V28.3429H92.8C94.0571 28.4571 94.7429 29.0286 94.7429 30.0571ZM94.2857 30.0571C94.2857 29.2571 93.7143 28.8 92.8 28.8H91.5429V31.2H92.8C93.7143 31.3143 94.2857 30.8571 94.2857 30.0571Z" fill="black"/>
<path d="M102.514 32.9143V33.3714H99.0857V28.4571H102.4V28.9143H99.5429V30.6286H102.057V31.0857H99.5429V32.9143H102.514Z" fill="black"/>
<path d="M110.286 33.2571L109.143 31.6571C109.029 31.6571 108.914 31.6571 108.8 31.6571H107.429V33.2571H106.857V28.3429H108.686C109.943 28.3429 110.629 28.9143 110.629 30.0571C110.629 30.8571 110.171 31.3143 109.486 31.5429L110.629 33.2571H110.286ZM110.286 30.0571C110.286 29.2571 109.714 28.8 108.8 28.8H107.429V31.2H108.686C109.714 31.3143 110.286 30.8571 110.286 30.0571Z" fill="black"/>
<path d="M118.286 32H115.543L114.971 33.2571H114.4L116.571 28.3429H117.029L119.2 33.2571H118.857L118.286 32ZM118.057 31.5429L116.914 28.9143L115.771 31.5429H118.057Z" fill="black"/>
<path d="M124.114 28.9143H122.4V28.4571H126.286V28.9143H124.571V33.3714H124V28.9143H124.114Z" fill="black"/>
<path d="M129.829 30.8571C129.829 29.4857 130.857 28.3429 132.343 28.3429C133.829 28.3429 134.857 29.3714 134.857 30.8571C134.857 32.2286 133.714 33.3714 132.343 33.3714C130.857 33.3714 129.829 32.3429 129.829 30.8571ZM134.4 30.8571C134.4 29.7143 133.486 28.8 132.343 28.8C131.2 28.8 130.286 29.6 130.286 30.8571C130.286 32.1143 131.2 32.9143 132.343 32.9143C133.6 32.9143 134.4 32 134.4 30.8571Z" fill="black"/>
<path d="M142.629 33.2571L141.486 31.6571C141.371 31.6571 141.257 31.6571 141.143 31.6571H139.886V33.2571H139.314V28.3429H141.143C142.4 28.3429 143.086 28.9143 143.086 30.0571C143.086 30.8571 142.629 31.3143 141.943 31.5429L143.086 33.2571H142.629ZM142.629 30.0571C142.629 29.2571 142.057 28.8 141.143 28.8H139.886V31.2H141.143C142.057 31.3143 142.629 30.8571 142.629 30.0571Z" fill="black"/>
<path fill-rule="evenodd" clip-rule="evenodd" d="M21.9429 12.9143C22.7429 13.8286 23.3143 15.0857 23.5429 16.4571L19.4286 16L21.9429 12.9143ZM17.8286 10.8571C19.2 10.9714 20.3429 11.5429 21.3714 12.4571L18.2857 14.8571L17.8286 10.8571ZM23.8857 16.4571C23.7714 14.9714 23.0857 13.7143 22.1714 12.6857L23.6571 10.7429L21.7143 12.1143C20.6857 11.2 19.3143 10.5143 17.8286 10.4L17.2571 4C24.4571 4 30.2857 9.94286 30.4 17.1429L23.8857 16.4571ZM20.2286 9.34211e-07H34.2857V13.1429C34.2857 15.0857 32.9143 16.6857 31.0857 17.0286C31.0857 9.37143 24.8 3.2 17.1429 3.2V3.08572C17.1429 1.37143 18.5143 9.34211e-07 20.2286 9.34211e-07Z" fill="#10C0E7"/>
<path fill-rule="evenodd" clip-rule="evenodd" d="M12.3429 12.9143C11.5429 13.8286 10.9714 15.0857 10.7429 16.4571L14.7429 16.1143L12.3429 12.9143ZM16.4571 10.8571C15.0857 10.9714 13.9429 11.5429 12.9143 12.4571L16 14.8571L16.4571 10.8571ZM10.4 16.4571C10.5143 14.9714 11.2 13.7143 12.1143 12.6857L10.5143 10.6286L12.5714 12.2286C13.6 11.3143 14.9714 10.6286 16.4571 10.5143L17.1429 4C9.82857 4 4 9.82857 4 17.0286L10.4 16.4571ZM13.8286 0H0.114286C0.114286 0 0 4.32134e-07 0 0.114286V13.1429C0 15.0857 1.37143 16.6857 3.2 17.0286C3.2 9.37143 9.48572 3.2 17.1429 3.2C17.0286 1.48572 15.6571 0 13.8286 0Z" fill="#10C0E7"/>
<path fill-rule="evenodd" clip-rule="evenodd" d="M12.3429 21.3714C11.5429 20.4571 10.9714 19.2 10.7429 17.8286L14.7429 18.2857L12.3429 21.3714ZM16.4571 23.4286C15.0857 23.3143 13.9429 22.7429 12.9143 21.8286L16 19.4286L16.4571 23.4286ZM10.4 17.8286C10.5143 19.3143 11.2 20.5714 12.1143 21.6L10.6286 23.5429L12.5714 22.0571C13.6 22.9714 14.9714 23.6571 16.4571 23.7714L17.1429 30.2857C9.82857 30.2857 4 24.4571 4 17.2571L10.4 17.8286ZM13.1429 34.2857H0V21.1429C0 19.2 1.37143 17.6 3.2 17.2571C3.2 24.9143 9.37143 31.0857 17.0286 31.0857C16.6857 32.9143 15.0857 34.2857 13.1429 34.2857Z" fill="#10C0E7"/>
<path fill-rule="evenodd" clip-rule="evenodd" d="M21.9429 21.3714C22.7429 20.4571 23.3143 19.2 23.5429 17.8286L19.5429 18.1714L21.9429 21.3714ZM17.8286 23.4286C19.2 23.3143 20.3429 22.7429 21.3714 21.8286L18.2857 19.4286L17.8286 23.4286ZM23.8857 17.8286C23.7714 19.3143 23.0857 20.5714 22.1714 21.6L23.7714 23.6571L21.7143 22.1714C20.6857 23.0857 19.3143 23.7714 17.8286 23.8857L17.2571 30.2857C24.4571 30.2857 30.2857 24.3429 30.4 17.1429L23.8857 17.8286ZM21.1429 34.2857H34.2857V21.1429C34.2857 19.2 32.9143 17.6 31.0857 17.2571C31.0857 24.9143 24.9143 31.0857 17.2571 31.0857C17.6 32.9143 19.2 34.2857 21.1429 34.2857Z" fill="#10C0E7"/>
</svg>
