<svg width="127" height="69" viewBox="0 0 127 69" fill="none" xmlns="http://www.w3.org/2000/svg">
<path d="M87.5738 9.36842C87.5215 9.11494 87.1218 9.1819 86.785 9.16803C86.4495 9.16372 86.4918 8.81173 86.2802 8.50038C86.0685 8.18139 85.843 8.24739 85.4476 8.12304C85.0508 7.99774 84.9136 8.40282 84.7907 8.4253C84.677 8.44921 84.6684 8.36073 84.4505 8.33395C84.2432 8.3043 84.3517 8.41095 84.1948 8.50278C84.034 8.5946 84.1233 8.36073 84.2437 8.17708C84.355 7.99487 84.189 7.95135 84.1233 7.53144C84.0575 7.10723 83.5758 7.16557 83.249 7.21101C82.9251 7.24783 82.4031 7.59648 82.4031 7.78491C82.3858 7.98339 82.5336 7.93748 82.57 8.06852C82.6209 8.20052 82.5019 8.09435 82.3757 8.24786C82.2577 8.40378 82.4817 8.37556 82.6698 8.49369C82.8599 8.61325 82.7332 8.60321 82.6631 8.69121C82.5849 8.78877 82.3752 8.52812 82.2337 8.41573C82.0859 8.28995 82.1478 8.06852 82.0686 7.77822C81.9865 7.486 82.297 7.387 82.5014 7.30188C82.6986 7.22488 83.1574 7.27079 82.6204 7.00057C82.0859 6.73658 81.3378 7.25261 81.1099 7.49509C80.8748 7.73565 80.786 8.21104 80.8287 8.43534C80.8714 8.65821 81.1459 8.64482 81.2831 8.61612C81.4199 8.57882 81.5302 8.73186 81.4414 8.8256C81.3565 8.91408 81.3042 8.74908 81.0912 8.74908C80.8748 8.75386 81.084 8.9136 81.1732 9.14125C81.2615 9.3689 81.8829 9.18238 81.9674 9.36507C82.0576 9.55876 82.3752 9.6592 82.5696 9.62763C82.7663 9.59989 83.2519 9.70224 83.356 9.78163C83.4491 9.86246 83.5019 9.74194 83.5676 9.75342C83.6382 9.7625 83.7893 9.8835 83.9179 9.89689C84.0359 9.89689 83.8119 9.74194 83.9318 9.74194C84.0571 9.74194 84.26 9.83902 84.5431 9.91459C84.8339 10.0031 84.6319 9.7625 84.7159 9.62094C84.8157 9.48416 85.1257 9.83424 85.2144 10.0055C85.3037 10.1776 85.5426 10.2666 85.7485 10.3627C85.9524 10.4512 85.808 10.4804 85.7303 10.5191C85.6496 10.5588 85.6161 10.5043 85.4467 10.5296C85.2677 10.5588 85.3838 10.6688 85.4644 10.7879C85.5503 10.9027 85.7427 10.6377 85.8589 10.6406C85.9769 10.6506 86.0129 10.6688 86.2115 10.9213C86.4164 11.1691 86.653 11.3532 86.7945 11.5918C86.939 11.8348 86.9212 11.8472 86.784 11.9323C86.6453 12.016 86.3301 12.2059 86.1444 12.3896C85.9524 12.5713 86.1343 12.5933 86.2389 12.7841C86.3401 12.9754 85.939 12.8291 85.7068 12.8874C85.4644 12.9467 85.4596 12.9128 85.1972 12.7765C84.9376 12.6373 84.8334 12.754 84.6545 12.9324C84.4764 13.1089 84.5383 13.2284 84.7389 13.3695C84.9539 13.513 85.1693 13.4412 85.3723 13.3336C85.569 13.2169 85.6156 13.4236 85.6156 13.4236C85.6832 13.6163 85.9582 13.2394 86.1117 13.4924C86.2662 13.7559 86.5369 13.8702 86.6232 13.8965C86.7125 13.9152 86.7926 13.8784 86.7941 14.1883C86.8013 14.4896 87.6352 14.8684 87.8464 14.9487C88.0594 15.0295 88.3492 15.1166 88.7019 15.2137C89.057 15.317 88.7609 14.9434 88.5503 14.7732C88.343 14.6015 88.0532 14.3801 87.9409 14.1438C87.8257 13.9013 88.3531 14.2935 88.5584 14.5211C88.7576 14.7502 88.7888 14.5541 89.0656 14.7622C89.3574 14.9678 89.1779 14.6928 89.2806 14.4987C89.3823 14.3055 89.3257 14.1127 89.1227 13.8349C88.913 13.556 88.8751 13.6168 88.7782 13.3595C88.6746 13.1022 88.6261 13.1591 88.4313 12.9238C88.2345 12.6846 88.5858 12.8262 88.6088 12.6048C88.6338 12.3824 88.831 12.5986 88.9471 12.7631C89.0637 12.9233 89.2979 12.8755 89.27 13.0883C89.2365 13.3006 89.4773 13.1136 89.76 13.5178C90.0484 13.9334 89.938 13.0883 90.2614 13.1184C90.5743 13.1514 90.6198 12.9094 90.7388 12.6378C90.8607 12.3685 90.3919 12.5861 90.2398 12.3743C90.0815 12.1543 90.1338 12.512 89.866 12.0773C89.6064 11.6392 89.378 11.9448 89.1223 11.611C88.8665 11.2786 88.926 11.3345 88.5498 11.2322C88.1563 11.1389 88.6616 10.9911 88.8598 10.8324C89.0637 10.6707 88.5412 10.6631 88.6535 10.5358C88.7777 10.4072 88.8348 10.401 88.7264 10.1781C88.6251 9.94759 88.6333 10.1781 88.4414 10.2049C88.2489 10.2298 88.3185 10.1585 88.4558 9.99398C88.5954 9.8285 87.9932 9.7515 87.7144 9.66015C87.4279 9.57359 87.6242 9.61568 87.5738 9.36842ZM94.0147 11.3594C94.3655 11.3594 94.2661 11.2666 94.3525 11.1107C94.4413 10.9624 94.0042 10.8496 93.7124 10.6745C93.4207 10.4985 93.3295 10.8907 93.3295 10.8907C93.3089 10.9868 93.2959 10.9993 93.3381 11.1523C93.3866 11.2972 93.6721 11.3699 94.0147 11.3594ZM91.9797 21.0455C92.0454 20.8834 91.8909 20.9709 91.6544 20.9499C91.4111 20.9298 91.0819 21.6089 90.9101 21.7462C90.7412 21.8648 90.7412 22.0255 90.6587 22.08C90.5723 22.134 90.5877 22.1225 90.5877 22.2665C90.581 22.4018 90.545 22.3617 90.545 22.3617C90.3276 22.3483 90.4039 22.4889 90.3463 22.608C90.2873 22.7328 90.4874 22.7103 90.6697 22.6529C90.8559 22.5975 90.9514 22.6725 91.2086 22.7916C91.4768 22.9059 91.521 22.75 91.6122 22.8514C91.6952 22.9561 91.7028 22.8395 91.7431 22.8835C91.7791 22.9308 91.6947 22.9523 91.5848 23.07C91.4711 23.1886 91.6836 23.1479 91.8914 23.0929C92.092 23.0456 92.0238 22.9547 92.1429 22.8514C92.2547 22.75 92.1976 22.8916 92.1976 23.0088C92.1976 23.1192 92.1827 23.1302 92.2475 23.2512C92.3089 23.3737 92.4653 23.3081 92.6049 23.2345C92.747 23.1613 92.6803 22.9681 92.6285 22.8065C92.5757 22.6472 92.4912 22.8141 92.4653 22.7285C92.438 22.6419 92.5608 22.6922 92.6198 22.5731C92.6803 22.4502 92.4927 22.4535 92.4615 22.3918C92.4255 22.3363 92.4912 22.2565 92.4615 22.1087C92.4442 21.9619 92.1678 22.0145 92.0234 22.0675C91.8837 22.1087 91.8444 22.0145 91.7787 21.8289C91.7148 21.6457 91.5997 21.6381 91.4831 21.6567C91.3583 21.6792 91.532 21.4898 91.6942 21.3693C91.8573 21.2545 91.9245 21.1995 91.9797 21.0455ZM83.5062 13.3647C83.356 13.2696 83.2903 13.3202 83.2485 13.1452C83.2044 12.9759 83.1636 13.018 82.9654 12.8989C82.7663 12.7769 82.7327 12.7679 82.5297 12.5522C82.3143 12.3336 82.3733 12.5522 82.2207 12.436C82.0576 12.314 82.1636 12.2681 81.9309 12.1299C81.6991 11.9969 81.8848 12.1944 81.7812 12.281C81.6751 12.3676 81.6627 12.8109 81.5398 12.8721C81.4127 12.9357 81.5974 13.0199 81.5974 13.1256C81.6094 13.2327 81.523 13.1701 81.2605 13.2279C80.988 13.2772 81.1996 13.3327 81.3037 13.436C81.4107 13.5422 81.4074 13.3867 81.523 13.3442C81.6415 13.2896 81.7092 13.3552 81.8383 13.4078C81.9626 13.4499 81.8546 13.4618 81.7912 13.5536C81.7236 13.6412 81.7845 13.6378 81.8719 13.7268C82.0278 13.9042 82.2327 13.5187 82.4102 13.5269C82.5921 13.5307 82.5412 13.3585 82.5547 13.2327C82.5686 13.1012 82.7735 13.2686 82.8503 13.3996C82.9342 13.5307 82.9726 13.4881 83.1185 13.5426C83.2581 13.5967 83.248 13.6273 83.4822 13.7425C83.7087 13.8621 83.6516 13.4623 83.5062 13.3647ZM79.1785 5.35968C78.9755 5.33242 78.9899 5.44337 78.8359 5.53376C78.6756 5.61985 78.8311 5.77576 78.8311 5.77576C78.9242 5.96754 79.1128 5.95559 79.2625 6.04071C79.4127 6.1115 79.5331 6.06463 79.6747 6.04215C79.8143 6.01298 79.7927 5.94315 79.8373 5.75663C79.8896 5.5725 79.7332 5.58733 79.56 5.39555C79.3868 5.20233 79.3815 5.37881 79.1785 5.35968ZM82.8747 13.9013C82.762 13.9429 82.785 13.9917 82.6967 13.963C82.6022 13.9295 82.4913 13.8439 82.4813 13.9152C82.4769 13.9879 82.4242 14.0238 82.3589 14.0821C82.2908 14.1433 82.1919 14.1644 82.3143 14.2543C82.4309 14.338 82.6123 14.3829 82.7433 14.2844C82.8052 14.2442 82.8599 14.162 82.9424 14.1529C83.0244 14.1529 83.1343 14.1003 83.0671 14.0128C82.9971 13.9219 83.0009 13.8635 82.8747 13.9013ZM85.6007 11.7023C85.7231 11.6621 85.8344 11.8123 85.8747 11.5407C85.9131 11.2704 86.0268 11.1925 85.8704 11.1112C85.7101 11.0318 85.5618 10.9873 85.4587 10.9997C85.4587 10.9997 85.1708 11.0514 85.1271 11.2178C85.0897 11.3972 84.988 11.456 85.0897 11.5459C85.1842 11.632 85.4774 11.7305 85.6007 11.7023ZM107.859 15.6704C108.107 15.47 107.91 15.317 107.716 15.1391C107.526 14.9674 107.62 14.931 107.411 14.7765C107.206 14.623 107.282 14.657 106.993 14.5699C106.71 14.4834 106.788 14.6135 106.579 14.7574C106.369 14.8937 106.501 14.8038 106.177 14.7072C105.848 14.6154 105.93 14.7904 105.755 14.7191C105.563 14.6465 105.579 14.6273 105.488 14.8425C105.406 15.0549 105.418 14.975 105.201 14.9061C104.981 14.8378 105.133 14.6359 104.928 14.4217C104.719 14.2074 104.157 14.646 104.078 14.8143C104.001 14.9927 104.193 14.9745 104.328 14.9334C104.465 14.8985 104.59 14.8736 104.719 14.9033C104.854 14.9334 104.717 15.1118 104.622 15.1046C104.372 15.1218 104.436 15.1419 104.245 15.2639C104.06 15.3844 104.65 15.4002 104.764 15.6326C104.874 15.8622 104.594 15.7517 104.793 15.909C105.001 16.0721 105.288 16.0559 105.746 16.2414C106.202 16.4222 106.526 16.1726 106.972 16.0994C107.431 16.0253 107.62 15.8679 107.859 15.6704ZM80.6382 6.21528C80.7927 6.27602 81.4794 6.25354 81.5873 6.25641C81.702 6.26071 81.8757 6.40706 82.0988 6.51419C82.3205 6.61319 82.4601 6.55436 82.7855 6.60027C83.1281 6.64762 83.1473 6.58449 83.4213 6.50032C83.6938 6.41567 83.5868 6.53619 83.9668 6.68923C84.3474 6.85279 84.3747 6.74184 84.6828 6.60793C84.9788 6.4788 84.6876 6.4128 84.6689 6.15167C84.6564 5.8958 84.4548 5.99002 84.3176 5.8475C84.1765 5.71311 83.9774 5.7375 83.6775 5.69924C83.3877 5.65333 83.4217 5.69924 83.2845 5.65763C83.1434 5.61746 82.7274 5.74563 82.5024 5.83363C82.2788 5.92306 82.4035 5.89819 82.2476 5.83219C82.0868 5.75759 82.0993 5.68824 81.8335 5.70928C81.5686 5.73463 81.5648 5.53998 81.4002 5.46681C81.2442 5.3965 81.2673 5.2999 81.3863 5.18177C81.5057 5.06651 81.3963 5.07751 81.251 4.98807C81.1113 4.91107 81.0494 4.97181 80.9443 4.86803C80.8512 4.75516 80.7812 4.68199 80.4554 4.66525C80.1219 4.64803 80.3455 4.72838 80.1219 4.75994C79.9016 4.78721 80.012 4.72886 79.8215 4.50695C79.6296 4.29365 79.6492 4.48543 79.4266 4.40173C79.1929 4.31565 79.3484 4.3496 79.0298 4.26639C78.6996 4.18747 78.8757 4.33525 78.8033 4.46534C78.7275 4.60499 78.8753 4.56482 79.0466 4.66764C79.2169 4.75994 79.1358 4.78721 79.1358 4.78721C79.2011 4.9259 79.5586 4.86851 79.8162 4.90438C80.0777 4.93977 80.226 5.18225 80.3354 5.43859C80.4439 5.69015 80.2702 5.57346 80.2577 5.84272C80.2433 6.1115 80.4904 6.1488 80.6382 6.21528ZM64.456 17.1061C64.3447 17.0062 64.456 16.9416 64.481 16.7379C64.5031 16.536 64.3716 16.5207 64.171 16.5045C63.9695 16.4806 64.0371 16.6417 64.0252 16.7713C64.0084 16.8971 64.2233 16.9784 64.2305 17.1296C64.244 17.2711 64.4095 17.2984 64.4455 17.4103C64.469 17.5227 64.5189 17.548 64.5424 17.5523C64.7708 17.5758 64.5717 17.416 64.5237 17.3189C64.4776 17.2276 64.5554 17.2199 64.456 17.1061ZM96.1534 43.9659C95.6836 43.7034 95.3856 42.9463 94.7964 42.9984C94.2153 43.0448 94.0929 42.6617 93.7657 42.8033C93.4355 42.953 93.3381 42.9023 93.449 42.7306C93.5565 42.5546 93.3045 42.1993 92.6808 42.0089C92.0579 41.8224 92.2268 42.1839 91.9562 42.1691C91.6947 42.1495 92.1928 41.9357 92.0181 41.7712C91.8343 41.6019 90.843 41.897 91.1745 41.5737C91.521 41.2413 91.722 41.1347 91.4764 40.7965C91.2254 40.4522 91.4706 40.1078 91.1361 39.8907C90.8113 39.6721 90.6064 39.3895 89.8459 39.2575C89.0872 39.1293 89.0306 39.0016 88.76 38.5406C88.4932 38.0733 88.3176 38.1948 88.1338 38.0614C87.9582 37.9284 88.1021 37.6391 87.5656 37.4401C87.0239 37.2383 87.13 37.2091 86.796 37.2871C86.4755 37.3593 86.3056 37.2483 86.2173 37.1183C86.141 36.9777 85.7231 37.2024 85.5623 37.0183C85.4188 36.8308 85.4611 36.6797 85.2475 36.6711C85.0326 36.6615 84.9995 36.5104 84.9265 36.4114C84.844 36.3105 84.7168 36.3779 84.7552 36.5487C84.7888 36.718 84.6074 36.8653 84.4784 36.7471C84.3478 36.6304 84.2082 36.5597 84.3325 36.4506C84.4596 36.3387 84.5403 36.168 84.3397 36.1947C84.1406 36.2249 84.1046 36.1914 83.9064 36.4195C83.7034 36.6352 83.3843 36.3641 83.1434 36.5711C82.8978 36.7849 82.7672 36.7529 82.7437 36.9743C82.7159 37.1895 82.3277 37.6042 82.0993 37.3593C81.869 37.1144 81.5245 36.8026 81.2797 36.9494C81.0235 37.0915 80.7932 37.244 80.5523 37.0193C80.3133 36.7978 80.3345 36.9566 80.1761 36.705C80.0154 36.4611 79.9098 36.3717 79.9266 36.1828C79.9501 35.9901 80.1396 35.7471 80.0115 35.4946C79.8824 35.2397 80.3752 34.8882 80.1037 34.6576C79.8335 34.4362 79.6305 34.2908 79.3666 34.3645C79.1003 34.441 78.1944 34.3195 78.2932 34.1488C78.3949 33.9718 78.6291 33.5213 78.6061 33.3367C78.5826 33.1564 78.8234 33.1674 78.8469 32.9393C78.8618 32.7116 79.2951 32.395 79.1708 32.2764C79.037 32.1559 78.8023 32.0009 78.4794 32.1463C78.1603 32.285 77.9957 32.1697 77.7673 32.693C77.5355 33.22 77.383 33.254 77.1929 33.1612C77.013 33.0617 76.7299 33.0923 76.5375 33.1569C76.3499 33.23 76.2616 33.0325 75.9588 32.9091C75.6675 32.7915 75.7073 32.5012 75.5615 32.3185C75.4113 32.1329 75.4266 31.7106 75.31 31.3529C75.1877 31.0014 75.3657 30.3816 75.5385 30.2787C75.7227 30.1754 75.6469 29.8426 75.5955 29.547C75.5384 29.2687 75.7716 29.1783 76.0859 29.1319C76.4046 29.0898 76.6459 28.9793 76.8676 28.8205C77.0936 28.6617 77.1992 28.7158 77.3662 28.821C77.536 28.9353 77.5946 28.8478 77.7515 28.8354C77.9074 28.821 77.8479 29.0333 78.0115 29.0769C78.1824 29.1161 78.2116 29.1653 78.3772 29.0783C78.5394 29.0042 78.5183 29.2682 78.5941 29.007C78.668 28.7469 78.668 28.7 78.8757 28.7301C79.0739 28.7579 79.0638 28.7885 79.2217 28.6766C79.3829 28.5747 79.4376 28.9444 79.7399 28.8411C80.0442 28.744 79.9223 29.3007 80.3527 29.0515C80.7793 28.8062 80.9899 29.4992 80.963 29.7302C80.9223 29.9607 80.9866 30.2572 81.13 30.5088C81.2802 30.7512 81.451 31.2195 81.6564 31.0564C81.8532 30.8904 81.8848 30.5552 81.8316 30.2892C81.7706 30.0147 81.7404 29.5891 81.5417 29.24C81.4256 28.8545 81.5652 28.8349 81.69 28.5647C81.8124 28.2987 82.0873 28.1629 82.4227 27.8827C82.7529 27.6005 82.7677 27.8588 83.0571 27.5766C83.357 27.2968 83.6468 27.3661 83.7413 26.9792C83.8387 26.599 83.7207 26.2418 83.8051 26.1896C83.8858 26.1284 83.8733 26.3915 84.0033 26.1939C84.1329 25.9945 84.1713 25.9347 84.1137 25.8022C84.071 25.6822 84.0834 25.6071 84.2164 25.6798C84.3478 25.7482 84.356 25.7597 84.462 25.6942C84.5532 25.6282 84.6837 25.2986 85.3056 24.8271C85.9265 24.3531 86.0901 24.2494 86.284 23.9724C86.4764 23.6912 86.6727 23.8184 86.9553 23.7104C87.2432 23.609 87.3929 23.6487 87.463 23.5038C87.5364 23.3684 88.1328 23.432 88.308 23.2919C88.4884 23.1441 88.4164 23.4315 88.2134 23.5038C88.0215 23.5779 87.6976 23.8204 87.7619 23.972C87.8099 24.1322 87.9366 24.2833 88.116 24.1456C88.284 24.0274 88.3382 23.8419 88.5157 23.8103C88.6947 23.7835 89.1434 23.7998 89.3291 23.6606C89.5128 23.5229 89.4999 23.4497 89.6568 23.4526C89.8027 23.4602 90.0939 23.5468 90.033 23.3072C89.9802 23.0709 90.0239 22.8237 89.902 22.8581C89.7729 22.8868 89.7921 22.9423 89.6294 23.1183C89.4649 23.2967 89.5618 23.4373 89.3487 23.3727C89.1371 23.3029 89.0815 23.2933 88.962 23.3029C88.8497 23.3067 88.6947 23.2484 88.5767 23.114C88.45 22.9786 88.4011 22.9351 88.308 22.838C88.2298 22.7424 88.3382 22.8634 88.2993 22.5941C88.26 22.3287 88.2043 22.3469 88.0676 22.2522C87.9303 22.1512 87.8627 22.0905 87.9826 22.1072C88.1079 22.1216 88.2043 22.2435 88.4198 22.1412C88.6371 22.0331 88.6482 21.914 88.5321 21.7452C88.4159 21.5692 88.0441 21.5357 87.82 21.6285C87.5983 21.717 87.0047 21.859 86.6261 22.19C86.2413 22.5291 86.034 22.5965 86.1319 22.4626C86.2187 22.3182 86.7864 21.8217 86.9327 21.7352C87.0829 21.6543 87.415 21.54 87.6386 21.2889C87.8632 21.045 87.9596 21.1048 88.116 21.1211C88.2681 21.1402 89.1558 21.2153 89.4706 21.2813C89.784 21.3502 90.1146 21.4812 90.4154 21.2483C90.7172 21.0135 90.9524 20.9494 91.1923 20.9494C91.4298 20.9494 91.7024 20.9293 91.8852 20.6285C92.0656 20.3238 91.793 19.8958 91.5099 19.8614C91.2264 19.8197 91.5099 19.5089 91.2249 19.3329C90.9289 19.1612 90.5315 19.0263 90.4567 18.8288C90.3766 18.6308 89.8209 18.4094 90.0133 18.1234C90.2038 17.8445 89.9605 17.6757 89.8463 17.4156C89.7379 17.1611 89.4255 16.8813 89.3814 16.6494C89.3391 16.4069 89.2729 16.0018 89.0671 16.1927C88.8631 16.3868 88.8382 16.592 88.6525 16.7374C88.4706 16.8833 88.1347 17.1597 87.951 17.0444C87.761 16.9253 87.3848 16.7704 87.4011 16.5757C87.427 16.3725 87.2317 16.0348 87.3464 15.8512C87.4538 15.6632 87.4817 15.5202 87.3488 15.5681C87.2154 15.6226 86.9467 15.6159 86.8406 15.4423C86.7379 15.2639 86.3171 14.9162 86.2322 14.8052C86.1496 14.6981 86.1309 14.634 85.8267 14.6637C85.5268 14.6924 85.319 14.6895 85.0719 14.4829C84.8248 14.2763 84.451 14.3102 84.4428 14.4456C84.4405 14.5785 84.3872 14.7134 84.4971 15.0185C84.607 15.3165 84.2874 15.173 84.4313 15.3916C84.5777 15.6159 84.5139 15.8579 84.4193 15.9755C84.3301 16.0898 84.0302 16.3926 84.2879 16.6327C84.5441 16.8737 84.6828 17.0975 84.641 17.4266C84.5964 17.7527 84.4846 17.9742 84.309 18.0818C84.13 18.1889 83.4472 18.2826 83.5019 18.5256C83.5527 18.7705 83.4832 18.7891 83.6017 19.077C83.7197 19.3659 83.6478 19.7657 83.5216 19.869C83.3877 19.9699 83.1132 20.2358 82.9208 19.8905C82.7226 19.5471 82.3858 19.3496 82.429 19.0268C82.4659 18.7083 82.5614 18.1679 82.3738 18.0875C82.1823 18.0005 81.5177 17.956 81.3047 17.7824C81.0844 17.604 80.4208 17.0248 80.0854 16.9335C79.7572 16.8297 79.4492 16.6432 79.0005 16.67C78.7851 16.6633 78.9463 16.6226 78.9012 16.405C78.8546 16.1917 78.8177 15.777 78.5274 15.7402C78.2232 15.7067 78.1814 15.6341 78.2049 15.4423C78.2232 15.2567 78.2424 14.8114 78.4856 14.5962C78.7409 14.3791 79.2203 14.0065 79.3431 13.8129C79.4659 13.6158 79.4132 13.6794 79.5187 13.6512C79.6301 13.6235 79.9453 13.4857 79.797 13.3442C79.656 13.2045 79.7107 13.1892 79.8508 13.2179C79.9808 13.248 80.344 13.1734 80.5077 13.0328C80.6684 12.8884 81.1353 12.8721 81.2428 12.6861C81.3416 12.511 81.3987 12.4737 81.238 12.4116C81.0691 12.3599 81.1176 12.3523 81.2831 12.3221C81.4429 12.2906 81.6699 12.1514 81.7855 12.0184C81.9146 11.8936 81.4899 11.8128 81.6396 11.7578C81.7841 11.6961 81.9141 11.7009 82.0158 11.7774C82.1065 11.8539 82.0033 11.9319 82.1473 11.9319C82.2965 11.9266 82.6982 12.0184 82.7111 11.9108C82.7217 11.798 82.9203 11.8903 83.106 11.7822C83.2922 11.675 83.6828 11.4919 83.594 11.2776C83.5014 11.0605 83.0935 10.7166 83.3051 10.6879C83.5206 10.6654 83.7188 10.6143 83.6276 10.4067C83.5326 10.2006 83.5326 10.0576 83.3766 9.96289C83.2226 9.86198 82.9606 9.75102 82.7111 9.78546C82.4765 9.81607 82.0729 9.84094 82.2802 10.1336C82.5038 10.4416 82.1319 10.1987 82.0561 10.741C81.9539 11.0394 81.7841 10.8788 81.4578 11.2881C81.2764 11.401 81.3253 11.1628 81.261 11.0237C81.261 11.0237 80.9851 10.6827 81.1795 10.5602C81.3695 10.4431 81.3695 10.3335 81.2274 10.1891C81.084 10.0432 80.7438 9.68311 80.6531 10.0834C80.5681 10.4799 80.3215 10.6114 80.3748 10.401C80.4271 10.1877 80.4846 9.76776 80.2687 9.65011C80.0528 9.53246 79.882 9.68981 79.8565 9.54776C79.833 9.40381 79.774 9.38707 79.9266 9.29046C80.083 9.18716 80.0134 9.13407 79.8824 8.92364C79.7495 8.7199 79.8589 8.58408 79.6286 8.41908C79.3964 8.24978 79.1401 8.06374 79.322 7.8863C79.511 7.717 79.584 7.62326 79.4952 7.48792C79.4026 7.354 79.5288 7.25596 79.6684 7.35974C79.8148 7.46209 80.1929 7.47596 80.2562 7.26935C80.3153 7.05031 80.9491 6.88771 80.7802 6.75714C80.6132 6.62993 80.2227 6.51323 79.9727 6.5228C79.7217 6.53523 79.5106 6.36258 79.2879 6.47736C79.0619 6.59693 78.8849 6.48549 78.9165 6.75714C78.9549 7.03788 78.7476 7.2354 78.9122 7.47357C79.0701 7.71509 78.9434 7.95087 78.739 8.06756C78.5379 8.19 78.2827 8.48795 78.4751 8.78734C78.585 9.01977 78.2462 9.05947 78.6483 9.36794C78.6483 9.36794 78.7476 9.48416 78.9818 9.49229C79.2097 9.50137 79.072 9.61663 79.1593 9.77111C79.2481 9.93037 78.9602 9.93324 79.072 10.0179C79.1838 10.0978 79.036 10.3249 78.9007 10.3656C78.7683 10.4015 78.4314 10.4015 78.5163 10.6152C78.6181 10.8261 78.5571 11.0394 78.4463 10.9328C78.3388 10.8128 78.1805 10.8261 78.2457 10.6468C78.3191 10.4603 78.5264 10.2814 78.4045 10.2298C78.2817 10.1781 78.0048 10.2527 78.0667 10.1504C78.1272 10.0432 78.1819 10.1002 78.3258 10.0404C78.4746 9.98154 78.5058 9.93085 78.4549 9.77589C78.405 9.62763 78.132 9.46168 78.0096 9.32442C77.8844 9.1819 77.7424 9.18716 77.5926 9.38133C77.4386 9.56785 77.2697 9.59989 77.5691 9.79837C77.8719 9.9978 77.7496 10.0437 77.6138 10.0915C77.4746 10.1408 77.418 10.1881 77.4597 10.3225C77.4957 10.4459 77.3844 10.4512 77.2524 10.4129C77.1114 10.3718 76.5001 10.4072 76.2976 10.3412C76.0922 10.2723 75.9362 10.1288 75.6575 10.0547C75.3887 9.97293 75.1099 9.94998 75.0485 9.83902C74.9876 9.72424 74.7342 9.76202 74.4276 9.89307C74.121 10.0227 73.882 9.91937 74.1023 10.1929C74.3216 10.4718 74.1546 10.84 74.0068 10.6296C73.8609 10.4129 73.9118 10.3158 73.6368 10.1255C73.3729 9.93563 73.2587 9.81846 73.0116 9.89307C72.7659 9.96289 72.7443 9.89259 72.3605 9.93037C71.9785 9.9715 71.1748 9.63098 71.4305 9.52194C71.693 9.42007 71.8984 9.49277 71.6695 9.24264C71.4305 8.9906 71.395 8.96286 71.1326 9.01021C70.873 9.05277 70.587 8.96908 70.4104 8.82512C70.2324 8.68164 69.7928 8.62138 69.6043 8.48221C69.4123 8.3416 69.2012 8.23447 68.9075 8.16417C68.9075 8.16417 68.6561 8.05752 68.6143 8.31913C68.6143 8.31913 68.5942 8.58838 68.409 8.43008C68.2382 8.26987 68.2991 7.82461 68.0409 7.88678C67.7938 7.95422 67.8125 8.58838 67.6201 8.26987C67.599 8.22921 67.5717 8.17995 67.5448 8.12782C65.8313 10.0035 64.3514 12.1021 63.1614 14.3906C63.1658 14.5537 63.2277 14.7019 63.5252 14.4638C63.5252 14.4638 63.696 14.2289 63.7958 14.3801C63.9076 14.5274 64.195 15.3366 64.5391 15.382C64.8735 15.426 64.4656 15.8469 64.3682 15.7407C64.2751 15.6412 64.1269 15.3323 64.1168 15.515C64.1082 15.6981 64.2228 16.2606 64.3582 16.1797C64.5021 16.1003 64.445 16.0903 64.5184 15.9731C64.5885 15.8497 64.7003 15.5987 64.8097 15.7273C64.922 15.854 64.7699 15.7407 64.8774 16.0128C64.9916 16.2845 65.123 16.274 65.1926 16.0908C65.1926 16.0908 65.3442 16.129 65.1019 16.2993C64.8654 16.4691 64.8946 16.5724 65.2391 16.7742C65.5837 16.9837 65.4848 16.8823 65.6475 16.8283C65.7991 16.7766 65.5885 16.9478 65.5885 17.086C65.5985 17.2214 65.7295 17.7355 65.8716 17.6332C66.0016 17.5442 66.0448 17.6896 65.9263 17.802C65.8097 17.9225 65.8629 18.3386 66.1734 18.384C66.4968 18.429 66.2708 18.6581 66.0659 18.527C65.8548 18.3883 65.5477 18.3965 65.7555 18.5973C65.956 18.7905 66.0659 18.902 66.2962 19.0067C66.5136 19.1181 67.1412 19.6667 66.991 19.7002C66.8543 19.7327 66.7569 19.8527 66.9042 20.111C67.0525 20.3664 66.9848 20.5333 66.9383 20.617C66.896 20.695 66.5299 22.1632 66.6734 22.5382C66.8178 22.9069 66.457 23.6051 66.8764 24.0681C66.8764 24.0681 66.5621 24.2895 66.7458 24.5291C66.7458 24.5291 66.7434 24.7793 66.9325 24.676C67.1096 24.577 67.1839 24.6927 67.1772 24.8826C67.1844 25.0638 67.3528 25.2221 67.4882 25.3943C67.6292 25.5736 67.551 25.7492 67.9037 25.8309C68.2545 25.9156 68.4003 26.3288 68.3135 26.4379C68.2185 26.5388 68.4219 26.908 68.6494 26.8138C68.8691 26.7195 68.8994 27.1519 68.8994 27.1519C68.8994 27.1519 69.1609 27.8568 69.3552 28.0457C69.5496 28.2371 69.6892 28.5656 69.5184 28.6924C69.3447 28.8167 69.8269 29.095 69.8269 29.095C69.8269 29.095 70.241 29.3174 70.2223 29.7216C70.194 30.1295 70.4109 30.1907 70.6042 30.3285C70.8058 30.4676 70.9046 30.7737 71.004 30.6441C71.1124 30.5193 70.8197 30.2998 70.74 30.1324C70.6637 29.9616 70.6973 29.8588 70.5073 29.4772C70.3235 29.097 70.3749 29.084 70.087 28.7588C69.7996 28.4317 70.1019 28.424 69.7175 28.0046C69.3264 27.5876 69.4843 27.1385 69.6278 27.1844C69.7722 27.2227 70.0448 27.314 70.1014 27.6282C70.1599 27.9381 70.4939 28.536 70.8725 28.8856C70.8725 28.8856 70.9948 29.327 71.4046 29.7349C71.8125 30.1486 72.1781 30.7111 72.2309 30.8746C72.2775 31.0334 72.6709 31.4959 72.396 31.8861C72.2227 32.2027 72.6143 32.3017 72.966 32.5825C73.3278 32.8647 73.86 33.2152 74.1834 33.3711C74.513 33.5285 75.2966 34.1005 75.6728 33.9608C76.0384 33.8245 76.4669 34.0421 76.4669 34.0421C76.4669 34.0421 76.8748 34.7734 77.4578 34.8671C78.0437 34.9637 77.8873 35.2124 78.5826 35.4262C79.275 35.6448 79.1449 36.0656 79.1229 36.2101C79.1109 36.3468 79.0706 36.5343 79.4045 36.6725C79.7361 36.8127 79.5816 37.1317 80.0806 37.2225C80.5773 37.3167 80.7989 37.8734 80.941 37.6984C81.082 37.521 80.856 37.4306 81.0206 37.3526C81.0206 37.3526 81.3987 36.971 81.6084 37.3445C81.809 37.7151 81.63 37.6252 81.9184 37.9586C82.1574 38.6554 81.952 39.2274 81.8282 39.3149C81.703 39.4077 81.4093 39.577 81.2514 39.8716C81.1012 40.1552 80.8695 39.9787 80.6641 40.3881C80.4525 40.7965 80.2668 41.4747 80.6128 41.2609C80.9683 41.0467 80.6363 41.5393 80.5777 41.6139C80.525 41.6846 79.9894 41.8229 80.1612 42.1428C80.3268 42.4585 80.0283 42.4274 80.4511 42.7712C80.87 43.1218 80.7639 43.7689 81.0211 44.1491C81.2831 44.5255 81.5288 45.1912 81.5475 45.602C81.5753 46.009 81.8541 46.0803 82.0317 46.2348C82.2116 46.384 83.4285 46.9373 83.4621 47.6557C83.4961 48.3711 83.1574 49.3516 83.1722 49.6046C83.1847 49.8647 82.9189 50.5702 82.9405 50.8169C82.964 51.068 82.5595 51.4454 82.5911 51.9408C82.6214 52.433 82.2788 52.9954 82.1751 53.6272C82.0763 54.2575 81.3632 54.4684 81.4923 55.0089C81.5849 55.4015 81.3191 55.8444 81.2154 56.1887C82.2452 56.4819 83.2908 56.7311 84.3709 56.9118C84.345 56.7263 84.3685 56.5799 84.5119 56.6258C84.7629 56.7019 85.0407 56.9028 85.2135 56.7311C85.3809 56.5608 85.2792 55.8927 85.5033 55.9152C85.7235 55.9462 86.6506 56.0108 86.8267 55.8372C87.0018 55.6602 87.5853 55.4646 87.4265 55.0122C87.2744 54.5674 87.4433 54.3101 87.6712 54.3374C87.9102 54.3656 88.5632 54.62 88.8607 54.159C89.1635 53.6951 89.4615 53.6444 89.4884 53.3641C89.5244 53.092 89.8823 52.8151 89.9389 52.8854C89.996 52.9643 89.7192 53.2369 89.7609 53.3177C89.7993 53.3952 90.1035 53.0738 90.2115 52.8538C90.319 52.6348 90.5642 52.4268 90.6741 52.3584C90.7815 52.2881 90.949 51.8198 90.9279 51.4186C90.9082 51.0298 91.2038 50.9265 91.3861 50.8404C91.5723 50.749 92.1323 50.6405 92.5373 50.3162C92.8252 50.1048 92.8991 50.2607 93.0656 50.2899C93.235 50.3033 93.7508 50.2091 93.9173 49.8676C94.0824 49.5237 94.5181 49.2478 94.5531 48.9063C94.5833 48.5768 94.8933 48.089 94.923 47.8675C94.9504 47.6428 95.0344 46.8288 95.3938 46.6518C95.7556 46.4701 95.5824 46.3448 95.9178 46.0483C96.2556 45.757 96.9029 45.2548 96.7018 44.4279C96.4787 43.8306 96.6159 44.228 96.1534 43.9659ZM118.3 32.4954C117.923 32.726 118.292 32.8441 118.147 33.0875C117.997 33.3357 117.775 33.1411 117.422 32.8627C117.069 32.5949 116.822 33.0497 116.649 32.5662C116.466 32.088 116.095 31.879 115.708 31.9368C115.312 32 115.351 31.7092 115.04 31.5624C114.723 31.4175 114.676 31.4471 115.015 31.1405C115.357 30.8239 115.084 30.7718 115.054 30.636C115.027 30.5073 115.158 30.4968 115.09 30.2137C115.027 29.9325 114.408 30.2558 114.216 30.1247C114.019 29.9894 113.7 29.8942 113.326 30.0023C112.95 30.1123 113.159 30.0267 112.052 29.8942C110.945 29.7512 110.584 30.5647 110.368 30.3868C110.157 30.2108 109.96 30.229 109.665 30.24C109.366 30.2524 109.448 30.064 109.244 29.9621C109.037 29.865 108.91 30.7943 108.392 30.757C107.862 30.712 107.503 31.5839 107.483 31.9665C107.479 32.3453 106.885 32.6762 106.468 32.7255C106.042 32.7752 106.231 32.9627 105.855 33.2033C105.474 33.4429 104.961 34.3142 104.739 34.5969C104.517 34.8795 104.407 35.2387 104.557 35.4826C104.705 35.7342 104.705 36.4654 104.538 36.6553C104.38 36.8457 104.466 37.0752 104.285 37.322C104.105 37.5793 104.158 37.9476 104.113 38.2976C104.076 38.6324 104.381 38.4741 104.558 38.9127C104.746 39.3512 105.136 39.1222 105.246 39.7984C105.359 40.4833 105.475 40.4369 105.709 40.6047C105.944 40.7784 106.054 40.6258 106.385 41.1901C106.726 41.753 107.062 41.7344 107.421 41.677C107.774 41.6201 108.177 41.3896 108.831 41.7023C109.471 41.9998 109.099 41.6636 109.666 41.6493C110.221 41.6373 110.064 41.5292 110.57 41.4216C111.468 41.392 111.834 41.7344 111.855 41.9955C111.878 42.2614 111.972 42.4164 112.309 42.3293C112.654 42.2485 113.002 42.4039 113.245 42.633C113.477 42.8722 113.517 43.1586 113.257 43.349C112.997 43.5388 113.221 44.0563 112.908 44.2844C112.627 44.4901 113.111 44.7536 113.327 45.1458C115.998 41.456 117.846 37.1039 118.57 32.3214C118.489 32.3735 118.4 32.4342 118.3 32.4954ZM104.955 12.1519C105.146 11.9807 104.492 11.8773 103.993 11.774C103.501 11.6669 103.393 11.8075 102.955 11.632C102.518 11.4536 103.069 11.4225 103.36 11.3345C103.646 11.2427 103.828 11.2958 104.079 11.1633C104.329 11.0304 104.292 11.2135 104.428 11.4374C104.558 11.6621 104.733 11.7592 105.022 11.8372C105.315 11.9194 105.341 11.7243 105.415 11.3986C105.489 11.0662 105.219 11.2996 105.187 11.0619C105.148 10.8223 104.757 10.5789 104.451 10.3584C104.151 10.1384 104.263 10.1202 104.136 9.94806C104.002 9.77637 104.428 9.7295 104.619 9.62811C104.793 9.52242 105.022 9.77207 105.225 9.9562C105.43 10.1389 105.839 9.9122 106.03 9.82611C106.222 9.73476 105.931 9.55207 105.655 9.47459C105.371 9.39664 105.564 9.32538 105.65 9.16899C105.73 9.01929 105.922 9.12403 106.037 9.24885C106.147 9.37703 106.208 9.3469 106.515 9.34068C106.813 9.34068 106.252 9.04894 106.071 8.94707C105.894 8.8366 105.981 8.72086 106.018 8.5683C106.048 8.42625 106.229 8.69695 106.533 8.63573C106.848 8.57308 106.415 8.30191 106.244 8.1943C106.085 8.09339 106.292 8.13452 106.468 8.0843C106.641 8.02404 106.13 7.94991 105.876 7.83083C105.629 7.71317 105.904 7.61513 106.153 7.49509C106.396 7.36166 106.66 7.54913 107.087 7.59744C107.512 7.64478 107.159 7.34109 106.998 7.14644C106.831 6.95562 106.685 7.07996 106.419 6.92979C106.161 6.78058 106.423 6.87097 106.776 6.92071C107.123 6.95801 106.689 6.78105 106.468 6.65001C106.239 6.52041 106.222 6.62323 106.002 6.64666C105.778 6.66579 106.101 6.42762 106.229 6.16123C106.342 5.89198 106.444 5.93215 106.685 5.91637C106.924 5.89867 106.782 5.75376 107.01 5.72267C107.257 5.68872 106.885 5.57824 106.792 5.40607C106.702 5.23868 106.885 5.2669 107.159 5.28985C107.42 5.30611 107.503 5.24824 107.636 5.08707C107.754 4.9259 107.247 4.94886 106.914 4.96464C106.592 4.98903 106.645 5.07225 106.647 4.9259C106.664 4.77668 106.849 4.73555 107.069 4.82642C107.241 4.89625 107.511 4.92925 107.799 4.9216C107.309 4.52082 106.792 4.13821 106.275 3.77617C105.93 3.94548 105.504 4.22812 105.305 4.32569C105.009 4.47251 105.52 4.01913 105.943 3.61309C105.956 3.59778 105.967 3.58965 105.973 3.57722C105.764 3.43183 105.555 3.29505 105.344 3.1554C105.322 3.1554 105.305 3.1554 105.289 3.1554C104.898 3.20561 104.492 3.48013 104.12 3.44426C103.748 3.41939 104.64 3.3247 104.733 3.15922C104.827 2.98992 103.249 2.94975 102.803 2.93444C102.362 2.91914 102.083 3.05018 101.971 2.90479C101.86 2.76084 104.046 2.81392 104.502 2.8847C104.625 2.90479 104.783 2.90957 104.961 2.90957C104.035 2.34475 103.07 1.82298 102.078 1.35572C101.561 1.2615 101.07 1.19024 100.876 1.1649C100.468 1.11946 100.821 1.28446 100.606 1.28733C100.39 1.29211 100.164 1.18163 99.9057 1.24811C99.6485 1.32272 99.9724 1.33276 100.101 1.51115C100.23 1.68859 99.9359 1.46811 99.7099 1.62354C99.4854 1.78424 98.9067 1.43128 98.5454 1.1845C98.1864 0.941071 97.994 1.21368 97.7215 1.28063C97.4465 1.3562 97.8179 1.42028 97.5991 1.51641C97.3851 1.60967 98.2853 2.05302 98.0569 2.02623C97.8309 2.00184 97.649 2.15584 97.7085 2.26536C97.768 2.37871 97.9369 2.63792 97.5924 2.43371C97.0641 1.96932 95.8741 1.5322 95.5747 1.57572C95.2695 1.61685 95.889 2.04393 96.02 2.20462C96.1495 2.36867 95.9062 2.26249 95.6759 2.13241C95.447 1.99276 94.9442 1.9698 94.7033 2.02623C94.4518 2.07789 94.5646 2.2051 94.3827 2.18645C94.2014 2.16349 94.4307 2.09702 94.5051 1.92676C94.579 1.75363 94.2666 1.63215 94.0046 1.59437C93.7422 1.56137 92.5507 1.60346 92.5018 1.68428C92.4384 1.76654 92.5656 1.74263 92.5435 1.82967C92.5334 1.92532 92.3429 1.76654 92.031 1.78519C91.7263 1.79524 92.0834 1.98558 91.9975 2.03436C91.9001 2.08362 91.8156 2.06784 91.9068 2.27397C92.0037 2.48584 91.9173 2.46049 91.7163 2.48584C91.5095 2.51932 91.2067 2.31654 91.0195 2.28019C90.8329 2.23284 90.7024 2.31654 90.5397 2.44184C90.3895 2.56619 90.2144 2.63314 89.9418 2.73118C89.6674 2.82779 89.6961 2.89618 89.8358 3.04588C89.9653 3.19605 90.4485 3.08509 90.6299 3.10327C90.8051 3.12479 90.818 3.21948 90.6299 3.31179C90.4413 3.40457 90.5104 3.50691 90.5104 3.50691C90.2878 3.90961 89.7091 3.77952 89.7091 3.77952C88.8972 3.6437 88.7638 3.90913 88.0205 4.04495C87.2706 4.17695 87.6703 4.39934 87.9505 4.62747C88.2187 4.85273 88.4874 4.81494 88.891 4.96464C89.2964 5.11577 89.3507 5.03255 89.6453 4.9546C89.9409 4.86899 89.8459 5.03733 89.7269 5.21094C89.6093 5.37833 88.9663 5.12677 88.7043 5.09855C88.4342 5.06172 88.3579 5.03925 88.0772 5.19755C87.7941 5.36111 88.641 5.50076 88.9557 5.5395C89.2724 5.57441 88.8713 5.67581 88.6645 5.83315C88.4591 5.98954 89.0594 6.02541 89.4697 6.12489C89.8689 6.22484 89.747 6.13876 90.545 6.1311C91.3526 6.12584 92.2863 6.59932 92.3813 6.85662C92.4783 7.11536 92.4572 7.08188 92.7475 7.3827C93.0368 7.67013 93.0617 7.662 92.9643 7.90161C92.8612 8.14074 93.1376 7.96617 93.3093 8.35356C93.4931 8.73712 93.6222 9.0982 93.3477 9.36172C93.068 9.62429 93.2796 9.6812 93.4293 9.95572C93.5627 10.2312 93.759 9.91267 94.0315 9.7185C94.3065 9.5229 94.4974 10.1795 94.7527 10.4206C95.0085 10.6645 94.6932 10.6525 94.3765 10.5205C94.0531 10.3828 94.0574 10.3278 93.6726 10.3785C93.2825 10.4378 94.0152 10.6674 94.3933 10.9577C94.7594 11.2566 94.4715 10.9352 94.8612 11.0002C95.2431 11.0672 95.0142 11.17 94.7249 11.3604C94.4312 11.5555 94.5243 11.8783 94.3405 11.8362C94.1524 11.7937 93.9581 11.9099 93.7067 12.1791C93.4571 12.4479 93.519 12.6445 93.8233 12.8559C94.1299 13.0629 93.9293 12.9472 93.6476 13.1136C93.3583 13.2772 93.7067 13.6373 93.8909 13.7679C94.0785 13.9061 93.9566 14.0343 94.0157 14.3997C94.0728 14.7617 94.1591 14.3102 94.4067 14.2423C94.6515 14.1658 94.3938 14.4451 94.1951 14.6522C93.9946 14.8664 94.9451 16.1066 95.1884 16.4055C95.4245 16.6972 95.5756 16.5772 95.828 16.5977C96.0891 16.624 96.0531 16.7465 96.2469 16.943C96.4393 17.142 96.4945 16.9794 96.8261 16.9956C97.1615 17.0133 97.4264 16.2615 97.3856 15.9215C97.3333 15.5872 97.447 15.5996 97.7071 15.5652C97.9648 15.5322 98.0324 15.1491 97.9456 14.9296C97.8568 14.7148 98.2757 14.7388 98.0732 14.5608C97.8635 14.3839 98.2162 14.5475 98.4552 14.3255C98.6879 14.0955 98.9772 14.2165 99.0833 14.0936C99.1797 13.9707 99.303 13.8033 99.3385 14.0137C99.3659 14.2165 100.501 13.8406 100.804 13.5445C101.113 13.2346 101.259 12.9343 101.67 12.9745C102.077 13.0118 102.28 12.8143 102.863 12.8611C103.432 12.897 103.854 12.5947 104.21 12.5828C104.557 12.5632 104.758 12.3092 104.955 12.1519ZM111.968 24.1728C111.771 24.2642 111.668 24.146 111.452 24.1102C111.232 24.0724 111.361 24.1284 111.301 24.2895C111.241 24.4579 111.148 24.4708 110.865 24.3837C110.585 24.3044 110.629 24.3316 110.426 24.333C110.229 24.3421 110.17 24.533 110.211 24.7281C110.25 24.9256 110.451 24.8749 110.65 24.9184C110.846 24.96 110.928 24.9993 111 25.1776C111.062 25.3594 111.198 25.4283 111.258 25.6832C111.314 25.939 111.229 26.6483 110.983 26.8372C110.736 27.0189 110.491 26.8515 110.246 26.7712C110.001 26.6961 109.806 26.6464 109.449 26.6775C109.097 26.7128 109.099 26.566 108.812 26.5048C108.524 26.4493 108.596 26.6038 108.368 26.8587C108.135 27.1079 108.431 27.3939 108.342 27.6694C108.252 27.942 108.223 28.117 108.029 28.3294C107.825 28.5556 108.252 28.688 108.122 28.985C107.993 29.2796 108.108 29.3055 108.316 29.3456C108.524 29.3815 108.701 29.3127 108.87 29.4212C109.038 29.5365 108.994 29.6929 109.119 29.8435C109.253 29.9879 109.326 29.8282 109.438 29.7096C109.554 29.5905 109.918 29.6025 110.21 29.6752C110.491 29.745 110.48 29.7192 110.602 29.6001C110.723 29.4753 110.928 29.315 111.116 29.183C111.304 29.041 111.443 28.985 111.329 28.744C111.221 28.5063 111.631 28.0567 111.853 28.0104C112.061 27.9716 112.626 27.3743 112.798 27.171C112.973 26.9702 113.557 27.2456 113.856 27.3102C114.154 27.3709 114.53 27.0228 114.761 26.9061C114.993 26.7932 115.275 27.0687 115.404 27.3724C115.524 27.6813 115.836 28.2327 116.296 28.4389C116.753 28.6378 116.953 28.9453 117.094 29.0644C117.227 29.1768 117.2 29.2103 117.168 29.4303C117.138 29.6541 117.167 29.6307 117.056 29.7407C116.944 29.8569 116.953 29.8143 116.827 29.8143C116.711 29.8206 116.728 29.7804 116.62 29.8339C116.513 29.8741 116.375 29.8206 116.206 29.7694C116.033 29.7134 115.934 29.6895 115.809 29.8119C115.691 29.9325 115.93 29.9683 116.018 30.0343C116.12 30.1018 116.173 30.1362 116.287 30.1721C116.394 30.196 116.403 30.2562 116.517 30.3533C116.627 30.4461 116.711 30.4036 116.799 30.2778C116.883 30.1486 116.817 30.0774 116.853 29.9659C116.883 29.8574 116.957 29.9659 117.024 29.9899C117.09 30.0138 117.094 29.9597 117.168 29.8703C117.242 29.7809 117.299 29.7201 117.4 29.7024C117.497 29.6771 117.533 29.6336 117.621 29.5331C117.698 29.4327 117.565 29.4193 117.445 29.2605C117.328 29.1003 117.4 29.1261 117.489 28.9583C117.572 28.7937 117.621 28.9621 117.742 29.0061C117.869 29.0453 117.915 29.1529 118.014 29.239C118.114 29.3251 118.104 29.239 118.072 29.1003C118.038 28.9583 117.465 28.5747 117.323 28.4924C117.172 28.4102 117.299 28.4016 117.346 28.326C117.4 28.2605 116.998 28.1663 116.853 28.0611C116.7 27.9554 116.624 27.7923 116.565 27.5952C116.513 27.3958 116.451 27.3494 116.182 27.0931C115.923 26.8425 116.138 26.8166 116.161 26.6292C116.18 26.4455 116.334 26.5474 116.455 26.4651C116.573 26.3795 116.569 26.6177 116.607 26.8166C116.653 27.018 116.692 26.9108 116.808 26.7817C116.923 26.6454 116.923 26.7817 117.055 26.9831C117.186 27.1734 117.109 27.2662 117.279 27.4575C117.445 27.6464 117.582 27.7048 117.809 27.8774C118.046 28.0563 118.407 28.326 118.538 28.4303C118.673 28.5331 118.543 28.5111 118.479 28.8631C118.42 29.2098 118.625 29.1582 118.663 29.3543C118.682 29.4886 118.769 29.6269 118.853 29.7799C119.02 27.2361 118.844 24.7443 118.38 22.3425C118.33 22.3469 118.257 22.3607 118.164 22.4095C117.746 22.607 117.736 22.9294 117.4 22.8179C117.061 22.6988 117.208 22.278 116.787 22.3904C116.366 22.5071 116.394 22.6577 116.242 22.4444C116.094 22.2287 116.074 22.08 115.825 22.0551C115.825 22.0551 115.583 21.8719 115.766 21.8098C115.954 21.7452 115.96 21.8609 116.132 21.7419C116.299 21.6166 116.174 21.1297 116.497 21.2861C116.817 21.4425 116.561 21.8748 117.061 21.8638C117.551 21.8576 117.774 21.8399 117.975 21.5793C118.038 21.5089 118.099 21.419 118.161 21.3277C117.814 19.8059 117.349 18.3233 116.768 16.8952C116.358 17.1884 115.961 17.3672 115.633 17.515C115.298 17.6662 115.348 17.6901 114.925 17.8512C114.515 18.0076 114.689 18 114.469 18.3443C114.245 18.6944 114.463 18.7155 114.605 18.8202C114.748 18.9221 114.564 18.9474 114.427 19.0402C114.288 19.1344 114.538 19.1856 114.526 19.3071C114.515 19.43 114.427 19.3401 114.389 19.4701C114.353 19.594 114.538 19.4907 114.626 19.5844C114.706 19.6734 114.59 19.6552 114.429 19.8188C114.277 19.969 114.689 20.0192 114.94 20.2574C115.187 20.4826 115.27 20.2999 115.456 20.2162C115.644 20.133 115.789 19.947 115.948 19.8872C116.108 19.8255 116.138 19.8604 116.272 19.6347C116.417 19.4218 116.381 19.7246 116.526 19.9431C116.666 20.1603 116.516 20.1258 116.366 20.3085C116.214 20.4826 116.542 20.6926 116.506 20.8786C116.476 21.0613 116.417 20.8006 116.286 20.6323C116.161 20.4654 116.012 20.5897 115.661 20.7346C115.306 20.8781 115.316 20.7504 115.202 21.266C115.085 21.7902 115.5 21.9049 115.403 22.013C115.301 22.1221 115.378 22.1608 115.259 22.4444C115.14 22.7204 115.145 22.5735 114.971 22.5238C114.802 22.4774 114.836 22.5013 114.675 22.564C114.514 22.6252 114.597 22.6013 114.323 22.5716C114.046 22.5358 113.917 22.8007 113.64 23.0824C113.367 23.3631 113.612 23.2144 113.412 23.3469C113.219 23.4808 113.145 23.509 112.919 23.5721C112.695 23.6348 112.725 23.5774 112.55 23.8299C112.375 24.0815 111.968 24.1728 111.968 24.1728ZM110.25 20.5668C110.313 20.6156 110.281 20.6337 110.167 20.793C110.055 20.9503 110.157 20.9188 110.229 20.9862C110.289 21.0551 110.353 20.8843 110.465 20.9781C110.584 21.0733 110.505 21.1541 110.402 21.3401C110.3 21.5252 110.442 21.5147 110.714 21.5419C110.983 21.5654 110.938 21.9064 110.938 21.9064C110.908 22.0996 110.771 22.123 110.568 22.2431C110.361 22.366 110.548 22.3478 110.514 22.5066C110.471 22.6668 110.309 22.6917 110.186 22.8897C110.063 23.0901 110.353 23.069 110.54 23.1412C110.731 23.2077 110.754 23.1934 110.799 23.3732C110.845 23.5621 110.735 23.5229 110.834 23.6998C110.937 23.8787 111.147 23.6606 111.379 23.5965C111.61 23.5348 111.614 23.5621 111.868 23.5874C112.119 23.6176 112.527 23.3297 112.586 23.0317C112.637 22.7371 112.388 22.7371 112.24 22.5468C112.092 22.3612 112.269 22.2727 112.072 21.87C111.869 21.4707 111.788 21.7232 111.705 21.5137C111.631 21.31 111.411 20.99 111.356 20.7743C111.303 20.5649 111.559 20.3927 111.609 20.167C111.651 19.947 111.108 20.1866 111.006 19.947C110.901 19.7088 111.098 19.8111 111.253 19.6064C111.411 19.3908 111.123 19.5514 110.73 19.5318C110.326 19.5122 110.555 19.6366 110.352 19.8508C110.14 20.0723 110.316 20.1053 110.189 20.2698C110.073 20.4243 110.19 20.5228 110.25 20.5668ZM114.446 28.5125C114.231 28.5948 114.461 28.6938 114.434 28.9224C114.408 29.1529 114.605 29.2428 114.605 29.2428C114.81 29.2543 114.803 29.1433 114.877 29.0501C114.951 28.9563 114.995 28.8377 115.015 28.635C115.04 28.4312 114.909 28.4073 114.865 28.1849C114.81 27.9597 114.951 28.0333 115.059 27.7631C115.17 27.4938 115.033 27.4972 114.829 27.6038C114.628 27.7153 114.689 27.7507 114.613 27.9558C114.543 28.1534 114.706 28.1667 114.706 28.3227C114.702 28.4733 114.662 28.4269 114.446 28.5125ZM108.809 22.8404C108.809 22.8404 109.05 22.7213 109.278 22.6998C109.508 22.6668 109.798 22.6491 109.834 22.4349C109.869 22.2206 109.938 21.9298 110.055 21.7854C110.182 21.6376 110.25 21.5639 110.134 21.4071C110.026 21.2387 110.102 21.0981 109.847 21.1641C109.6 21.2163 109.652 21.0245 109.357 21.1995C109.062 21.3755 109.146 21.1479 108.952 21.5085C108.766 21.8705 108.857 21.7859 108.677 22.0398C108.502 22.2942 108.172 22.3363 108.316 22.5726C108.464 22.8136 108.447 22.9169 108.809 22.8404ZM89.5436 21.7691C89.4922 21.6792 89.2724 21.6099 89.1582 21.5309C89.044 21.4434 88.8224 21.3593 88.6357 21.3377C88.4481 21.3186 88.6511 21.4367 88.6511 21.4367C88.6511 21.4367 88.7734 21.5199 88.8771 21.6046C88.9855 21.6792 89.3612 21.8801 89.5436 21.9155C89.7264 21.9456 89.5891 21.8461 89.5436 21.7691ZM78.4204 7.3124C78.2702 7.22105 78.2908 7.19618 78.143 7.09383C77.9952 6.98575 77.9209 6.89966 78.1641 6.79971C78.4055 6.7074 78.5576 6.76575 78.4391 6.62036C78.3225 6.47832 78.333 6.39701 78.1507 6.44149C77.9717 6.48597 78.0672 6.49458 77.9434 6.48454C77.8172 6.47784 77.7663 6.58401 77.5994 6.44675C77.454 6.31093 77.418 6.1751 77.2736 6.2631C77.1253 6.34728 77.0207 6.27362 76.9022 6.38171C76.7884 6.49458 76.6037 6.54193 76.8532 6.71601C77.1008 6.8944 77.2251 6.9561 77.132 7.03788C77.0336 7.13066 77.0754 7.30044 76.822 7.0704C76.5687 6.84275 76.5236 6.6591 76.4031 6.77914C76.2918 6.8944 76.0461 6.9671 76.2918 7.14166C76.5471 7.31766 76.5619 7.18709 76.7755 7.4267C76.9828 7.66057 77.0164 7.596 77.1728 7.69452C77.3307 7.79496 77.3614 7.93174 77.4185 8.03934C77.4837 8.14313 77.5571 8.13165 77.6397 8.12734C77.6397 8.12734 77.7711 8.02882 77.8786 8.003C77.9871 7.981 77.9871 8.113 78.1387 8.03122C78.2927 7.94896 78.4055 8.04174 78.4079 7.85426C78.4079 7.66678 78.3949 7.66057 78.4439 7.53622C78.4981 7.41331 78.5739 7.40087 78.4204 7.3124ZM68.9738 7.28657C68.9738 7.28657 69.2698 7.18088 69.4622 7.20144C69.6628 7.2244 69.7813 7.13162 69.8571 6.87431C69.9248 6.62036 69.9944 6.5974 70.1849 6.48501C70.3686 6.37406 70.4133 6.41471 70.6542 6.33484C70.8883 6.25402 71.0279 6.1445 71.2506 6.0828C71.479 6.01537 71.7981 6.22389 71.7084 6.02445C71.6244 5.83028 71.6138 5.7968 71.4277 5.61076C71.2439 5.42185 71.1397 5.22768 70.8586 5.31377C70.5735 5.39937 70.5971 5.61172 70.407 5.43811C70.3922 5.42807 70.384 5.42185 70.3792 5.41372C69.7756 5.92259 69.1916 6.45106 68.6292 7.00249C68.6508 7.01779 68.67 7.0221 68.6959 7.03883C68.7967 7.09527 68.6906 7.27748 68.9738 7.28657ZM73.5975 3.31418C73.7817 3.28213 73.8993 3.33857 74.0601 3.26157C74.2146 3.18218 73.9799 3.05831 74.1344 3.00331C74.2525 2.96505 74.0879 2.93922 73.872 2.89523C73.644 3.03248 73.4132 3.17214 73.1959 3.31705C73.2007 3.32087 73.2007 3.32087 73.2083 3.3247C73.312 3.39405 73.4099 3.34574 73.5975 3.31418ZM71.6301 4.86755C71.8562 4.95603 71.7674 4.85129 71.8835 4.91681C72.0015 4.98759 71.9823 4.95603 72.1604 4.97133C72.3298 4.9876 72.289 4.86755 72.3921 4.71355C72.4939 4.55334 72.4876 4.74225 72.4833 4.80921C72.4747 4.87042 72.4809 4.9082 72.5428 4.9632C72.6018 5.0139 72.7007 5.02203 72.9967 4.9632C73.2875 4.90629 73.121 4.97564 73.2798 5.02729C73.4233 5.08229 73.2587 5.07703 73.1234 5.1392C72.9967 5.20759 72.9756 5.17746 72.7683 5.1349C72.5682 5.08803 72.4876 5.14638 72.2655 5.13346C72.0438 5.12485 72.2971 5.31903 72.2971 5.31903C72.4473 5.45437 72.68 5.39268 72.8696 5.45437C73.0577 5.52181 73.1229 5.48737 73.3029 5.46585C73.4823 5.44911 73.3854 5.40463 73.5879 5.31329C73.7842 5.22672 73.812 5.31903 73.989 5.26068C74.1647 5.19564 74.1205 5.22194 74.3024 5.19085C74.477 5.15498 74.5433 5.25733 74.7155 5.27742C74.8959 5.30324 74.9463 5.33194 75.1224 5.31903C75.2933 5.30468 75.2971 5.16216 75.3907 4.98712C75.4857 4.81303 75.3801 4.80873 75.3297 4.66095C75.2827 4.51412 75.2261 4.56338 75.0399 4.61169C74.8556 4.66382 74.9338 4.58156 74.8244 4.61599C74.7045 4.64421 74.6743 4.53851 74.5965 4.43186C74.5135 4.33095 74.5245 4.21712 74.5154 4.07604C74.5135 3.93161 74.5135 3.95648 74.2304 3.90674C73.9516 3.8613 73.9727 4.02726 73.7957 4.04734C73.6114 4.05787 73.729 4.1143 73.7424 4.23195C73.7525 4.35199 73.9579 4.25204 74.1037 4.27452C74.252 4.29412 74.144 4.32282 74.0999 4.42134C74.0509 4.52703 73.9895 4.51795 74.1484 4.62125C74.3029 4.72503 74.2035 4.71977 74.134 4.74608C74.0697 4.79008 73.8715 4.77142 73.68 4.76664C73.49 4.75755 73.502 4.67338 73.3499 4.66286C73.2146 4.64947 73.1704 4.5739 73.0898 4.4309C73.0025 4.29412 73.0692 4.33812 72.7539 4.13534C72.4473 3.9383 72.6287 4.16165 72.4036 4.02678C72.3379 3.98756 72.2976 3.967 72.2621 3.94978C71.9046 4.20039 71.5519 4.46964 71.2093 4.74034C71.229 4.87377 71.3993 4.77716 71.6301 4.86755ZM88.641 22.7103C88.5522 22.6175 88.5652 22.7629 88.5143 22.8242C88.4697 22.8868 88.5311 22.9055 88.6026 23.0021C88.6832 23.0905 88.7739 23.1039 88.901 23.1341C89.0196 23.1666 89.1035 23.2096 89.1035 23.2096C89.2878 23.3153 89.1352 23.0872 89.0978 23.0398C89.0508 22.9901 88.901 22.97 88.8017 22.9035C88.7038 22.839 88.7293 22.8017 88.641 22.7103ZM83.7576 33.8126C83.4597 33.6973 83.6386 34.0235 83.6386 34.0235C83.6938 34.1478 83.7197 34.0593 83.8752 34.0268C84.0465 34.0043 84.355 33.9541 84.4779 34.1574C84.5902 34.3559 84.6617 34.2315 84.8306 34.1402C84.9961 34.0431 85.1477 34.0713 85.5431 34.1507C85.94 34.2315 85.6065 34.023 85.3186 33.7183C85.0215 33.4156 85.0215 33.5505 84.8032 33.5266C84.5858 33.4983 84.4141 33.3769 84.1674 33.3549C83.9136 33.3357 83.9289 33.4983 84.0508 33.5098C84.1761 33.527 84.2154 33.5887 84.201 33.7509C84.178 33.9206 84.0465 33.9249 83.7576 33.8126ZM82.1958 33.7466C81.9674 33.7877 82.4242 34.0077 82.4242 34.0077C82.6185 34.0689 82.689 33.9847 82.8239 33.9465C82.9611 33.9111 82.7226 33.8264 82.57 33.7509C82.4309 33.6753 82.4218 33.7054 82.1958 33.7466ZM83.1953 33.2611C83.4467 33.353 83.5863 33.2664 83.5863 33.2664C83.8037 33.1966 83.3056 32.8776 82.7831 32.6346C82.2332 32.3773 82.6161 32.6078 81.9736 32.1454C81.4131 31.7384 81.084 31.7881 80.8009 31.7546C80.5264 31.7202 80.0825 31.9282 80.0758 32.132C80.0614 32.3328 80.38 32.231 80.4899 32.12C80.6012 32.0062 80.8402 31.7938 80.988 31.9823C81.1982 32.3945 81.3076 32.0741 81.4894 32.2836C81.6756 32.4954 81.9539 32.3749 82.0902 32.5351C82.225 32.6944 82.0446 32.8135 82.3512 32.8527C82.6473 32.8881 82.7447 33.0435 82.4909 33.1526C82.2461 33.2611 82.6012 33.2994 82.7423 33.2611C82.8867 33.2186 82.9424 33.1669 83.1953 33.2611ZM86.3051 34.2157C86.0964 34.1698 86.1257 34.3339 86.1257 34.3339C86.1305 34.4343 86.523 34.4147 86.6583 34.4056C86.7936 34.396 86.737 34.3339 86.724 34.2769C86.7015 34.2157 86.5148 34.2482 86.3051 34.2157ZM81.6588 0.852116C81.655 1.01998 81.1588 1.06446 81.5302 1.21703C81.9103 1.36433 82.3143 1.27776 82.1598 1.3782C82.0038 1.48198 82.1511 1.78376 82.5043 1.68811C82.8551 1.60202 83.3877 1.29929 83.1195 1.49728C82.8493 1.69672 82.5556 1.74406 82.8599 1.79428C83.6478 2.04249 83.6703 1.70245 83.9433 1.76511C83.9433 1.76511 84.2077 1.82632 84.0513 1.91719C83.9059 1.9961 84.4702 2.15489 84.8713 1.96884C85.2711 1.78567 86.0014 1.45281 85.9726 1.52646C85.892 1.76989 85.2159 1.74406 85.438 1.90093C85.7163 2.09654 86.2072 2.16588 85.7864 2.15489C85.3637 2.14819 85.3857 2.24767 84.8934 2.16302C84.4011 2.07741 83.8445 2.08697 84.1895 2.30984C84.5172 2.54323 85.2355 2.97222 84.819 2.8517C84.4011 2.73214 84.1324 2.58675 83.9616 2.34954C83.7908 2.10228 82.7956 1.91145 82.7337 2.10897C82.666 2.30984 82.7437 2.51836 83.0297 2.57192C83.3123 2.62645 83.5767 3.01527 83.4477 3.0454C83.3272 3.07553 83.2845 3.16448 83.4837 3.175C83.6775 3.18887 84.4784 3.44139 84.1549 3.40361C83.8258 3.36057 83.4088 3.25105 83.1281 3.25105C82.8411 3.2477 82.6022 3.21327 82.4774 3.38687C82.3469 3.57435 82.1137 3.80965 82.429 3.77856C82.7433 3.74796 82.8752 3.68004 82.9251 3.76804C82.9774 3.85748 83.0369 3.81874 83.0009 3.9493C82.9736 4.07747 82.8637 4.24295 83.1487 4.28456C83.4304 4.32473 83.7787 4.39408 83.5335 4.41991C83.2931 4.44525 82.9505 4.49786 82.7836 4.24917C82.6022 3.99713 82.058 3.73456 82.0163 3.95791C81.9674 4.17312 82.4861 4.39264 82.2807 4.4816C82.084 4.57343 81.8306 4.41704 81.5681 4.56434C81.3047 4.72121 81.3493 5.06029 81.725 5.0139C82.1075 4.97133 82.3752 5.05599 82.8493 5.20807C83.32 5.35537 83.2317 5.31377 83.6142 5.18798C83.9947 5.06412 84.5167 5.16264 84.4908 5.29224C84.4908 5.29224 84.3306 5.49885 84.5403 5.48785C84.7499 5.47063 84.7298 5.5395 84.9308 5.47063C85.129 5.3879 85.3109 5.41372 85.4481 5.28555C85.5734 5.14685 85.7163 5.16933 85.5734 5.06029C85.4332 4.95316 85.5052 5.08898 85.3195 4.99477C85.1295 4.90007 84.9999 4.86755 85.1041 4.79151C85.2159 4.71355 85.2159 4.75899 85.3473 4.73651C85.4721 4.71068 85.6938 4.72742 85.6367 4.57295C85.5863 4.41656 85.3838 4.3343 85.5973 4.30608C85.8042 4.28456 85.7504 4.37399 86.0153 4.34865C86.284 4.32473 86.807 4.20852 86.6765 4.10139C86.5311 3.989 86.4169 3.9823 86.5604 3.95169C86.7024 3.91774 87.0657 3.90817 86.8867 3.74748C86.7024 3.60161 86.438 3.56096 86.6477 3.5337C86.8646 3.50548 87.1674 3.66809 87.0825 3.50548C87.0047 3.329 86.6026 3.35579 86.795 3.26492C86.9774 3.17931 87.4822 3.40839 87.5225 3.24722C87.5623 3.0894 87.3358 2.94927 87.5412 3.02818C87.7461 3.10088 87.8497 3.24722 88.1031 3.15157C88.3564 3.0497 88.4198 2.97892 88.5153 2.83162C88.6122 2.69197 88.6525 2.8474 88.8238 2.7374C88.9932 2.62645 90.0431 2.13193 90.4337 2.06689C90.8123 2.00136 91.0402 1.8445 90.687 1.85024C90.3281 1.86124 90.3065 1.85741 89.9649 1.91767C89.6237 1.96932 89.3286 1.88993 89.7091 1.80863C90.0935 1.7235 90.4404 1.68332 90.6592 1.67998C90.8943 1.67615 91.4754 1.65511 91.6841 1.54559C91.8977 1.43559 92.4053 1.43559 92.0099 1.24955C91.6299 1.06446 91.1525 0.611075 90.6299 0.706726C90.1035 0.805725 89.3737 0.780856 89.7384 0.715813C90.104 0.63977 90.2537 0.488163 89.6242 0.421685C88.9884 0.368599 88.6419 0.141427 88.0887 0.0916889C87.5369 0.0500806 87.415 -0.121135 86.1991 0.149558C85.5522 0.297339 85.7044 0.149558 85.2293 0.0754282C84.7562 0.00895062 84.19 0.149558 84.4261 0.37386C84.6569 0.600553 84.5916 0.633075 84.3402 0.53551C84.0969 0.443685 83.1142 0.111776 82.9218 0.348034C82.8882 0.51638 83.357 0.505859 82.9745 0.546989C82.594 0.58764 82.404 0.378164 82.1396 0.489119C81.8738 0.592423 80.8546 0.505858 81.0619 0.71916C81.2615 0.935332 81.6698 0.689987 81.6588 0.852116ZM76.0087 2.3878C75.9684 2.4514 76.0528 2.47675 76.1987 2.47006C76.3571 2.46479 76.2894 2.42653 76.442 2.60062C76.5917 2.76992 76.419 2.78857 76.419 2.78857C76.2198 2.76466 76.1838 2.7331 76.264 2.91149C76.334 3.09227 76.5365 2.97796 76.7865 3.01957C77.0346 3.05544 76.9751 3.03631 77.2006 3.09227C77.4266 3.15396 77.3148 3.26109 77.4727 3.43661C77.6397 3.61835 77.7428 3.51648 77.9904 3.48539C78.2419 3.44952 78.0471 3.35961 77.9952 3.24674C77.9295 3.12957 77.6214 2.88375 77.488 2.71827C77.3609 2.5571 77.382 2.58292 77.0922 2.46479C76.8052 2.34858 76.9895 2.53653 76.7524 2.40501C76.5159 2.27828 76.5413 2.20606 76.4017 2.06163C76.2433 1.91671 76.1037 2.06593 75.8523 2.08793C75.5989 2.10802 75.7549 2.19267 75.8758 2.28114C75.9833 2.37823 76.0528 2.32371 76.0087 2.3878ZM74.6181 9.39568C74.3182 9.47937 73.8619 9.47555 73.7856 9.61424C73.7856 9.61424 73.7434 9.91506 74.1349 9.77589C74.5255 9.64007 74.5888 9.59176 74.7246 9.62333C74.8662 9.6592 75.1028 9.71755 74.9718 9.57837C74.8384 9.44637 74.9161 9.31485 74.6181 9.39568ZM76.1253 9.03603C76.3153 9.1116 76.3259 9.17999 76.4693 9.09677C76.6195 9.02025 76.7932 9.0102 76.5691 8.86768C76.3427 8.7309 76.0216 8.47791 75.8763 8.4253C75.7323 8.36695 75.5212 8.35165 75.5375 8.19C75.5471 8.025 75.6248 7.95374 75.5634 7.84374C75.5087 7.72609 75.4108 7.57018 75.3734 7.44774C75.3292 7.32101 75.3432 7.21005 75.228 7.07949C75.1114 6.94701 75.1378 6.78631 74.9569 6.66914C74.7846 6.55388 74.7923 6.47593 74.6052 6.48262C74.4084 6.48836 74.2923 6.44675 74.3427 6.64188C74.3873 6.83175 74.2899 6.88723 74.3825 7.06083C74.4713 7.23109 74.5265 7.33679 74.4862 7.40709C74.442 7.47357 74.3979 7.62326 74.2899 7.51279C74.1843 7.41283 74.2093 7.45444 74.1719 7.2397C74.1459 7.02066 74.1954 7.00536 74.0557 6.86905C73.9204 6.73514 73.9814 6.64427 73.7889 6.61701C73.5989 6.59023 73.55 6.47497 73.4972 6.59693C73.4507 6.71314 73.6138 6.81358 73.4636 6.83988C73.3134 6.86905 73.2904 7.08523 73.1868 6.91066C73.0793 6.73514 72.9569 6.62132 72.729 6.55341C72.5092 6.47545 72.5217 6.42715 72.3864 6.52232C72.2592 6.61653 72.1407 6.76479 72.1354 6.61175C72.133 6.45871 72.2784 6.53475 72.1944 6.3578C72.1119 6.17845 71.9089 6.14928 71.6153 6.23871C71.3278 6.32241 71.265 6.23106 71.0318 6.38267C70.7995 6.53427 70.7463 6.56345 70.6661 6.66819C70.5793 6.77819 70.3408 6.82601 70.4133 6.97379C70.4828 7.12875 70.599 7.23109 70.7194 7.2464C70.8446 7.2574 70.7976 7.2574 71.0553 7.27605C71.3024 7.29566 71.6086 7.29996 71.4526 7.39035C71.313 7.4927 71.1613 7.46831 71.0025 7.45348C70.8605 7.44392 70.6714 7.3387 70.6158 7.45061C70.5587 7.56587 70.4828 7.66583 70.6834 7.72274C70.884 7.77965 70.956 7.80117 71.1863 7.81552C71.4166 7.8227 71.6388 7.91261 71.8859 7.94082C72.1335 7.96809 72.1738 7.90209 72.3869 8.02787C72.6047 8.15078 73.0438 8.13787 72.8307 8.23878C72.6181 8.33969 72.6532 8.37699 72.3557 8.31004C72.0466 8.24452 72.0006 8.20865 71.6393 8.18904C71.2842 8.15748 70.8802 8.04078 70.8763 8.20243C70.8658 8.36552 70.9137 8.54534 71.0495 8.60082C71.1849 8.66203 71.1153 8.80886 71.4785 8.7706C71.848 8.73377 71.9133 8.76056 71.9819 8.89973C72.0366 9.03794 71.9017 9.20868 72.1906 9.2742C72.4785 9.33877 72.6052 9.47029 72.7885 9.42533C72.9703 9.3799 73.4267 9.47029 73.6829 9.38564C73.9511 9.31294 74.0461 9.29955 74.1579 9.25603C74.2741 9.21442 74.4895 9.08577 74.7578 9.18046C74.8278 9.20868 74.8676 9.30959 75.0432 9.34307C75.2208 9.36651 75.1781 9.48272 75.417 9.53007C75.6512 9.57933 75.7573 9.6152 75.9391 9.56116C76.1277 9.49994 76.3489 9.56546 76.2457 9.43681C76.155 9.29764 76.2011 9.38516 76.0557 9.27803C75.8974 9.16564 75.6608 9.1092 75.8273 9.06855C75.9914 9.03077 75.9367 8.95903 76.1253 9.03603ZM79.3815 2.30171C79.62 2.32371 79.5571 2.54466 79.8589 2.51932C80.1593 2.50353 81.2495 2.71875 80.8412 2.71875C80.4333 2.71492 79.9136 2.49206 79.9453 2.73692C79.9775 2.98131 79.9775 3.02005 80.2035 3.18505C80.4299 3.35531 80.5058 3.48587 80.7001 3.51696C80.7001 3.51696 81.3282 3.73169 81.5768 3.56622C81.8301 3.40361 81.9952 3.07888 82.1175 3.18218C82.2471 3.27879 82.2548 3.2367 82.5019 3.13005C82.7433 3.02005 83.2183 3.03248 83.2049 2.91196C83.1847 2.79288 82.9376 2.6231 82.7519 2.54514C82.5619 2.46527 82.4861 2.55136 82.4918 2.39688C82.4918 2.23715 82.1924 1.71011 82.0912 1.86315C81.9957 2.01141 82.1483 2.13193 81.9827 2.05254C81.8157 1.96789 82.0734 1.78424 81.7927 1.71058C81.5096 1.63646 81.4995 1.76558 81.3157 1.63167C81.1185 1.50111 81.2279 1.54606 81.0485 1.29498C80.8584 1.04629 80.0979 0.666074 80.0787 0.838246C80.0619 1.00372 80.4736 0.968332 80.3153 1.02524C80.1593 1.08742 79.8901 0.926246 79.7337 1.02811C79.5758 1.12855 79.4064 1.19789 79.6013 1.2945C79.7994 1.38872 80.0763 1.41981 79.9266 1.43846C79.7846 1.45281 79.5293 1.29929 79.3964 1.41646C79.2697 1.53602 79.1406 1.62498 79.2275 1.70245C79.3057 1.77754 78.9103 1.60919 79.0624 1.86697C79.2097 2.12858 79.1401 2.28784 79.3815 2.30171ZM84.3469 7.26983C84.3469 7.26983 84.1127 7.34348 84.2432 7.55679C84.3738 7.76483 84.3704 7.99774 84.5959 7.981C84.8301 7.96952 84.7715 7.93126 84.962 7.948C85.1578 7.95422 85.4323 8.04221 85.6002 8.0293C85.771 8.01782 85.9971 8.15221 85.8301 7.93174C85.6741 7.71604 85.6506 7.52713 85.4328 7.44535C85.2154 7.36022 85.2619 7.39609 85.0786 7.40087C84.9006 7.40805 84.5139 7.19331 84.3469 7.26983ZM76.8057 4.89003C76.6742 4.83694 76.6152 4.9106 76.5476 5.03112C76.478 5.14542 76.776 5.1172 76.8772 5.1172C76.9832 5.11864 77.0168 5.10142 77.061 5.12533C77.2116 5.2272 77.2712 5.11003 77.4036 5.03112C77.5351 4.9479 77.5264 5.06029 77.5538 5.14733C77.5749 5.23772 77.3978 5.21381 77.3023 5.34916C77.2097 5.49263 77.383 5.5132 77.5072 5.5725C77.6301 5.62846 77.7932 5.59928 77.9573 5.58781C78.12 5.5835 78.1646 5.44337 78.2107 5.33863C78.2572 5.22768 78.2615 5.18129 78.4348 5.02777C78.6061 4.87042 78.4669 4.83694 78.4055 4.65138C78.3335 4.4639 78.2827 4.54569 77.9823 4.4639C77.6733 4.37782 77.8302 4.54569 77.5154 4.40125C77.2006 4.25634 77.3614 4.40891 77.2913 4.53708C77.2112 4.6619 77.3777 4.62651 77.5111 4.73699C77.6478 4.8446 77.5154 4.83694 77.4545 4.88716C77.3974 4.93881 77.3532 4.86755 77.2025 4.74751C77.0523 4.61886 77.1435 4.58825 77.0039 4.44812C76.8585 4.30465 76.8734 4.46343 76.7673 4.58538C76.6603 4.70925 76.8119 4.68773 76.9597 4.80107C77.0989 4.92016 77.0461 4.91681 77.0164 4.9632C77.0005 5.01151 76.941 4.94742 76.8057 4.89003ZM78.5677 3.36966C78.6353 3.53322 78.7769 3.55665 78.7769 3.55665C78.9607 3.60113 79.1915 3.57626 79.4026 3.48539C79.6123 3.39644 79.4995 3.38592 79.4779 3.22713C79.453 3.06788 79.3666 3.14153 79.1555 3.10805C78.9439 3.07792 79.0624 3.08844 78.8743 2.93875C78.6924 2.79718 78.6353 2.85983 78.4468 2.8584C78.2611 2.84692 78.3604 2.96983 78.3978 3.09514C78.4391 3.22522 78.4981 3.20514 78.5677 3.36966Z" fill="url(#paint0_radial_1_390)"/>
<path d="M50.6678 10.3408C55.592 14.6991 67.73 20.8858 82.6655 26.3073C103.344 33.8188 121.563 37.0098 123.343 33.452C124.084 31.967 121.844 29.5423 117.498 26.677C117.622 26.3939 117.727 26.1132 117.838 25.8358C123.718 29.5628 126.819 32.8188 125.83 34.7993C123.743 38.9859 104.075 35.8662 81.9103 27.8205C65.682 21.9294 52.6097 15.0296 47.5997 10.105C48.6458 10.2303 49.6731 10.3039 50.6678 10.3408Z" fill="url(#paint1_radial_1_390)"/>
<path d="M39.5086 11.9912C39.8848 12.1519 41.9266 13.0807 43.427 13.5718C43.427 13.5718 42.9054 14.8794 43.7418 15.317C44.5638 15.7527 45.51 16.5561 45.9505 16.4509C46.3852 16.3395 46.1463 16.5208 46.4467 16.2902C46.7192 16.2587 47.2259 16.6389 47.6002 16.4476C47.6002 16.4476 47.9577 16.274 47.8819 15.7828C47.8819 15.7828 48.2744 15.8584 48.6741 15.5542C48.6741 15.5542 49.5148 15.7871 50.0579 15.8536L50.0392 15.6795C50.0392 15.6795 50.4365 16.3318 50.5987 16.3921C50.5987 16.3921 50.4322 16.845 50.627 17.0947C50.4682 17.7685 50.627 17.7207 50.627 17.7207L50.6549 17.7274L50.5886 18.243C50.4941 18.3113 50.4173 18.4089 50.3588 18.5065C50.295 18.3941 50.1889 18.319 50.069 18.3056C49.8137 18.2731 49.581 18.5122 49.545 18.8384C49.4922 19.1736 49.6697 19.4702 49.9106 19.5003C50.0863 19.5228 50.2508 19.418 50.3521 19.2439C50.4135 19.4477 50.5464 19.594 50.7307 19.6222C50.9332 19.6457 51.1304 19.5032 51.2355 19.2803C51.2993 19.4534 51.4216 19.5811 51.5906 19.6022C51.8468 19.6352 52.0891 19.3822 52.1357 19.0483C52.1779 18.7002 52.0003 18.4003 51.7407 18.3702C51.688 18.3611 51.6289 18.3702 51.5819 18.3864C51.5181 18.188 51.1544 18.0292 51.1544 18.0292L51.1635 17.7814C51.3137 17.7695 51.3684 17.6418 51.3684 17.6418C51.6577 17.1941 52.0128 17.2243 52.0128 17.2243C52.7628 17.4309 52.9509 16.9101 52.9509 16.9101C55.5905 18.4496 55.6985 18.1554 56.1529 18.3817C56.5478 18.5749 57.1711 18.8202 57.7503 19.1612C57.722 19.2095 57.7037 19.2573 57.685 19.3052C57.5137 19.3802 57.3697 19.5806 57.3381 19.8332C57.2983 20.1703 57.4672 20.4716 57.7186 20.5022C57.9062 20.5247 58.0962 20.3918 58.1869 20.1742C58.2464 20.4061 58.4091 20.5816 58.6121 20.6098C58.8112 20.6347 58.9988 20.518 59.1173 20.3224C59.1759 20.4573 59.2973 20.5515 59.4345 20.5725C59.6116 20.5922 59.7805 20.4817 59.874 20.3119C59.874 20.3167 59.874 20.321 59.8764 20.3224C60.0871 20.5424 60.4892 20.6342 60.4892 20.6342C60.4743 20.7576 60.5228 20.7543 60.6581 20.8088C60.7977 20.8628 60.8001 20.7342 60.8001 20.7342C63.2488 21.3488 64.9925 21.3268 64.9925 21.3268C64.9752 21.4764 64.8562 21.9136 65.1249 21.9437C65.3975 21.9829 65.1777 21.5621 65.3404 21.5831C65.5035 21.6027 65.6192 21.3975 65.6192 21.3975C66.8768 21.553 68.3643 21.7897 68.6791 21.3574C69.003 20.9217 67.7962 19.4922 67.7962 19.4922L68.6474 17.6973L71.1848 17.6628C71.527 17.9412 71.6949 17.9359 71.8149 17.9053C71.9478 17.8785 71.7837 17.6509 71.7837 17.6509C74.1503 17.7924 73.9132 17.4003 73.9132 17.4003C74.668 17.451 77.2097 17.208 78.6492 17.2228C80.094 17.2305 80.0432 17.0961 80.0432 17.0961C80.0917 16.8861 79.5322 16.8613 79.5322 16.8613L69.3955 16.1582C69.3955 16.1582 71.4156 11.8893 71.5634 11.555C71.7179 11.2289 71.6143 11.1614 71.6143 11.1614L70.6652 10.6693C70.6652 10.6693 70.4905 10.5856 70.3437 10.7391C70.228 10.8687 66.1264 15.0176 65.2641 15.8847L62.1974 15.5136C61.8361 15.3189 61.4412 15.1109 61.0122 14.8779L61.4326 15.0219L61.4772 14.6603L61.3121 14.5891L61.0122 14.8779C58.2123 13.3824 53.9965 11.1098 50.7739 9.44783L50.8156 9.13792L50.6337 9.04514L50.3737 9.24553C49.0085 8.53866 47.8468 7.96476 47.1088 7.63189C43.5676 6.05699 42.9165 7.98054 42.7053 8.2498C42.7053 8.2498 41.7394 9.82661 43.4616 11.4493C43.4616 11.4493 43.2063 11.9376 43.7308 12.3331C43.7308 12.3331 43.6607 12.7416 43.9102 12.7693C44.0791 12.7956 44.1386 12.9286 44.2058 12.9252C44.1022 12.9554 44.0033 12.9917 43.9102 13.0443C42.9702 12.8286 41.9299 12.5316 41.011 12.1595C39.2236 11.4015 39.3335 11.8908 39.5086 11.9912ZM51.0742 18.4008C51.1093 18.2645 51.1688 18.2095 51.1688 18.2095C51.2825 18.2233 51.3991 18.3563 51.4692 18.4443C51.3866 18.4983 51.3127 18.5806 51.2724 18.6853C51.2259 18.5663 51.163 18.4639 51.0742 18.4008ZM46.5182 13.5159C46.213 13.3265 45.0993 12.711 44.2312 12.9262C44.248 12.9133 44.2735 12.8851 44.3138 12.8234C44.4505 12.5718 44.6434 12.2686 44.6434 12.2686C44.6434 12.2686 46.4798 13.359 46.7883 13.5044C46.8516 13.5317 46.7446 13.5364 46.5182 13.5159Z" fill="url(#paint2_radial_1_390)"/>
<path d="M11.3343 28.5642H17.0142L28.3216 57.4657H22.5007L20.2075 51.5124H8.2072L5.81279 57.4657H0L11.3343 28.5642ZM14.2042 36.2307L10.2672 46.1526H18.1265L14.2042 36.2307Z" fill="url(#paint3_radial_1_390)"/>
<path d="M32.6436 28.5642H38.2409V52.2192H46.3977V57.4657H32.6436V28.5642Z" fill="url(#paint4_radial_1_390)"/>
<path d="M50.7297 28.5642H65.3188V33.9298H56.2896V39.1734H65.3188V44.4567H56.2896V57.4652H50.7297V28.5642Z" fill="url(#paint5_radial_1_390)"/>
<path d="M114.657 53.8342C114.657 52.1263 116.041 50.7461 117.753 50.7461C119.465 50.7461 120.851 52.1263 120.851 53.8342C120.851 55.533 119.465 56.9194 117.753 56.9194C116.041 56.9194 114.657 55.5325 114.657 53.8342ZM115.015 53.8342C115.015 55.3354 116.243 56.5603 117.753 56.5646C119.273 56.5603 120.49 55.3354 120.494 53.8342C120.49 52.3272 119.273 51.1029 117.753 51.0952C116.243 51.1029 115.015 52.3267 115.015 53.8342Z" fill="#122970"/>
<path d="M116.394 55.5063V51.9958H117.949C118.273 51.9958 118.502 52.0303 118.668 52.0948C118.831 52.1532 118.964 52.2699 119.057 52.4268C119.156 52.5855 119.209 52.7572 119.209 52.9567C119.209 53.1991 119.124 53.4148 118.959 53.5837C118.803 53.7573 118.556 53.8668 118.215 53.9089C118.34 53.9734 118.433 54.027 118.492 54.082C118.636 54.2054 118.762 54.3651 118.883 54.5555L119.496 55.5058H118.904L118.439 54.7769C118.309 54.5674 118.195 54.4058 118.103 54.2948C118.019 54.1843 117.943 54.1035 117.869 54.0586C117.801 54.0146 117.736 53.982 117.655 53.9672C117.603 53.9553 117.52 53.9495 117.4 53.9495H116.861V55.5063H116.394ZM116.861 53.5464H117.858C118.072 53.5464 118.237 53.5253 118.354 53.4804C118.476 53.4397 118.569 53.367 118.637 53.2723C118.698 53.1767 118.725 53.0686 118.725 52.9567C118.725 52.7902 118.664 52.6544 118.544 52.5468C118.43 52.4435 118.235 52.3852 117.971 52.3852H116.861V53.5464Z" fill="#122970"/>
<path d="M0.067627 61.5271H4.63619V62.6945H3.00521V66.4125H1.77538V62.6945H0.067627V61.5271Z" fill="#8DB932"/>
<path d="M5.53589 61.5271H6.79307L8.06657 64.5927L9.47154 61.5271H10.7321L7.66206 68.2002H6.39192L7.40007 66.048L5.53589 61.5271Z" fill="#8DB932"/>
<path d="M13.2901 61.5271V62.0661C13.5123 61.8442 13.7527 61.6783 14.0108 61.5673C14.269 61.4568 14.5454 61.4014 14.84 61.4014C15.4796 61.4014 16.0233 61.6424 16.471 62.1245C16.9187 62.6066 17.1423 63.2245 17.1423 63.9792C17.1423 64.7066 16.911 65.3149 16.4484 65.8042C15.9859 66.2934 15.4379 66.5383 14.804 66.5383C14.5219 66.5383 14.2589 66.4886 14.0156 66.3881C13.7724 66.2877 13.5305 66.1237 13.2901 65.8965V68.2002H12.0694V61.5271H13.2901ZM14.5833 62.5334C14.1956 62.5334 13.8741 62.6649 13.6193 62.9284C13.364 63.192 13.2364 63.5363 13.2364 63.961C13.2364 64.3952 13.364 64.7463 13.6193 65.0141C13.8746 65.2824 14.1961 65.4158 14.5833 65.4158C14.959 65.4158 15.2747 65.28 15.5319 65.0074C15.7886 64.7353 15.9172 64.3881 15.9172 63.9658C15.9172 63.5463 15.791 63.203 15.5386 62.9351C15.2862 62.6673 14.9676 62.5334 14.5833 62.5334Z" fill="#8DB932"/>
<path d="M19.446 66.413H18.7929V61.5271H19.9916V64.3966L22.5011 61.5271H23.0913V66.413H21.8927V63.6018L19.446 66.413Z" fill="#8DB932"/>
<path d="M29.7697 62.5152L28.7458 63.0767C28.5533 62.8763 28.3628 62.7371 28.1752 62.6592C27.9876 62.5812 27.7669 62.5425 27.5145 62.5425C27.0548 62.5425 26.6824 62.6793 26.3979 62.9524C26.1138 63.2259 25.9718 63.5765 25.9718 64.0036C25.9718 64.4192 26.1086 64.7587 26.3821 65.0218C26.6556 65.2848 27.015 65.4159 27.4603 65.4159C28.0106 65.4159 28.4391 65.2289 28.7462 64.8549L29.716 65.5168C29.1906 66.1983 28.4483 66.5388 27.49 66.5388C26.6282 66.5388 25.9531 66.2844 25.4646 65.7755C24.9766 65.2666 24.7328 64.6703 24.7328 63.9883C24.7328 63.5153 24.8514 63.0796 25.0889 62.6817C25.3259 62.2833 25.6575 61.971 26.0822 61.7429C26.5073 61.5152 26.9823 61.4019 27.5082 61.4019C27.9948 61.4019 28.4319 61.498 28.8192 61.6912C29.2064 61.8844 29.5231 62.1589 29.7697 62.5152Z" fill="#8DB932"/>
<path d="M31.0778 61.5271H35.6464V62.6945H34.0154V66.4125H32.7856V62.6945H31.0778V61.5271Z" fill="#8DB932"/>
<path d="M37.7385 66.413H37.0854V61.5271H38.2841V64.3966L40.7937 61.5271H41.3839V66.413H40.1852V63.6018L37.7385 66.413Z" fill="#8DB932"/>
<path d="M45.9265 64.4732H44.938C44.2701 64.4732 43.7567 64.345 43.3973 64.0891C43.0379 63.8332 42.8579 63.4119 42.8579 62.8251V61.5271H44.0877V62.7309C44.0877 63.1589 44.3761 63.3732 44.9524 63.3732L45.4323 63.3684H45.926V61.5271H47.1558V66.413H45.926L45.9265 64.4732Z" fill="#8DB932"/>
<path d="M50.2575 63.2876H52.0958V61.5271H53.3256V66.413H52.0958V64.388H50.2575V66.413H49.0277V61.5271H50.2575V63.2876Z" fill="#8DB932"/>
<path d="M55.8548 66.413H55.2018V61.5271H56.4004V64.3966L58.91 61.5271H59.5002V66.413H58.3016V63.6018L55.8548 66.413Z" fill="#8DB932"/>
<path d="M62.029 66.4129H61.3759V61.5271H62.5746V64.3966L65.0836 61.5271H65.6738V66.4129H64.4752V63.6018L62.029 66.4129ZM61.7224 59.3721H62.718C62.7962 59.4945 62.9052 59.5868 63.0448 59.648C63.1844 59.7092 63.3548 59.7398 63.5558 59.7398C63.7602 59.7398 63.945 59.704 64.11 59.6318C64.218 59.5839 64.3125 59.4974 64.3936 59.3716H65.3893C65.3322 59.7518 65.1499 60.0574 64.8418 60.2874C64.5337 60.518 64.1038 60.6332 63.551 60.6332C63.1787 60.6332 62.8673 60.582 62.6163 60.4787C62.3658 60.3754 62.1638 60.2281 62.0103 60.0364C61.8577 59.8446 61.7617 59.6231 61.7224 59.3721Z" fill="#8DB932"/>
<path d="M73.0749 61.4019C73.5375 61.4019 73.9722 61.5166 74.3796 61.7476C74.7865 61.9782 75.1042 62.2909 75.3321 62.686C75.5605 63.0815 75.6747 63.5081 75.6747 63.9663C75.6747 64.4273 75.56 64.8582 75.3302 65.2595C75.1003 65.6607 74.787 65.974 74.3906 66.2002C73.9943 66.4264 73.5572 66.5393 73.0797 66.5393C72.3768 66.5393 71.7765 66.2901 71.2798 65.7918C70.7827 65.2934 70.5337 64.688 70.5337 63.9753C70.5337 63.2116 70.8149 62.5755 71.3763 62.0671C71.8691 61.6233 72.4353 61.4019 73.0749 61.4019ZM73.0951 62.5559C72.7131 62.5559 72.395 62.6879 72.1407 62.9533C71.8868 63.2183 71.7597 63.5574 71.7597 63.9701C71.7597 64.3957 71.8854 64.7396 72.1364 65.0031C72.3873 65.2666 72.7059 65.3982 73.0908 65.3982C73.4756 65.3982 73.7966 65.2652 74.0519 64.9983C74.3076 64.732 74.4358 64.3895 74.4358 63.9701C74.4358 63.5511 74.31 63.2106 74.0591 62.9485C73.8081 62.6865 73.4866 62.5559 73.0951 62.5559Z" fill="#8DB932"/>
<path d="M78.5417 66.413H77.3119V61.5271H81.6103V66.413H80.3805V62.7084H78.5422V66.413H78.5417Z" fill="#8DB932"/>
<path d="M88.401 64.3249H84.45C84.5071 64.6726 84.6597 64.9486 84.9073 65.1533C85.1549 65.358 85.4711 65.4613 85.856 65.4613C86.3156 65.4613 86.7101 65.3011 87.0412 64.9806L88.0771 65.4656C87.819 65.831 87.5095 66.1012 87.1487 66.2762C86.7883 66.4513 86.3603 66.5388 85.8646 66.5388C85.0954 66.5388 84.4697 66.2973 83.986 65.8133C83.5019 65.3298 83.2605 64.7248 83.2605 63.9969C83.2605 63.2513 83.5014 62.6324 83.9836 62.1398C84.4659 61.6477 85.07 61.4014 85.7969 61.4014C86.5685 61.4014 87.1966 61.6477 87.6803 62.1398C88.164 62.6324 88.4058 63.2828 88.4058 64.0911L88.401 64.3249ZM87.1707 63.3598C87.0896 63.0877 86.9294 62.8658 86.6904 62.695C86.451 62.5243 86.1736 62.4392 85.8579 62.4392C85.5148 62.4392 85.2139 62.5348 84.9548 62.7266C84.7926 62.8462 84.6424 63.0571 84.5038 63.3598H87.1707Z" fill="#8DB932"/>
<path d="M91.2551 61.5271V62.0661C91.4773 61.8442 91.7177 61.6783 91.9758 61.5673C92.234 61.4568 92.5104 61.4014 92.805 61.4014C93.4446 61.4014 93.9888 61.6424 94.436 62.1245C94.8832 62.6066 95.1068 63.2245 95.1068 63.9792C95.1068 64.7066 94.876 65.3149 94.4134 65.8042C93.9509 66.2934 93.4029 66.5383 92.7685 66.5383C92.4864 66.5383 92.2234 66.4886 91.9802 66.3881C91.7364 66.2877 91.4946 66.1237 91.2546 65.8965V68.2002H90.0334V61.5271H91.2551ZM92.5478 62.5334C92.1601 62.5334 91.8386 62.6649 91.5833 62.9284C91.3285 63.192 91.2004 63.5363 91.2004 63.961C91.2004 64.3952 91.3285 64.7463 91.5833 65.0141C91.8386 65.2824 92.1601 65.4158 92.5478 65.4158C92.9231 65.4158 93.2393 65.28 93.4965 65.0074C93.7532 64.7353 93.8818 64.3881 93.8818 63.9658C93.8818 63.5463 93.7556 63.203 93.5032 62.9351C93.2508 62.6673 92.9326 62.5334 92.5478 62.5334Z" fill="#8DB932"/>
<path d="M100.38 61.5271H101.61V66.413H100.38V65.8965C100.139 66.1241 99.899 66.2877 99.6571 66.3881C99.4158 66.4886 99.1538 66.5383 98.8716 66.5383C98.2392 66.5383 97.6912 66.2934 97.2291 65.8042C96.7671 65.3149 96.5363 64.7061 96.5363 63.9792C96.5363 63.2245 96.7599 62.6066 97.2066 62.1245C97.6533 61.6424 98.1965 61.4014 98.8361 61.4014C99.1298 61.4014 99.4062 61.4564 99.6643 61.5673C99.922 61.6783 100.16 61.8442 100.38 62.0661V61.5271ZM99.0866 62.5334C98.7066 62.5334 98.3908 62.6673 98.1389 62.9351C97.888 63.2034 97.7618 63.5463 97.7618 63.9658C97.7618 64.3881 97.8899 64.7348 98.1461 65.0074C98.4019 65.28 98.7166 65.4158 99.0914 65.4158C99.4777 65.4158 99.7982 65.2824 100.053 65.0141C100.307 64.7458 100.434 64.3952 100.434 63.961C100.434 63.5358 100.307 63.192 100.053 62.9284C99.7982 62.6649 99.4762 62.5334 99.0866 62.5334Z" fill="#8DB932"/>
<path d="M103.053 61.5271H107.622V62.6945H105.991V66.4125H104.761V62.6945H103.053V61.5271Z" fill="#8DB932"/>
<path d="M111.367 61.4019C111.83 61.4019 112.264 61.5166 112.672 61.7476C113.079 61.9782 113.396 62.2909 113.624 62.686C113.853 63.0815 113.967 63.5081 113.967 63.9663C113.967 64.4273 113.852 64.8582 113.622 65.2595C113.393 65.6607 113.079 65.974 112.683 66.2002C112.287 66.4264 111.849 66.5393 111.372 66.5393C110.669 66.5393 110.069 66.2901 109.572 65.7918C109.075 65.2934 108.826 64.688 108.826 63.9753C108.826 63.2116 109.107 62.5755 109.669 62.0671C110.161 61.6233 110.728 61.4019 111.367 61.4019ZM111.387 62.5559C111.005 62.5559 110.687 62.6879 110.433 62.9533C110.179 63.2183 110.052 63.5574 110.052 63.9701C110.052 64.3957 110.178 64.7396 110.429 65.0031C110.68 65.2666 110.998 65.3982 111.383 65.3982C111.768 65.3982 112.089 65.2652 112.344 64.9983C112.6 64.732 112.728 64.3895 112.728 63.9701C112.728 63.5511 112.602 63.2106 112.351 62.9485C112.1 62.6865 111.778 62.5559 111.387 62.5559Z" fill="#8DB932"/>
<path d="M116.83 61.5271V62.0661C117.052 61.8442 117.292 61.6783 117.55 61.5673C117.809 61.4568 118.085 61.4014 118.38 61.4014C119.019 61.4014 119.563 61.6424 120.011 62.1245C120.458 62.6066 120.681 63.2245 120.681 63.9792C120.681 64.7066 120.451 65.3149 119.988 65.8042C119.525 66.2934 118.977 66.5383 118.343 66.5383C118.061 66.5383 117.798 66.4886 117.555 66.3881C117.311 66.2877 117.069 66.1237 116.829 65.8965V68.2002H115.608V61.5271H116.83ZM118.122 62.5334C117.735 62.5334 117.413 62.6649 117.158 62.9284C116.903 63.192 116.775 63.5363 116.775 63.961C116.775 64.3952 116.903 64.7463 117.158 65.0141C117.413 65.2824 117.735 65.4158 118.122 65.4158C118.498 65.4158 118.814 65.28 119.071 65.0074C119.328 64.7353 119.456 64.3881 119.456 63.9658C119.456 63.5463 119.33 63.203 119.078 62.9351C118.825 62.6673 118.507 62.5334 118.122 62.5334Z" fill="#8DB932"/>
<defs>
<radialGradient id="paint0_radial_1_390" cx="0" cy="0" r="1" gradientUnits="userSpaceOnUse" gradientTransform="translate(91.0395 28.4554) rotate(180) scale(28.2155 28.1223)">
<stop stop-color="#C2D23A"/>
<stop offset="0.334" stop-color="#C0D03A"/>
<stop offset="0.5322" stop-color="#B7CC39"/>
<stop offset="0.6948" stop-color="#A9C538"/>
<stop offset="0.8382" stop-color="#95BC37"/>
<stop offset="0.9677" stop-color="#7CAF37"/>
<stop offset="1" stop-color="#74AC37"/>
</radialGradient>
<radialGradient id="paint1_radial_1_390" cx="0" cy="0" r="1" gradientUnits="userSpaceOnUse" gradientTransform="translate(86.8058 23.3824) scale(29.2792 29.1825)">
<stop stop-color="#318DBD"/>
<stop offset="0.2095" stop-color="#2C7AAD"/>
<stop offset="0.6428" stop-color="#1D4D8A"/>
<stop offset="1" stop-color="#122A6E"/>
</radialGradient>
<radialGradient id="paint2_radial_1_390" cx="0" cy="0" r="1" gradientUnits="userSpaceOnUse" gradientTransform="translate(59.7313 14.4835) rotate(180) scale(15.3094 15.2589)">
<stop stop-color="#318DBD"/>
<stop offset="0.2095" stop-color="#2C7AAD"/>
<stop offset="0.6428" stop-color="#1D4D8A"/>
<stop offset="1" stop-color="#122A6E"/>
</radialGradient>
<radialGradient id="paint3_radial_1_390" cx="0" cy="0" r="1" gradientUnits="userSpaceOnUse" gradientTransform="translate(14.161 43.0147) rotate(180) scale(14.3308 14.2835)">
<stop stop-color="#318DBD"/>
<stop offset="0.2095" stop-color="#2C7AAD"/>
<stop offset="0.6428" stop-color="#1D4D8A"/>
<stop offset="1" stop-color="#122A6E"/>
</radialGradient>
<radialGradient id="paint4_radial_1_390" cx="0" cy="0" r="1" gradientUnits="userSpaceOnUse" gradientTransform="translate(39.5203 43.0147) rotate(180) scale(11.3468 11.3093)">
<stop stop-color="#318DBD"/>
<stop offset="0.2095" stop-color="#2C7AAD"/>
<stop offset="0.6428" stop-color="#1D4D8A"/>
<stop offset="1" stop-color="#122A6E"/>
</radialGradient>
<radialGradient id="paint5_radial_1_390" cx="0" cy="0" r="1" gradientUnits="userSpaceOnUse" gradientTransform="translate(58.0242 43.0147) rotate(180) scale(11.4765 11.4386)">
<stop stop-color="#318DBD"/>
<stop offset="0.2095" stop-color="#2C7AAD"/>
<stop offset="0.6428" stop-color="#1D4D8A"/>
<stop offset="1" stop-color="#122A6E"/>
</radialGradient>
</defs>
</svg>
