<svg width="20" height="15" viewBox="0 0 20 15" fill="none" xmlns="http://www.w3.org/2000/svg">
<g clip-path="url(#clip0_2005_181)">
<rect width="20" height="15" fill="white"/>
<path fill-rule="evenodd" clip-rule="evenodd" d="M0 0V15H20V0H0Z" fill="#2E42A5"/>
<mask id="mask0_2005_181" style="mask-type:luminance" maskUnits="userSpaceOnUse" x="0" y="0" width="20" height="15">
<path fill-rule="evenodd" clip-rule="evenodd" d="M0 0V15H20V0H0Z" fill="white"/>
</mask>
<g mask="url(#mask0_2005_181)">
<path d="M-2.22699 13.9284L2.17407 15.7897L20.0998 2.02366L22.4213 -0.742266L17.715 -1.36436L10.4035 4.56781L4.5185 8.5647L-2.22699 13.9284Z" fill="white"/>
<path d="M-1.62445 15.2325L0.617684 16.3126L21.5877 -0.999216H18.4395L-1.62445 15.2325Z" fill="#F50100"/>
<path d="M22.2269 13.9284L17.8259 15.7897L-0.0999012 2.02366L-2.42136 -0.742266L2.28494 -1.36436L9.59643 4.56781L15.4814 8.5647L22.2269 13.9284Z" fill="white"/>
<path d="M22.0768 14.8643L19.8346 15.9445L10.9054 8.53236L8.25806 7.70422L-2.64471 -0.732773H0.50351L11.4002 7.50397L14.2945 8.49699L22.0768 14.8643Z" fill="#F50100"/>
<mask id="path-7-inside-1_2005_181" fill="white">
<path d="M12.3609 5H21.2672V10H12.3609V16.25H7.63922V10H-1.23285V5H7.63922V-1.25H12.3609V5Z"/>
</mask>
<path d="M12.3609 5H21.2672V10H12.3609V16.25H7.63922V10H-1.23285V5H7.63922V-1.25H12.3609V5Z" fill="#F50100"/>
<path d="M12.3609 5H11.1109V6.25H12.3609V5ZM21.2672 5H22.5172V3.75H21.2672V5ZM21.2672 10V11.25H22.5172V10H21.2672ZM12.3609 10V8.75H11.1109V10H12.3609ZM12.3609 16.25V17.5H13.6109V16.25H12.3609ZM7.63922 16.25H6.38922V17.5H7.63922V16.25ZM7.63922 10H8.88922V8.75H7.63922V10ZM-1.23285 10H-2.48285V11.25H-1.23285V10ZM-1.23285 5V3.75H-2.48285V5H-1.23285ZM7.63922 5V6.25H8.88922V5H7.63922ZM7.63922 -1.25V-2.5H6.38922V-1.25H7.63922ZM12.3609 -1.25H13.6109V-2.5H12.3609V-1.25ZM12.3609 5V6.25H21.2672V5V3.75H12.3609V5ZM21.2672 5H20.0172V10H21.2672H22.5172V5H21.2672ZM21.2672 10V8.75H12.3609V10V11.25H21.2672V10ZM12.3609 10H11.1109V16.25H12.3609H13.6109V10H12.3609ZM12.3609 16.25V15H7.63922V16.25V17.5H12.3609V16.25ZM7.63922 16.25H8.88922V10H7.63922H6.38922V16.25H7.63922ZM7.63922 10V8.75H-1.23285V10V11.25H7.63922V10ZM-1.23285 10H0.0171509V5H-1.23285H-2.48285V10H-1.23285ZM-1.23285 5V6.25H7.63922V5V3.75H-1.23285V5ZM7.63922 5H8.88922V-1.25H7.63922H6.38922V5H7.63922ZM7.63922 -1.25V0H12.3609V-1.25V-2.5H7.63922V-1.25ZM12.3609 -1.25H11.1109V5H12.3609H13.6109V-1.25H12.3609Z" fill="white" mask="url(#path-7-inside-1_2005_181)"/>
</g>
</g>
<defs>
<clipPath id="clip0_2005_181">
<rect width="20" height="15" fill="white"/>
</clipPath>
</defs>
</svg>
