<svg width="20" height="15" viewBox="0 0 20 15" fill="none" xmlns="http://www.w3.org/2000/svg">
<g clip-path="url(#clip0_2005_96)">
<rect width="20" height="15" fill="white"/>
<path fill-rule="evenodd" clip-rule="evenodd" d="M0 0V15H20V0H0Z" fill="#3D58DB"/>
<mask id="mask0_2005_96" style="mask-type:luminance" maskUnits="userSpaceOnUse" x="0" y="0" width="20" height="15">
<path fill-rule="evenodd" clip-rule="evenodd" d="M0 0V15H20V0H0Z" fill="white"/>
</mask>
<g mask="url(#mask0_2005_96)">
<path fill-rule="evenodd" clip-rule="evenodd" d="M0 0V5H20V0H0Z" fill="#F7FCFF"/>
<path fill-rule="evenodd" clip-rule="evenodd" d="M0 10V15H20V10H0Z" fill="#E31D1C"/>
<path d="M10.0338 3.45642L10.0631 3.73572V3.73865C10.0633 3.74024 10.0638 3.74253 10.0641 3.74548C10.0647 3.75167 10.0658 3.76093 10.067 3.77283C10.0695 3.79665 10.0733 3.83158 10.0778 3.87634C10.0867 3.96604 10.0993 4.09543 10.1139 4.25427C10.143 4.57188 10.1797 5.00881 10.2115 5.48376C10.2743 6.42105 10.3195 7.54919 10.2301 8.19373C10.0528 9.4711 9.28502 11.5391 6.98889 12.5658L6.86389 12.6215L6.73694 12.5668C4.31973 11.5224 3.69487 9.21834 3.55823 8.19177C3.48822 7.66569 3.51487 6.53879 3.5553 5.57654C3.57581 5.08841 3.60027 4.63104 3.61975 4.29626C3.62948 4.129 3.63814 3.992 3.64417 3.89685C3.64718 3.8493 3.64934 3.81179 3.651 3.7865C3.65181 3.77416 3.65252 3.76467 3.65295 3.75818C3.65317 3.7549 3.65382 3.75205 3.65393 3.75037V3.74841V3.74744L3.67346 3.45642H10.0338Z" fill="#E31D1C" stroke="white" stroke-width="0.625"/>
<mask id="mask1_2005_96" style="mask-type:luminance" maskUnits="userSpaceOnUse" x="3" y="3" width="8" height="10">
<path d="M10.0338 3.45642L10.0631 3.73572V3.73865C10.0633 3.74024 10.0638 3.74253 10.0641 3.74548C10.0647 3.75167 10.0658 3.76093 10.067 3.77283C10.0695 3.79665 10.0733 3.83158 10.0778 3.87634C10.0867 3.96604 10.0993 4.09543 10.1139 4.25427C10.143 4.57188 10.1797 5.00881 10.2115 5.48376C10.2743 6.42105 10.3195 7.54919 10.2301 8.19373C10.0528 9.4711 9.28502 11.5391 6.98889 12.5658L6.86389 12.6215L6.73694 12.5668C4.31973 11.5224 3.69487 9.21834 3.55823 8.19177C3.48822 7.66569 3.51487 6.53879 3.5553 5.57654C3.57581 5.08841 3.60027 4.63104 3.61975 4.29626C3.62948 4.129 3.63814 3.992 3.64417 3.89685C3.64718 3.8493 3.64934 3.81179 3.651 3.7865C3.65181 3.77416 3.65252 3.76467 3.65295 3.75818C3.65317 3.7549 3.65382 3.75205 3.65393 3.75037V3.74841V3.74744L3.67346 3.45642H10.0338Z" fill="white" stroke="white" stroke-width="0.625"/>
</mask>
<g mask="url(#mask1_2005_96)">
<path fill-rule="evenodd" clip-rule="evenodd" d="M6.41067 4.11853C6.41067 4.11853 6.53972 4.31517 6.5975 4.61585C6.65527 4.91652 6.66524 5.44335 6.66524 5.44335L5.44094 5.29261V6.22091L6.69259 6.06151L6.67225 6.9426C6.67225 6.9426 6.29779 6.98141 5.99068 6.9426C5.68357 6.90378 5.07855 6.74116 5.07855 6.74116V7.80389C5.07855 7.80389 5.69324 7.60724 5.99068 7.56212C6.28812 7.51699 6.67225 7.56212 6.67225 7.56212V8.86731H7.18039V7.56212C7.18039 7.56212 7.73586 7.51383 8.06722 7.56611C8.39858 7.61838 8.7129 7.80389 8.7129 7.80389V6.74116C8.7129 6.74116 8.39446 6.8998 8.09412 6.93928C7.79377 6.97876 7.18039 6.9426 7.18039 6.9426L7.20073 6.06151C7.20073 6.06151 7.6165 6.01846 7.84976 6.05013C8.08302 6.08179 8.37497 6.22091 8.37497 6.22091V5.29261C8.37497 5.29261 8.09042 5.44744 7.86652 5.47553C7.64263 5.50362 7.17338 5.44335 7.17338 5.44335C7.17338 5.44335 7.1817 4.89968 7.22984 4.63495C7.27798 4.37023 7.41431 4.11853 7.41431 4.11853H6.41067Z" fill="#F7FCFF"/>
<path fill-rule="evenodd" clip-rule="evenodd" d="M4.31079 10.1533C4.31079 10.1533 4.58547 9.56373 5.03243 9.45163C5.47939 9.33954 5.94807 9.80246 5.94807 9.80246C5.94807 9.80246 6.23426 8.86719 6.93182 8.86719C7.62938 8.86719 7.8742 9.80246 7.8742 9.80246C7.8742 9.80246 8.17182 9.45163 8.5998 9.45163C9.02779 9.45163 9.42431 10.1533 9.42431 10.1533C9.42431 10.1533 8.14593 12.4742 6.86755 12.4742C5.58917 12.4742 4.31079 10.1533 4.31079 10.1533Z" fill="#2E42A5"/>
</g>
</g>
</g>
<defs>
<clipPath id="clip0_2005_96">
<rect width="20" height="15" fill="white"/>
</clipPath>
</defs>
</svg>
