<svg width="52" height="47" viewBox="0 0 52 47" fill="none" xmlns="http://www.w3.org/2000/svg">
<path d="M25.6667 44.3333V11.6666M25.6667 44.3333C25.6667 42.4767 24.9292 40.6963 23.6164 39.3835C22.3037 38.0707 20.5232 37.3333 18.6667 37.3333H4.66666C4.04782 37.3333 3.45433 37.0874 3.01675 36.6498C2.57916 36.2122 2.33333 35.6188 2.33333 34.9999V4.66659C2.33333 4.04775 2.57916 3.45425 3.01675 3.01667C3.45433 2.57908 4.04782 2.33325 4.66666 2.33325H16.3333C18.8087 2.33325 21.1827 3.31658 22.933 5.06692C24.6833 6.81726 25.6667 9.19123 25.6667 11.6666M25.6667 44.3333C25.6667 42.4767 26.4042 40.6963 27.7169 39.3835C29.0297 38.0707 30.8101 37.3333 32.6667 37.3333H46.6667C47.2855 37.3333 47.879 37.0874 48.3166 36.6498C48.7542 36.2122 49 35.6188 49 34.9999V31.9666M25.6667 11.6666C25.6667 9.19123 26.65 6.81726 28.4003 5.06692C30.1507 3.31658 32.5246 2.33325 35 2.33325H46.6667C47.2855 2.33325 47.879 2.57908 48.3166 3.01667C48.7542 3.45425 49 4.04775 49 4.66659V9.33325M35 23.3333L39.6667 27.9999L49 18.6666" stroke="#0D0F10" stroke-width="4.66667" stroke-linecap="round" stroke-linejoin="round"/>
</svg>
