<svg width="52" height="42" viewBox="0 0 52 42" fill="none" xmlns="http://www.w3.org/2000/svg">
<path d="M28 30.3333H6.99999C5.76232 30.3333 4.57533 29.8416 3.70016 28.9664C2.82499 28.0912 2.33333 26.9043 2.33333 25.6666V6.99992C2.33333 5.76224 2.82499 4.57526 3.70016 3.70009C4.57533 2.82492 5.76232 2.33325 6.99999 2.33325H44.3333C45.571 2.33325 46.758 2.82492 47.6332 3.70009C48.5083 4.57526 49 5.76224 49 6.99992V18.6666M37.3333 27.9999L49 39.6666M39.6667 16.3333H39.69M49 27.9999L37.3333 39.6666M11.6667 16.3333H11.69M30.3333 16.3333C30.3333 18.9106 28.244 20.9999 25.6667 20.9999C23.0893 20.9999 21 18.9106 21 16.3333C21 13.7559 23.0893 11.6666 25.6667 11.6666C28.244 11.6666 30.3333 13.7559 30.3333 16.3333Z" stroke="#0D0F10" stroke-width="4.66667" stroke-linecap="round" stroke-linejoin="round"/>
</svg>
