<svg width="52" height="49" viewBox="0 0 52 49" fill="none" xmlns="http://www.w3.org/2000/svg">
<path d="M21 42.0001H6.99999C5.76232 42.0001 4.57533 41.5085 3.70016 40.6333C2.82499 39.7581 2.33333 38.5712 2.33333 37.3335V7.00014C2.33333 5.76247 2.82499 4.57548 3.70016 3.70031C4.57533 2.82514 5.76232 2.33348 6.99999 2.33348H16.1C16.8805 2.32582 17.6504 2.51405 18.3393 2.88092C19.0282 3.2478 19.6141 3.7816 20.0433 4.43348L21.9333 7.23348C22.3582 7.87871 22.9367 8.40836 23.6168 8.77488C24.2969 9.14141 25.0574 9.33335 25.83 9.33348H44.3333C45.571 9.33348 46.758 9.82514 47.6332 10.7003C48.5083 11.5755 49 12.7625 49 14.0001V18.6668M49 28.0001L38.5 38.5001M46.6667 30.3335L49 32.6668M39.6667 42.0001C39.6667 44.5775 37.5773 46.6668 35 46.6668C32.4227 46.6668 30.3333 44.5775 30.3333 42.0001C30.3333 39.4228 32.4227 37.3335 35 37.3335C37.5773 37.3335 39.6667 39.4228 39.6667 42.0001Z" stroke="#0D0F10" stroke-width="4.66667" stroke-linecap="round" stroke-linejoin="round"/>
</svg>
