<svg width="52" height="52" viewBox="0 0 52 52" fill="none" xmlns="http://www.w3.org/2000/svg">
<path d="M23.3333 32.6666H28C29.2377 32.6666 30.4246 32.1749 31.2998 31.2997C32.175 30.4246 32.6666 29.2376 32.6666 27.9999C32.6666 26.7622 32.175 25.5753 31.2998 24.7001C30.4246 23.8249 29.2377 23.3333 28 23.3333H21C19.6 23.3333 18.4333 23.7999 17.7333 24.7333L4.66665 37.3332M14 46.6666L17.7333 43.3999C18.4333 42.4666 19.6 41.9999 21 41.9999H30.3333C32.9 41.9999 35.2333 41.0666 36.8666 39.1999L47.6 28.9333C48.5004 28.0823 49.0259 26.9086 49.0609 25.6702C49.0959 24.4319 48.6375 23.2303 47.7866 22.3299C46.9357 21.4295 45.762 20.904 44.5236 20.869C43.2853 20.834 42.0837 21.2923 41.1833 22.1433L31.3833 31.2433M2.33331 34.9999L16.3333 48.9999M41.7666 18.6666C41.7666 22.4037 38.7371 25.4333 35 25.4333C31.2629 25.4333 28.2333 22.4037 28.2333 18.6666C28.2333 14.9295 31.2629 11.8999 35 11.8999C38.7371 11.8999 41.7666 14.9295 41.7666 18.6666ZM18.6666 9.33325C18.6666 13.1992 15.5326 16.3333 11.6666 16.3333C7.80065 16.3333 4.66665 13.1992 4.66665 9.33325C4.66665 5.46726 7.80065 2.33325 11.6666 2.33325C15.5326 2.33325 18.6666 5.46726 18.6666 9.33325Z" stroke="#0D0F10" stroke-width="4.66667" stroke-linecap="round" stroke-linejoin="round"/>
</svg>
