<svg width="20" height="15" viewBox="0 0 20 15" fill="none" xmlns="http://www.w3.org/2000/svg">
<rect width="20" height="15" fill="white"/>
<path fill-rule="evenodd" clip-rule="evenodd" d="M13 2H18V14H13V2Z" fill="#D9071E"/>
<path fill-rule="evenodd" clip-rule="evenodd" d="M2 2H8V14H2V2Z" fill="#3D58DB"/>
<path fill-rule="evenodd" clip-rule="evenodd" d="M7 2H13V14H7V2Z" fill="#FBCD17"/>
<path d="M9.52826 8.97693L7.78314 12.1713L7.25677 11.8842L9.00189 8.68982L9.52826 8.97693ZM12.8593 11.807L12.3329 12.0951L10.5878 8.90076L11.1142 8.61267L12.8593 11.807Z" fill="#FD1900"/>
<path d="M10.1699 10.0465C10.1797 10.0717 10.5854 11.1016 11.7499 11.9156C10.493 12.2511 10.1699 12.9254 10.1699 12.9254C10.1699 12.3866 8.57513 11.9156 8.57513 11.9156C9.11592 11.5633 9.90717 9.98499 9.90717 9.98499L10.1699 10.0465ZM10.0605 3.42542C10.8875 3.42542 10.9842 3.81601 10.9843 4.12756C10.9843 4.43918 10.5078 5.11105 10.5078 5.3678C10.5079 5.62455 10.7015 6.12136 10.9843 6.1217C11.1829 6.1217 12.1378 5.74757 12.6904 5.526V4.70374C12.8237 3.72164 13.4738 3.58192 13.4892 3.57874C13.4892 3.57874 14.2887 3.86626 14.289 4.70374V12.1735C14.289 12.1735 13.757 11.488 13.4892 11.1891C13.2214 10.89 12.6905 10.0868 12.6904 9.47034V6.69495H7.68939V9.47034C7.68928 10.0868 7.15836 10.89 6.89056 11.1891C6.6228 11.488 6.09076 12.1735 6.09076 12.1735C6.09076 12.1735 6.09076 5.54152 6.09076 4.70374C6.09101 3.86626 6.89056 3.57874 6.89056 3.57874C6.90521 3.58175 7.55602 3.72102 7.68939 4.70374C7.68939 4.70374 7.68939 5.26675 7.68939 6.00842L7.7724 5.73694C8.04127 5.93511 8.62947 6.30834 9.02435 6.1217C9.54524 5.87526 9.7288 5.17358 9.73236 5.15979C9.73236 5.15979 9.68276 4.43909 9.46674 4.43909C9.25083 4.43879 9.23367 3.42572 10.0605 3.42542ZM8.48822 9.66663C8.85262 9.66674 9.14837 9.94652 9.14838 10.2916C9.14838 10.6367 8.85263 10.9165 8.48822 10.9166C8.12371 10.9166 7.82806 10.6368 7.82806 10.2916C7.82807 9.94646 8.12372 9.66663 8.48822 9.66663ZM11.7001 9.66663C12.0646 9.6667 12.3603 9.9465 12.3603 10.2916C12.3603 10.6368 12.0646 10.9166 11.7001 10.9166C11.3356 10.9166 11.04 10.6368 11.04 10.2916C11.04 9.94646 11.3356 9.66663 11.7001 9.66663Z" fill="#A77B3B"/>
<path d="M14.57 7.20386L15.029 7.40223L13.1592 11.7282L12.7003 11.5298L14.57 7.20386Z" fill="#FDFF00"/>
<path opacity="0.3" fill-rule="evenodd" clip-rule="evenodd" d="M7.52002 5.91675H12.8V9.73619C12.8 9.73619 11.4565 10.1409 10.16 10.8049C9.203 10.095 7.52002 9.73619 7.52002 9.73619V5.91675Z" fill="#E1E5E8"/>
<mask id="mask0_2005_208" style="mask-type:luminance" maskUnits="userSpaceOnUse" x="7" y="5" width="6" height="6">
<path fill-rule="evenodd" clip-rule="evenodd" d="M7.52002 5.91675H12.8V9.73619C12.8 9.73619 11.4565 10.1409 10.16 10.8049C9.203 10.095 7.52002 9.73619 7.52002 9.73619V5.91675Z" fill="white"/>
</mask>
<g mask="url(#mask0_2005_208)">
<rect x="7.52002" y="8.41675" width="5.28" height="2.5" fill="#3D58DB"/>
<rect x="7.52002" y="5.91675" width="5.28" height="2.5" fill="#FD1900"/>
<path fill-rule="evenodd" clip-rule="evenodd" d="M9.89335 7.04118L9.49318 7.0743L9.72398 6.76297L9.47802 6.44055L9.88023 6.49234L10.0344 6.1368L10.2059 6.49992L10.606 6.4668L10.3752 6.77813L10.6212 7.10055L10.219 7.04876L10.0648 7.4043L9.89335 7.04118Z" fill="#FDFF00"/>
<path fill-rule="evenodd" clip-rule="evenodd" d="M9.17505 6.33588C9.17505 6.33588 8.1001 6.98988 8.45842 7.45934C8.81673 7.92881 9.26778 7.98891 9.26778 7.98891C9.26778 7.98891 8.16818 9.63856 10.1035 10.581C12.1755 9.6712 11.0858 7.98891 11.0858 7.98891C11.0858 7.98891 11.7237 7.8478 11.8514 7.34019C11.9791 6.83258 11.0177 6.25037 11.0177 6.25037C11.0177 6.25037 11.6175 7.11977 11.4806 7.34019C11.3436 7.56061 10.6101 7.78502 10.1035 7.78502C9.59697 7.78502 8.81477 7.64279 8.68853 7.25762C8.56229 6.87245 9.17505 6.33588 9.17505 6.33588Z" fill="#FDFF00"/>
</g>
<path d="M6.7785 9.0769C6.77967 9.08515 6.8847 9.83644 6.45428 9.9939C6.02149 10.1516 5.37909 9.59155 5.37909 9.59155H5.83319V9.41772L6.08319 9.59155V9.41772H6.40253L6.7785 9.0769ZM6.12421 8.20776C6.12718 8.22921 6.22642 8.96771 5.79999 9.12378C5.37123 9.28063 4.7366 8.73266 4.72479 8.72241H5.17792V8.54858L5.42792 8.72241V8.54858H5.74823L6.12421 8.20776ZM5.76776 7.24976C5.76843 7.25387 5.88666 7.98117 5.39178 8.18433C4.89552 8.38797 4.36835 7.7644 4.36835 7.7644H4.82147V7.59058L5.07147 7.7644V7.59058H5.39178L5.76776 7.24976Z" fill="#048F02"/>
<path d="M8.98969 3.42212H9.27582V3.92212H8.98969V4.79419H8.48969V3.92212H8.25433V3.42212H8.48969V3.12427H8.98969V3.42212Z" fill="#FDFF00"/>
<path fill-rule="evenodd" clip-rule="evenodd" d="M9.57909 3.69226L8.42102 3.99059L9.57909 4.35653V3.69226Z" fill="#DB4400"/>
</svg>
