<svg width="107" height="54" viewBox="0 0 107 54" fill="none" xmlns="http://www.w3.org/2000/svg">
<path fill-rule="evenodd" clip-rule="evenodd" d="M16.0788 15.4772V40.6902H8.78386V15.4772H0V8.20523H28.7608C32.5167 8.22016 36.0707 9.89256 38.4724 12.767C41.6747 9.43713 46.0966 7.54075 50.7204 7.52581V14.7381C45.4007 14.7381 41.0088 19.1132 41.0088 24.4813C41.0088 26.7286 41.8019 28.9012 43.2384 30.6333C46.2013 34.2021 51.2816 35.1877 55.3668 32.9852C57.3495 31.9175 58.8983 30.1928 59.7512 28.1098H50.7204V20.8304H67.2931C67.5998 22.0175 67.742 23.2419 67.727 24.4664C67.727 33.7766 60.058 41.4218 50.7204 41.4218C43.9268 41.4218 37.9187 37.2931 35.2552 31.3725C33.3098 32.582 31.0578 33.2241 28.7608 33.2241H28.7009V40.6827H21.406V20.8304H28.7009V25.9521H28.7608C30.1375 25.9297 31.4468 25.3623 32.412 24.3842C34.4172 22.346 34.4172 19.0758 32.412 17.0376C31.4468 16.0595 30.1375 15.4921 28.7533 15.4697H16.0713L16.0788 15.4772Z" fill="#EE3827"/>
<path fill-rule="evenodd" clip-rule="evenodd" d="M85.9756 24.4813L72.9195 21.2111L89.9261 22.8761C89.4547 13.9541 85.2349 5.65183 78.2991 0C87.0829 4.25567 93.2705 13.0134 93.7643 23.2419L106.319 24.4738L93.7643 25.646C93.5324 30.5438 91.9687 35.2847 89.2452 39.3612C86.5218 43.4452 82.7359 46.7153 78.2991 48.8207C85.2424 43.2361 89.4697 34.9562 89.9261 26.0716L72.9195 27.6768L85.9756 24.4738V24.4813Z" fill="#4E65A9"/>
<path d="M8.79882 51.7624H9.18789C9.5171 51.1054 9.69666 50.299 9.69666 48.9626V48.4026H12.4874V51.7624H12.9813L12.884 53.2407H12.3004V52.3895H9.47969L9.41235 53.2407H8.79882V51.7624ZM11.7841 51.7624V49.0298H10.37V49.4852C10.37 50.411 10.2054 51.2099 9.93609 51.7624H11.7841ZM13.6172 48.4026H16.5951V49.0298H14.3056V49.9481H15.4204C16.3033 49.9481 16.8719 50.3886 16.8719 51.1576C16.8719 51.9266 16.3033 52.3895 15.3905 52.3895H13.6247V48.4026H13.6172ZM15.2333 51.7624C15.8394 51.7624 16.1686 51.6205 16.1686 51.1278C16.1686 50.7395 15.8768 50.5454 15.3531 50.5454H14.2981V51.7624H15.2333ZM19.0791 48.3728H19.73L21.4958 52.3895H20.7551L20.351 51.4264H18.4581L18.0466 52.3895H17.3208L19.0866 48.3728H19.0791ZM20.0892 50.8067L19.4008 49.209L18.7125 50.8067H20.0892ZM23.5384 50.7022H22.8799V52.3895H22.1766V48.4026H22.8799V50.075H23.5384C23.673 49.0895 24.4212 48.3354 25.4463 48.3354C26.5835 48.3354 27.3691 49.2388 27.3691 50.3961C27.3691 51.5533 26.5835 52.4567 25.4388 52.4567C24.3988 52.4567 23.6581 51.7026 23.5384 50.6947V50.7022ZM26.6658 50.3961C26.6658 49.5972 26.1645 48.97 25.4537 48.97C24.743 48.97 24.2566 49.5823 24.2566 50.3961C24.2566 51.2099 24.7579 51.8221 25.4612 51.8221C26.1645 51.8221 26.6658 51.2024 26.6658 50.3961ZM30.5714 50.8142C30.2198 51.0083 29.8307 51.1203 29.4342 51.1502C28.6486 51.1502 28.1173 50.7395 28.1173 49.8809V48.4101H28.8206V49.7167C28.8206 50.2169 29.0675 50.5155 29.5614 50.5155C29.9205 50.5081 30.2721 50.3961 30.5714 50.202V48.4101H31.2747V52.397H30.5714V50.8142ZM32.3073 48.4026H32.9956V51.3144L35.0157 48.4026H35.6741V52.3895H34.9858V49.4852L32.9657 52.3895H32.3073V48.4026ZM38.4275 48.4026H41.6897V52.3895H40.9864V49.0372H39.1308V52.3895H38.4275V48.4026ZM42.7147 48.4026H44.3009C45.2287 48.4026 45.8197 48.9327 45.8197 49.7465C45.8197 50.6425 45.1015 51.1053 44.2186 51.1053H43.418V52.3895H42.7147V48.4026ZM44.2335 50.4782C44.7648 50.4782 45.094 50.1796 45.094 49.754C45.094 49.2911 44.7573 49.0522 44.2335 49.0522H43.418V50.4857H44.2335V50.4782ZM46.3584 50.3961C46.351 49.5524 46.8522 48.7834 47.6379 48.4549C48.7003 48.0069 49.9273 48.4997 50.3837 49.5673C50.4361 49.6943 50.481 49.8287 50.5109 49.963C50.6755 50.7918 50.3239 51.6429 49.6206 52.1133C49.2764 52.3447 48.8724 52.4642 48.4534 52.4642C47.6079 52.4791 46.8448 51.9789 46.523 51.2024C46.4183 50.9486 46.3659 50.6798 46.3659 50.4035L46.3584 50.3961ZM49.8076 50.3961C49.8376 49.642 49.2465 49.0074 48.4983 48.9775C48.4833 48.9775 48.4684 48.9775 48.4534 48.9775C47.6603 48.9775 47.1066 49.6047 47.1066 50.3961C47.0767 51.1501 47.6603 51.7848 48.416 51.8146C48.4309 51.8146 48.4459 51.8146 48.4684 51.8146C49.2614 51.8146 49.8151 51.18 49.8151 50.3961H49.8076ZM52.8154 49.0522V48.4026H56.0626V49.0522H54.7981V52.3895H54.0948V49.0522H52.8154ZM59.7737 48.4026V49.0298H57.5141V50.0601H59.5193V50.6872H57.5141V51.7549H59.8036V52.3821H56.8033V48.4026H59.7737ZM60.6416 48.4026H63.6269V49.0298H61.3374V49.9481H62.4522C63.3351 49.9481 63.9037 50.3886 63.9037 51.1576C63.9037 51.9266 63.3351 52.3895 62.4223 52.3895H60.649V48.4026H60.6416ZM62.2577 51.7624C62.8637 51.7624 63.1929 51.6205 63.1929 51.1278C63.1929 50.7395 62.9011 50.5454 62.3774 50.5454H61.3224V51.7624H62.2577ZM67.6597 48.4026V49.0298H65.4001V50.0601H67.4053V50.6872H65.4001V51.7549H67.6896V52.3821H64.6893V48.4026H67.6597Z" fill="#4E65A9"/>
</svg>
