<svg width="129" height="72" viewBox="0 0 129 72" fill="none" xmlns="http://www.w3.org/2000/svg">
<path d="M36.0897 34.4266C36.0744 34.396 36.0438 34.3654 36.0209 34.3348C35.9596 34.2735 35.8831 34.2353 35.7913 34.22C35.7607 34.22 35.7377 34.2276 35.7071 34.2276C35.3628 34.3194 34.2838 34.9929 33.3962 35.3219C32.2484 35.7351 30.3277 36.1943 30.3047 36.2019C30.2435 36.2249 30.1976 36.2632 30.1823 36.355C30.1746 36.4239 30.2359 36.508 30.2512 36.5233C31.1312 37.5564 32.256 38.49 33.2202 38.5971C34.1997 38.7043 35.0031 38.6277 35.7301 38.2834C36.3958 37.962 38.0104 36.8065 37.337 35.9724C36.9315 35.4673 36.4723 34.9163 36.0897 34.4266Z" fill="#3DC1D0"/>
<path d="M22.9756 10.9879C23.7485 10.9649 24.1693 10.0696 23.6949 9.45741L21.9655 7.23056C21.5982 6.75612 21.0396 6.47298 20.4504 6.46533C13.7395 6.41941 7.25816 4.2997 0.998734 0.0985492C0.570215 -0.184589 0.0192636 0.182725 0.111089 0.687782C0.937517 5.30217 8.10754 10.8425 22.9756 10.9879Z" fill="#3DC1D0"/>
<path d="M28.2148 16.7497C28.5744 16.6885 28.7428 16.2676 28.5285 15.9692L26.2712 12.9389C26.1028 12.7093 25.8197 12.5945 25.5442 12.6328C17.5324 13.7041 9.34469 12.5256 0.690152 7.20723C0.353459 7.00062 -0.0674074 7.29141 0.0091137 7.67403C2.00631 17.3925 15.8719 18.7547 28.2148 16.7497Z" fill="#3DC1D0"/>
<path d="M32.2819 21.6786C32.5804 21.5408 32.6645 21.1659 32.4656 20.9057L30.4072 18.2503C30.2312 18.0207 29.9251 17.9213 29.6419 18.0054C21.4236 20.4083 13.7485 20.5537 4.9792 17.2938C4.59659 17.156 4.26755 17.5693 4.4665 17.9213C8.6369 25.0609 22.0128 25.1145 32.2819 21.6786Z" fill="#3DC1D0"/>
<path d="M35.6916 26.361C36.0512 26.1773 36.1507 25.6952 35.8982 25.3815L34.5132 23.6138C34.3218 23.3689 33.9852 23.2847 33.6944 23.3995C26.6927 26.2768 19.5227 26.9885 11.5262 25.2055C11.1742 25.1289 10.9294 25.5498 11.1742 25.8177C16.5919 31.6717 30.205 29.1847 35.6916 26.361Z" fill="#3DC1D0"/>
<path d="M39.0583 29.4841L37.8033 27.7929C37.5967 27.5098 37.2141 27.418 36.9004 27.571C32.2785 29.729 27.7102 31.2059 19.8821 31.0911C19.4995 31.0835 19.3311 31.5885 19.6602 31.8028C27.4194 36.8151 35.9515 32.9124 38.9435 30.456C39.2343 30.2111 39.2878 29.7902 39.0583 29.4841Z" fill="#3DC1D0"/>
<path d="M39.091 33.4851C38.211 34.1279 38.035 35.3676 38.7007 36.2323L41.3254 39.5993C42.6798 37.1812 43.1007 34.7248 40.8969 32.1765L39.091 33.4851Z" fill="#3DC1D0"/>
<path d="M69.3869 19.8877L98.1741 31.9631C101.924 33.3559 104.839 33.815 106.171 32.5294L100.569 29.9812L100.072 30.6622C99.7581 31.0831 99.1613 31.1749 98.7404 30.8688C98.3195 30.5551 98.2277 29.9582 98.5338 29.5373L98.7939 29.1853L98.8781 29.2236L96.0545 27.938L95.5035 28.6956C95.1898 29.1165 94.5929 29.2083 94.1721 28.9022C93.7512 28.5884 93.6594 27.9915 93.9655 27.5707L94.2792 27.1421L91.8688 26.0478L91.2796 26.8513C90.9658 27.2722 90.369 27.3641 89.9481 27.058C89.5272 26.7442 89.4354 26.1473 89.7415 25.7264L90.0935 25.252L87.3234 23.997L87.3923 24.0276L86.7189 24.9459C86.4052 25.3668 85.8083 25.4586 85.3875 25.1525C84.9666 24.8388 84.8748 24.2419 85.1808 23.821L85.617 23.2241L83.1148 22.0916L82.4031 23.0634C82.0894 23.4843 81.4925 23.5761 81.0717 23.27C80.6508 22.9563 80.559 22.3594 80.8651 21.9385L81.3395 21.2881L78.4164 19.9566L78.4929 19.9872L77.6665 21.0661C77.3527 21.487 76.7559 21.5789 76.335 21.2728C75.9141 20.959 75.8223 20.3621 76.1284 19.9412L76.7023 19.1531L74.9729 18.3649C72.7309 17.6532 70.8178 17.6608 69.2874 18.5179C68.7365 18.824 68.7977 19.6428 69.3869 19.8877Z" fill="#3DC1D0"/>
<path d="M123.033 38.9809C122.902 38.6365 122.535 38.4376 122.175 38.4988C113.842 39.9757 106.267 42.3479 100.214 46.572C100.084 46.6639 99.9308 46.7098 99.7777 46.7098H49.159C43.8944 46.7098 42.8001 46.0746 39.0812 40.343C38.9052 40.1747 38.668 40.0905 38.4231 40.1287C37.8722 40.2129 37.5967 40.8175 37.8798 41.2996C39.02 43.2203 39.6475 45.3018 39.6628 47.5975C39.6628 48.0184 40.0148 48.3551 40.4356 48.3551H100.03C106.282 48.6305 112.633 47.299 119.061 44.988C122.749 43.5264 123.997 41.5062 123.033 38.9809Z" fill="#3DC1D0"/>
<path d="M39.5126 11.9137C40.844 11.6765 41.1884 13.3217 40.0635 13.5819C37.3241 14.0257 34.2097 14.1558 30.2994 13.8344C29.9168 13.8038 29.7179 14.2936 30.024 14.5231C33.7429 17.3009 37.7985 17.8366 41.3185 17.4157C43.0096 17.1326 43.507 18.9692 41.9307 19.2753C39.811 19.4513 37.4389 19.4513 34.6688 19.2217C34.2862 19.1911 34.0872 19.6808 34.3933 19.9104C37.2399 22.0301 40.2778 22.8489 43.132 22.9254V22.9331C44.4788 22.9331 44.8155 24.3794 43.6753 24.5554C42.099 24.6013 40.3773 24.5554 38.4719 24.3947C38.0893 24.3641 37.8903 24.8538 38.1964 25.0834C39.9641 26.4073 41.8082 27.2184 43.6447 27.6623C44.2645 27.8612 44.9226 28.0219 45.6343 28.1444C46.3689 28.2745 46.3536 29.2616 45.7491 29.4682C44.6778 29.4529 43.5452 29.3994 42.3286 29.2999C41.946 29.2693 41.747 29.759 42.0531 29.9886C42.4051 30.2564 42.7647 30.486 43.1244 30.7156C43.132 30.7232 43.132 30.7232 43.1397 30.7309C50.4245 38.146 36.819 44.2756 48.3814 44.9872C48.389 44.9872 48.389 44.9872 48.3967 44.9872H98.9848C99.0383 44.9872 99.0843 44.9719 99.1302 44.9413C104.739 41.0769 112.904 39.049 121.367 37.0747C121.857 36.9599 122.033 36.3554 121.689 35.9881C119.837 34.0367 114.197 33.4092 108.787 33.1261C108.688 33.1184 108.603 33.172 108.55 33.2562C105.298 38.3986 78.6608 24.6625 69.1492 21.6475C67.5729 21.1501 65.8358 21.4715 64.5809 22.5428C57.0283 28.9632 47.0882 27.3715 50.1643 19.2829C50.6158 18.0891 50.4551 16.75 49.6746 15.7399C48.0676 13.6661 45.4047 10.2302 43.9891 8.40123C43.6218 7.92679 43.1167 7.59008 42.5581 7.43703V7.44469C42.428 7.39112 42.2826 7.36816 42.1296 7.39877C37.1328 8.42419 32.3502 8.79916 24.7593 6.87076C24.3844 6.77893 24.1089 7.23042 24.3767 7.50591C29.0215 12.3728 35.1662 12.7325 39.5126 11.9137Z" fill="#3DC1D0"/>
<path d="M24.5027 71.7778H33.1572V69.176H27.4028V66.9645H33.0348V64.3627H27.4028V62.3348H33.1572V59.7253H24.5027V71.7778Z" fill="#3DC1D0"/>
<path d="M43.9383 66.8421C43.9383 68.449 43.0277 69.3673 41.4284 69.3673C39.8445 69.3673 38.9033 68.4261 38.9033 66.8421V59.7253H35.9648V66.9262C35.9648 70.0943 38.008 71.9844 41.4208 71.9844C44.8872 71.9844 46.8768 70.1326 46.8768 66.9109V59.7253H43.923V66.8421H43.9383Z" fill="#3DC1D0"/>
<path d="M59.8317 63.6897C59.8317 61.3174 58.1789 59.7334 55.7149 59.7334H50.0676V71.7859H52.9678V67.6536H54.4446L56.725 71.7859H60.0613L57.3983 67.2786C58.5768 66.8807 59.8317 65.7558 59.8317 63.6897ZM52.9601 62.3352H55.3476C56.2658 62.3352 56.878 62.8785 56.878 63.6897C56.878 64.5008 56.2658 65.0442 55.3476 65.0442H52.9601V62.3352Z" fill="#3DC1D0"/>
<path d="M68.2838 59.5342C64.649 59.5342 62.009 62.1513 62.009 65.7632C62.009 69.3675 64.649 71.9923 68.2838 71.9923C71.9338 71.9923 74.5815 69.3751 74.5815 65.7632C74.5815 62.1513 71.9338 59.5342 68.2838 59.5342ZM68.2838 69.3675C66.3325 69.3675 64.9781 67.8829 64.9781 65.7632C64.9781 63.6435 66.3401 62.1589 68.2838 62.1589C70.2427 62.1589 71.6124 63.6435 71.6124 65.7632C71.6124 67.8829 70.2427 69.3675 68.2838 69.3675Z" fill="#3DC1D0"/>
<path d="M76.0865 62.3348H79.4841V71.7778H82.3995V62.3348H85.7818V59.7253H76.0865V62.3348Z" fill="#3DC1D0"/>
<path d="M98.0192 63.6897C98.0192 61.3174 96.3664 59.7334 93.9024 59.7334H88.2551V71.7859H91.1553V67.6536H92.6321L94.9125 71.7859H98.2488L95.5858 67.2786C96.7643 66.8807 98.0192 65.7558 98.0192 63.6897ZM91.1553 62.3352H93.5427C94.461 62.3352 95.0732 62.8785 95.0732 63.6897C95.0732 64.5008 94.461 65.0442 93.5427 65.0442H91.1553V62.3352Z" fill="#3DC1D0"/>
<path d="M103.669 59.7253H100.768V71.7778H103.669V59.7253Z" fill="#3DC1D0"/>
<path d="M112.487 59.7253H106.84V71.7778H109.74V67.6456H112.487C114.913 67.6456 116.604 66.0156 116.604 63.6893C116.604 61.715 115.334 59.7253 112.487 59.7253ZM109.74 62.3348H112.158C113.069 62.3348 113.65 62.8705 113.65 63.6893C113.65 64.5004 113.046 65.0437 112.158 65.0437H109.74V62.3348Z" fill="#3DC1D0"/>
<path d="M123.702 64.1639C122.555 63.8884 121.567 63.6512 121.567 63.0925C121.567 62.4956 122.103 62.136 123.014 62.136C124.238 62.136 125.416 62.5798 126.251 63.3527L126.419 63.5134L128.056 61.3631L127.911 61.233C126.71 60.1234 125.133 59.5571 123.236 59.5571C120.557 59.5571 118.614 61.1335 118.614 63.3068C118.614 66.0693 121.177 66.6815 123.052 67.1253C124.261 67.4161 125.309 67.661 125.309 68.3268C125.309 68.8624 124.751 69.4057 123.503 69.4057C121.675 69.4057 120.504 68.4645 119.961 67.9059L119.785 67.7222L118.193 69.9567L118.315 70.0868C119.547 71.3341 121.3 71.9999 123.381 71.9999C126.381 71.9999 128.248 70.4924 128.248 68.0589C128.24 65.2505 125.623 64.623 123.702 64.1639Z" fill="#3DC1D0"/>
</svg>
