<svg width="191" height="36" viewBox="0 0 191 36" fill="none" xmlns="http://www.w3.org/2000/svg">
<path d="M66.0275 9.90369C68.7838 9.90369 71.0183 7.68668 71.0183 4.95185C71.0183 2.21702 68.7838 0 66.0275 0C63.2712 0 61.0367 2.21702 61.0367 4.95185C61.0367 7.68668 63.2712 9.90369 66.0275 9.90369Z" fill="#0064CE"/>
<path fill-rule="evenodd" clip-rule="evenodd" d="M3.64873 32.4629C6.08121 34.821 9.46428 36 13.7981 36C18.1318 36 21.5149 34.821 23.9473 32.4629C26.3798 30.1049 27.5961 26.7621 27.5961 22.4344V6.28891H19.4179V22.1847C19.4179 24.6815 18.9286 26.4708 17.95 27.5527C16.9714 28.6347 15.6154 29.1756 13.8819 29.1756C12.1484 29.1756 10.7784 28.6347 9.77188 27.5527C8.79325 26.4708 8.30398 24.6815 8.30398 22.1847V6.28891H0V22.4344C0 26.7621 1.21624 30.1049 3.64873 32.4629ZM52.4298 13.5711C51.0038 12.8497 49.4101 12.4891 47.6486 12.4891C45.7474 12.4891 44.0419 12.9053 42.532 13.7375C41.7459 14.1564 41.0469 14.6881 40.4351 15.3327V12.8636H32.8441V35.7568H40.8126V24.5151C40.8126 23.2667 41.0083 22.2541 41.3997 21.4773C41.7911 20.7006 42.3363 20.1319 43.0354 19.7713C43.7343 19.3829 44.5032 19.1887 45.342 19.1887C46.5163 19.1887 47.425 19.5632 48.068 20.3122C48.7391 21.0335 49.0746 22.1986 49.0746 23.8076V35.7829H57.043V22.5177C57.043 20.1874 56.6237 18.2871 55.7849 16.8168C54.9741 15.3465 53.8557 14.2646 52.4298 13.5711ZM62.046 35.8231V12.8636H70.0145V35.8231H62.046ZM78.5482 33.6697C80.1701 35.0845 82.4348 35.7919 85.3424 35.7919C86.4045 35.7919 87.4254 35.681 88.4037 35.4591C89.3827 35.2649 90.2072 34.9458 90.8781 34.5019L88.9068 28.9675C88.236 29.4391 87.4254 29.6749 86.4744 29.6749C85.7756 29.6749 85.2026 29.453 84.7554 29.0091C84.3075 28.5375 84.0839 27.8995 84.0839 27.095V19.6048H89.2848V13.6959H84.0839V7.83367L76.1158 10.713V13.6959H72.8023V19.6048H76.1158V27.1782C76.1158 30.0633 76.9264 32.2271 78.5482 33.6697Z" fill="black"/>
<path d="M99.9662 16.1925C99.9662 11.8167 103.541 8.26953 107.952 8.26953H190.798V28.0769C190.798 32.4527 187.223 35.9999 182.813 35.9999H99.9662V16.1925Z" fill="black"/>
<path d="M114.394 28.0771V18.8582H110.944V16.1927H121.003V18.8582H117.57V28.0771H114.394Z" fill="white"/>
<path d="M122.669 28.0771V16.1927H127.802C128.829 16.1927 129.712 16.3681 130.45 16.719C131.198 17.0699 131.775 17.5792 132.182 18.247C132.589 18.9035 132.792 19.6845 132.792 20.5899C132.792 21.4841 132.589 22.2594 132.182 22.9159C131.775 23.5611 131.198 24.0591 130.45 24.4099C129.712 24.7495 128.829 24.9193 127.802 24.9193H124.433L125.845 23.5101V28.0771H122.669ZM129.615 28.0771L126.823 23.7478H130.209L133.017 28.0771H129.615ZM125.845 23.8667L124.433 22.3217H127.61C128.273 22.3217 128.765 22.1689 129.085 21.8633C129.417 21.5577 129.583 21.1333 129.583 20.5899C129.583 20.0353 129.417 19.6053 129.085 19.2997C128.765 18.9941 128.273 18.8413 127.61 18.8413H124.433L125.845 17.2963V23.8667Z" fill="white"/>
<path d="M133.678 28.0771L138.635 16.1927H141.764L146.737 28.0771H143.432L139.55 17.8395H140.801L136.918 28.0771H133.678ZM136.389 25.7682L137.207 23.2894H142.694L143.512 25.7682H136.389Z" fill="white"/>
<path d="M150.941 28.0771L146.144 16.1927H149.578L153.621 26.4813H151.599L155.738 16.1927H158.883L154.07 28.0771H150.941Z" fill="white"/>
<path d="M162.942 20.7937H168.156V23.3064H162.942V20.7937ZM163.166 25.4795H169.038V28.0771H160.021V16.1927H168.829V18.7903H163.166V25.4795Z" fill="white"/>
<path d="M171.282 28.0771V16.1927H174.459V25.4117H179.818V28.0771H171.282Z" fill="white"/>
</svg>
