<svg xmlns="http://www.w3.org/2000/svg" xmlns:xlink="http://www.w3.org/1999/xlink"><defs>
<clipPath id="clip0_2005_114">
<rect width="20" height="15" fill="white"/>
</clipPath>

<clipPath id="clip0_2005_181">
<rect width="20" height="15" fill="white"/>
</clipPath>

<clipPath id="clip0_2005_409">
<rect width="20" height="15" fill="white"/>
</clipPath>

<clipPath id="clip0_2005_21">
<rect width="20" height="15" fill="white"/>
</clipPath>

<clipPath id="clip0_2005_96">
<rect width="20" height="15" fill="white"/>
</clipPath>
</defs><symbol id="icon-austria" viewBox="0 0 20 15"><g fill="none">
<rect width="20" height="15" fill="white"/>
<path fill-rule="evenodd" clip-rule="evenodd" d="M2 2V14H18V2H2Z" fill="#F7FCFF"/>
<mask id="mask0_2005_124" style="mask-type:luminance" maskUnits="userSpaceOnUse" x="2" y="2" width="16" height="12">
<path fill-rule="evenodd" clip-rule="evenodd" d="M2 2V14H18V2H2Z" fill="white"/>
</mask>
<g mask="url(#mask0_2005_124)">
<path fill-rule="evenodd" clip-rule="evenodd" d="M2 2V6H18V2H2Z" fill="#C51918"/>
<path fill-rule="evenodd" clip-rule="evenodd" d="M2 10V14H18V10H2Z" fill="#C51918"/>
</g>
</g></symbol><symbol id="icon-belgium" viewBox="0 0 20 15"><g fill="none">
<g clip-path="url(#clip0_2005_114)">
<rect width="20" height="15" fill="white"/>
<path fill-rule="evenodd" clip-rule="evenodd" d="M6 0H14V15H6V0Z" fill="#FECA00"/>
<path fill-rule="evenodd" clip-rule="evenodd" d="M14 0H20V15H14V0Z" fill="#E31D1C"/>
<path fill-rule="evenodd" clip-rule="evenodd" d="M0 0H6V15H0V0Z" fill="#1D1D1D"/>
</g>

</g></symbol><symbol id="icon-book" viewBox="0 0 52 47"><g fill="none">
<path d="M25.6667 44.3333V11.6666M25.6667 44.3333C25.6667 42.4767 24.9292 40.6963 23.6164 39.3835C22.3037 38.0707 20.5232 37.3333 18.6667 37.3333H4.66666C4.04782 37.3333 3.45433 37.0874 3.01675 36.6498C2.57916 36.2122 2.33333 35.6188 2.33333 34.9999V4.66659C2.33333 4.04775 2.57916 3.45425 3.01675 3.01667C3.45433 2.57908 4.04782 2.33325 4.66666 2.33325H16.3333C18.8087 2.33325 21.1827 3.31658 22.933 5.06692C24.6833 6.81726 25.6667 9.19123 25.6667 11.6666M25.6667 44.3333C25.6667 42.4767 26.4042 40.6963 27.7169 39.3835C29.0297 38.0707 30.8101 37.3333 32.6667 37.3333H46.6667C47.2855 37.3333 47.879 37.0874 48.3166 36.6498C48.7542 36.2122 49 35.6188 49 34.9999V31.9666M25.6667 11.6666C25.6667 9.19123 26.65 6.81726 28.4003 5.06692C30.1507 3.31658 32.5246 2.33325 35 2.33325H46.6667C47.2855 2.33325 47.879 2.57908 48.3166 3.01667C48.7542 3.45425 49 4.04775 49 4.66659V9.33325M35 23.3333L39.6667 27.9999L49 18.6666" stroke="#0D0F10" stroke-width="4.66667" stroke-linecap="round" stroke-linejoin="round"/>
</g></symbol><symbol id="icon-british" viewBox="0 0 20 15"><g fill="none">
<g clip-path="url(#clip0_2005_181)">
<rect width="20" height="15" fill="white"/>
<path fill-rule="evenodd" clip-rule="evenodd" d="M0 0V15H20V0H0Z" fill="#2E42A5"/>
<mask id="mask0_2005_181" style="mask-type:luminance" maskUnits="userSpaceOnUse" x="0" y="0" width="20" height="15">
<path fill-rule="evenodd" clip-rule="evenodd" d="M0 0V15H20V0H0Z" fill="white"/>
</mask>
<g mask="url(#mask0_2005_181)">
<path d="M-2.22699 13.9284L2.17407 15.7897L20.0998 2.02366L22.4213 -0.742266L17.715 -1.36436L10.4035 4.56781L4.5185 8.5647L-2.22699 13.9284Z" fill="white"/>
<path d="M-1.62445 15.2325L0.617684 16.3126L21.5877 -0.999216H18.4395L-1.62445 15.2325Z" fill="#F50100"/>
<path d="M22.2269 13.9284L17.8259 15.7897L-0.0999012 2.02366L-2.42136 -0.742266L2.28494 -1.36436L9.59643 4.56781L15.4814 8.5647L22.2269 13.9284Z" fill="white"/>
<path d="M22.0768 14.8643L19.8346 15.9445L10.9054 8.53236L8.25806 7.70422L-2.64471 -0.732773H0.50351L11.4002 7.50397L14.2945 8.49699L22.0768 14.8643Z" fill="#F50100"/>
<mask id="path-7-inside-1_2005_181" fill="white">
<path d="M12.3609 5H21.2672V10H12.3609V16.25H7.63922V10H-1.23285V5H7.63922V-1.25H12.3609V5Z"/>
</mask>
<path d="M12.3609 5H21.2672V10H12.3609V16.25H7.63922V10H-1.23285V5H7.63922V-1.25H12.3609V5Z" fill="#F50100"/>
<path d="M12.3609 5H11.1109V6.25H12.3609V5ZM21.2672 5H22.5172V3.75H21.2672V5ZM21.2672 10V11.25H22.5172V10H21.2672ZM12.3609 10V8.75H11.1109V10H12.3609ZM12.3609 16.25V17.5H13.6109V16.25H12.3609ZM7.63922 16.25H6.38922V17.5H7.63922V16.25ZM7.63922 10H8.88922V8.75H7.63922V10ZM-1.23285 10H-2.48285V11.25H-1.23285V10ZM-1.23285 5V3.75H-2.48285V5H-1.23285ZM7.63922 5V6.25H8.88922V5H7.63922ZM7.63922 -1.25V-2.5H6.38922V-1.25H7.63922ZM12.3609 -1.25H13.6109V-2.5H12.3609V-1.25ZM12.3609 5V6.25H21.2672V5V3.75H12.3609V5ZM21.2672 5H20.0172V10H21.2672H22.5172V5H21.2672ZM21.2672 10V8.75H12.3609V10V11.25H21.2672V10ZM12.3609 10H11.1109V16.25H12.3609H13.6109V10H12.3609ZM12.3609 16.25V15H7.63922V16.25V17.5H12.3609V16.25ZM7.63922 16.25H8.88922V10H7.63922H6.38922V16.25H7.63922ZM7.63922 10V8.75H-1.23285V10V11.25H7.63922V10ZM-1.23285 10H0.0171509V5H-1.23285H-2.48285V10H-1.23285ZM-1.23285 5V6.25H7.63922V5V3.75H-1.23285V5ZM7.63922 5H8.88922V-1.25H7.63922H6.38922V5H7.63922ZM7.63922 -1.25V0H12.3609V-1.25V-2.5H7.63922V-1.25ZM12.3609 -1.25H11.1109V5H12.3609H13.6109V-1.25H12.3609Z" fill="white" mask="url(#path-7-inside-1_2005_181)"/>
</g>
</g>

</g></symbol><symbol id="icon-bulgaria" viewBox="0 0 20 15"><g fill="none">
<rect width="20" height="15" fill="white"/>
<path fill-rule="evenodd" clip-rule="evenodd" d="M2 2V14H18V2H2Z" fill="#5EAA22"/>
<mask id="mask0_2005_265" style="mask-type:luminance" maskUnits="userSpaceOnUse" x="2" y="2" width="16" height="12">
<path fill-rule="evenodd" clip-rule="evenodd" d="M2 2V14H18V2H2Z" fill="white"/>
</mask>
<g mask="url(#mask0_2005_265)">
<path fill-rule="evenodd" clip-rule="evenodd" d="M2 2V6H18V2H2Z" fill="#F7FCFF"/>
<path fill-rule="evenodd" clip-rule="evenodd" d="M2 10V14H18V10H2Z" fill="#E22C18"/>
</g>
</g></symbol><symbol id="icon-checkList" viewBox="0 0 47 38"><g fill="none">
<path d="M2.33331 30.3333L6.99998 34.9999L16.3333 25.6666M25.6666 4.66658H44.3333M25.6666 18.6666H44.3333M25.6666 32.6666H44.3333M4.66665 2.33325H14C15.2886 2.33325 16.3333 3.37792 16.3333 4.66659V13.9999C16.3333 15.2886 15.2886 16.3333 14 16.3333H4.66665C3.37798 16.3333 2.33331 15.2886 2.33331 13.9999V4.66659C2.33331 3.37792 3.37798 2.33325 4.66665 2.33325Z" stroke="#0D0F10" stroke-width="4.66667" stroke-linecap="round" stroke-linejoin="round"/>
</g></symbol><symbol id="icon-close" viewBox="0 0 18 18"><g fill="none">
<path d="M2.56066 0.43934C1.97487 -0.146447 1.02513 -0.146447 0.43934 0.43934C-0.146446 1.02513 -0.146446 1.97487 0.439341 2.56066L6.8033 8.92462L0.43934 15.2886C-0.146447 15.8744 -0.146446 16.8241 0.43934 17.4099C1.02513 17.9957 1.97487 17.9957 2.56066 17.4099L8.92462 11.0459L15.2886 17.4099C15.8744 17.9957 16.8241 17.9957 17.4099 17.4099C17.9957 16.8241 17.9957 15.8744 17.4099 15.2886L11.0459 8.92462L17.4099 2.56066C17.9957 1.97487 17.9957 1.02513 17.4099 0.43934C16.8241 -0.146447 15.8744 -0.146446 15.2886 0.43934L8.92462 6.8033L2.56066 0.43934Z" fill="#8F9397"/>
</g></symbol><symbol id="icon-country-other" viewBox="0 0 20 15"><g fill="none">
<path fill-rule="evenodd" clip-rule="evenodd" d="M0 0V15H20V0H0Z" fill="white"/>
<path d="M7.54527 3.14044C7.793 2.57664 8.15247 2.06962 8.60181 1.64857C7.57443 1.896 6.63043 2.41033 5.86538 3.14044H7.54527Z" fill="#0D85FF"/>
<path d="M7.54527 11.8596H5.86534C6.63041 12.5897 7.57441 13.104 8.60177 13.3514C8.15243 12.9304 7.79302 12.4234 7.54527 11.8596Z" fill="#0D85FF"/>
<path d="M9.79277 13.5V11.8597H8.02542C8.49986 12.7878 9.11757 13.3954 9.79277 13.5Z" fill="#0D85FF"/>
<path d="M11.9746 11.8596H10.2072V13.4999C10.8824 13.3952 11.5002 12.7876 11.9746 11.8596Z" fill="#0D85FF"/>
<path d="M10.2073 1.5V3.14032H11.9746C11.5002 2.21225 10.8825 1.60465 10.2073 1.5Z" fill="#0D85FF"/>
<path d="M9.79277 7.70768H7.10319C7.10966 8.98782 7.3566 10.2559 7.83182 11.4442H9.79267L9.79277 7.70768Z" fill="#0D85FF"/>
<path d="M10.2073 11.4442H12.1681C12.6434 10.2557 12.8903 8.9878 12.8968 7.70768H10.2072L10.2073 11.4442Z" fill="#0D85FF"/>
<path d="M9.79277 1.5C9.11757 1.60465 8.49984 2.21227 8.02542 3.14032H9.79277V1.5Z" fill="#0D85FF"/>
<path d="M12.4548 3.14044H14.1347C13.3696 2.41033 12.4257 1.896 11.3991 1.64857C11.8477 2.0696 12.207 2.57664 12.4548 3.14044Z" fill="#0D85FF"/>
<path d="M12.1682 3.5558H10.2073V7.29232H12.8969C12.8904 6.01218 12.6434 4.74412 12.1682 3.5558Z" fill="#0D85FF"/>
<path d="M9.79277 3.5558H7.83193C7.35669 4.74427 7.10976 6.0122 7.10329 7.29232H9.79288L9.79277 3.5558Z" fill="#0D85FF"/>
<path d="M14.5313 3.5558H12.6344C13.0789 4.75156 13.308 6.01636 13.3112 7.29232H16C15.9539 5.91484 15.4356 4.59501 14.5313 3.5558Z" fill="#0D85FF"/>
<path d="M7.36558 11.4442C6.92111 10.2484 6.69199 8.98365 6.68876 7.70768H4C4.04615 9.08516 4.5643 10.405 5.46861 11.4442H7.36558Z" fill="#0D85FF"/>
<path d="M4.00012 7.29232H6.68888C6.69212 6.01625 6.92124 4.7516 7.3657 3.5558H5.46882C4.56449 4.59499 4.04626 5.9148 4.00012 7.29232Z" fill="#0D85FF"/>
<path d="M15.9999 7.70768H13.3112C13.3079 8.98375 13.0788 10.2484 12.6344 11.4442H14.5312C15.4356 10.405 15.9538 9.0852 15.9999 7.70768Z" fill="#0D85FF"/>
<path d="M12.4548 11.8596C12.2071 12.4234 11.8476 12.9304 11.3991 13.3514C12.4256 13.104 13.3696 12.5897 14.1347 11.8596H12.4548Z" fill="#0D85FF"/>
</g></symbol><symbol id="icon-czech" viewBox="0 0 20 15"><g fill="none">
<g clip-path="url(#clip0_2005_409)">
<rect width="20" height="15" fill="white"/>
<path fill-rule="evenodd" clip-rule="evenodd" d="M0 0V15H20V0H0Z" fill="#E31D1C"/>
<mask id="mask0_2005_409" style="mask-type:luminance" maskUnits="userSpaceOnUse" x="0" y="0" width="20" height="15">
<path fill-rule="evenodd" clip-rule="evenodd" d="M0 0V15H20V0H0Z" fill="white"/>
</mask>
<g mask="url(#mask0_2005_409)">
<path fill-rule="evenodd" clip-rule="evenodd" d="M0 -1.25V7.5H20V-1.25H0Z" fill="#F7FCFF"/>
</g>
<path fill-rule="evenodd" clip-rule="evenodd" d="M0 0V15L11.25 7.5L0 0Z" fill="#3D58DB"/>
<mask id="mask1_2005_409" style="mask-type:luminance" maskUnits="userSpaceOnUse" x="0" y="0" width="12" height="15">
<path fill-rule="evenodd" clip-rule="evenodd" d="M0 0V15L11.25 7.5L0 0Z" fill="white"/>
</mask>
<g mask="url(#mask1_2005_409)">
</g>
</g>

</g></symbol><symbol id="icon-desktop" viewBox="0 0 52 47"><g fill="none">
<path d="M28 2.33325H6.99998C5.7623 2.33325 4.57532 2.82492 3.70015 3.70009C2.82498 4.57526 2.33331 5.76224 2.33331 6.99992V30.3333C2.33331 31.5709 2.82498 32.7579 3.70015 33.6331C4.57532 34.5083 5.7623 34.9999 6.99998 34.9999H44.3333C45.571 34.9999 46.758 34.5083 47.6331 33.6331C48.5083 32.7579 49 31.5709 49 30.3333V23.3333M16.3333 44.3333H35M25.6666 34.9999V44.3333M37.3333 13.9999L49 2.33325M49 2.33325H37.3333M49 2.33325V13.9999" stroke="black" stroke-width="4.66667" stroke-linecap="round" stroke-linejoin="round"/>
</g></symbol><symbol id="icon-doodleMen" viewBox="0 0 33 42"><g fill="none">
<path d="M9.33398 39.6666L16.334 25.6666M16.334 25.6666L23.334 39.6666M16.334 25.6666V16.3333M2.33398 11.6666L16.334 16.3333M16.334 16.3333L30.334 11.6666M18.6673 4.66659C18.6673 5.95525 17.6226 6.99992 16.334 6.99992C15.0453 6.99992 14.0007 5.95525 14.0007 4.66659C14.0007 3.37792 15.0453 2.33325 16.334 2.33325C17.6226 2.33325 18.6673 3.37792 18.6673 4.66659Z" stroke="#0D0F10" stroke-width="4.66667" stroke-linecap="round" stroke-linejoin="round"/>
</g></symbol><symbol id="icon-germany" viewBox="0 0 20 15"><g fill="none">
<g clip-path="url(#clip0_2005_21)">
<rect width="20" height="15" fill="white"/>
<path fill-rule="evenodd" clip-rule="evenodd" d="M0 10H20V15H0V10Z" fill="#FFD018"/>
<path fill-rule="evenodd" clip-rule="evenodd" d="M0 5H20V10H0V5Z" fill="#E31D1C"/>
<path fill-rule="evenodd" clip-rule="evenodd" d="M0 0H20V5H0V0Z" fill="#272727"/>
</g>

</g></symbol><symbol id="icon-giveCoins" viewBox="0 0 52 52"><g fill="none">
<path d="M23.3333 32.6666H28C29.2377 32.6666 30.4246 32.1749 31.2998 31.2997C32.175 30.4246 32.6666 29.2376 32.6666 27.9999C32.6666 26.7622 32.175 25.5753 31.2998 24.7001C30.4246 23.8249 29.2377 23.3333 28 23.3333H21C19.6 23.3333 18.4333 23.7999 17.7333 24.7333L4.66665 37.3332M14 46.6666L17.7333 43.3999C18.4333 42.4666 19.6 41.9999 21 41.9999H30.3333C32.9 41.9999 35.2333 41.0666 36.8666 39.1999L47.6 28.9333C48.5004 28.0823 49.0259 26.9086 49.0609 25.6702C49.0959 24.4319 48.6375 23.2303 47.7866 22.3299C46.9357 21.4295 45.762 20.904 44.5236 20.869C43.2853 20.834 42.0837 21.2923 41.1833 22.1433L31.3833 31.2433M2.33331 34.9999L16.3333 48.9999M41.7666 18.6666C41.7666 22.4037 38.7371 25.4333 35 25.4333C31.2629 25.4333 28.2333 22.4037 28.2333 18.6666C28.2333 14.9295 31.2629 11.8999 35 11.8999C38.7371 11.8999 41.7666 14.9295 41.7666 18.6666ZM18.6666 9.33325C18.6666 13.1992 15.5326 16.3333 11.6666 16.3333C7.80065 16.3333 4.66665 13.1992 4.66665 9.33325C4.66665 5.46726 7.80065 2.33325 11.6666 2.33325C15.5326 2.33325 18.6666 5.46726 18.6666 9.33325Z" stroke="#0D0F10" stroke-width="4.66667" stroke-linecap="round" stroke-linejoin="round"/>
</g></symbol><symbol id="icon-giveHeart" viewBox="0 0 52 48"><g fill="none">
<path d="M23.3333 28.5605H28C29.2377 28.5605 30.4246 28.0688 31.2998 27.1936C32.175 26.3185 32.6666 25.1315 32.6666 23.8938C32.6666 22.6561 32.175 21.4691 31.2998 20.594C30.4246 19.7188 29.2377 19.2271 28 19.2271H21C19.6 19.2271 18.4333 19.6938 17.7333 20.6271L4.66665 33.2271M14 42.5605L17.7333 39.2938C18.4333 38.3605 19.6 37.8938 21 37.8938H30.3333C32.9 37.8938 35.2333 36.9605 36.8666 35.0938L47.6 24.8271C48.5004 23.9762 49.0259 22.8025 49.0609 21.5641C49.0959 20.3258 48.6375 19.1242 47.7866 18.2238C46.9357 17.3234 45.762 16.7979 44.5236 16.7629C43.2853 16.7279 42.0837 17.1862 41.1833 18.0371L31.3833 27.1371M2.33331 30.8938L16.3333 44.8938M43.1666 15.7271C44.8 14.0938 46.6666 11.9938 46.6666 9.42713C46.8297 8.0013 46.5066 6.56216 45.7495 5.34295C44.9924 4.12375 43.8459 3.19591 42.4956 2.7098C41.1453 2.22369 39.6704 2.2078 38.3099 2.6647C36.9494 3.1216 35.7831 4.02452 35 5.22713C34.167 4.11783 33.0004 3.30476 31.6714 2.9073C30.3423 2.50983 28.9208 2.54891 27.6156 3.01878C26.3104 3.48866 25.1902 4.36458 24.4195 5.51797C23.6487 6.67136 23.2681 8.04146 23.3333 9.42713C23.3333 12.2271 25.2 14.0938 26.8333 15.9605L35 23.8938L43.1666 15.7271Z" stroke="#0D0F10" stroke-width="4.66667" stroke-linecap="round" stroke-linejoin="round"/>
</g></symbol><symbol id="icon-hungary" viewBox="0 0 20 15"><g fill="none">
<rect width="20" height="15" fill="white"/>
<path fill-rule="evenodd" clip-rule="evenodd" d="M2 2V14H18V2H2Z" fill="#F7FCFF"/>
<mask id="mask0_2005_136" style="mask-type:luminance" maskUnits="userSpaceOnUse" x="2" y="2" width="16" height="12">
<path fill-rule="evenodd" clip-rule="evenodd" d="M2 2V14H18V2H2Z" fill="white"/>
</mask>
<g mask="url(#mask0_2005_136)">
<path fill-rule="evenodd" clip-rule="evenodd" d="M2 2V6H18V2H2Z" fill="#F14423"/>
<path fill-rule="evenodd" clip-rule="evenodd" d="M2 10V14H18V10H2Z" fill="#5EAA22"/>
</g>
</g></symbol><symbol id="icon-logo" viewBox="0 0 88 48"><g fill="none">
<path d="M86.7918 17.8962C88.0033 17.8962 88.0033 17.8962 87.9996 19.1534C87.9996 20.5861 87.214 21.6587 85.9034 21.8821C85.2316 21.9578 83.8843 21.9523 83.8843 21.9523C82.7187 21.9726 82.8325 21.8193 82.8325 23.0028C82.8325 26.937 82.8215 30.8731 82.8325 34.8073C82.849 35.1932 82.6655 35.5901 82.0983 35.5883L80.5949 35.5735C78.886 35.5292 78.0068 34.6504 77.9976 32.9298C77.9811 29.5771 78.0086 22.8661 78.0086 22.8661C78.0086 22.148 77.8434 21.8932 77.1037 21.943L73.8712 21.9781C73.115 21.9892 72.9186 21.5553 72.9388 21.0033C72.9902 19.3584 73.449 18.5165 74.6899 18.0753C75.1236 17.9507 75.5734 17.8916 76.0244 17.8999L86.7918 17.8962Z" fill="#27282B"/>
<path d="M6.32053 9.58831C7.89362 12.2321 14.0042 18.8488 16.4749 16.7626C17.4937 15.9023 18.9695 16.9066 18.8612 16.0352C18.6905 14.6801 11.7887 6.77286 9.22991 6.36854C7.9652 6.16731 7.8257 7.13471 7.12451 7.52241C6.82715 7.74027 6.49307 7.48549 6.20672 7.67196C5.76986 8.15012 6.05804 9.06768 6.32053 9.58831Z" fill="white"/>
<path d="M12.4716 28.2035C11.9632 27.0478 13.0223 26.8816 13.6409 26.1468C14.0282 25.4508 13.3545 24.8545 12.3431 24.9247C11.3317 24.9948 12.3541 24.9357 12.3541 24.9357C8.99503 25.2921 6.13705 25.5025 2.72288 26.1376C1.26543 26.3998 0.367839 27.4687 0.112695 29.0306C-0.0102887 29.6694 -0.10941 30.5463 0.248527 30.947C0.745967 31.5802 7.06217 31.4602 10.4378 29.9574C11.284 29.5808 12.6074 29.0675 12.4716 28.2035Z" fill="white"/>
<path d="M26.3032 11.981C26.5913 12.8801 26.9254 12.954 27.5881 12.8746C28.5059 12.81 28.0378 15.0697 28.996 15.2248C29.0875 15.229 29.178 15.2046 29.2553 15.1551C29.3325 15.1055 29.3926 15.0331 29.4273 14.9479C30.8168 11.6505 31.7567 7.62399 32.3073 4.98393C32.858 2.37526 31.7567 0.990608 29.33 0.0767407C28.2287 -0.342346 27.7257 1.05707 27.4761 1.80663C26.2261 5.60056 25.9673 8.49171 26.3032 11.981Z" fill="white"/>
<path d="M38.7105 43.7078C37.9965 42.3786 37.2806 41.0235 36.4399 39.7681C35.1311 37.7594 33.3708 36.8012 30.8763 36.6794L30.3568 36.6498C30.2813 36.6507 30.2071 36.6702 30.1408 36.7066C30.0745 36.743 30.018 36.7951 29.9764 36.8585C29.9347 36.9219 29.9092 36.9946 29.9019 37.0702C29.8946 37.1458 29.9058 37.2221 29.9346 37.2923C31.1351 40.141 32.2529 42.0038 33.7361 44.4131C34.3859 45.4303 34.9127 46.6156 36.2508 46.6987C36.7299 46.6987 37.332 46.311 37.9028 46.1725C38.4737 46.034 38.9308 46.0488 39.1492 45.7534C39.5604 45.1811 39.0097 44.2691 38.7105 43.7078Z" fill="white"/>
<path d="M18.4416 35.3742C18.4287 35.0714 17.8211 34.6098 16.9731 35.5071C16.1251 36.4043 13.6562 40.3607 12.1713 43.9387C12.107 44.0728 12.07 44.2184 12.0624 44.3671C12.0549 44.5158 12.0769 44.6645 12.1272 44.8045C12.4757 45.639 12.9022 46.4383 13.4011 47.1917C13.8343 47.836 14.0068 47.9301 14.3427 47.9929C14.6236 48.0391 14.9962 47.8581 15.367 47.5092C17.6871 45.1941 19.899 41.5128 20.2863 38.1361C20.5965 35.4462 18.4893 36.5114 18.4416 35.3742Z" fill="white"/>
<path d="M34.0613 29.7913C35.6619 27.1512 36.0804 24.1973 35.0764 21.3302C32.2735 15.0291 24.6632 18.1067 25.0799 24.9967C25.1037 25.401 25.4635 25.942 25.9169 25.6392C26.3703 25.3364 26.8145 22.6077 28.573 22.2533C29.9368 21.9782 31.3025 22.953 31.4989 24.4964C31.6953 26.0398 30.6912 28.6817 27.9415 30.7531C26.027 32.195 24.3823 30.5593 23.2681 28.8368C22.3333 27.4052 21.9214 25.6917 22.1026 23.9887C22.2512 22.905 22.3999 22.1203 22.8772 21.7566C23.5141 21.3985 24.2594 22.0243 25.0799 21.5905C25.5351 21.2988 25.1386 20.6064 24.8761 20.215C22.8294 17.4458 19.5713 17.2205 18.1028 21.1381C15.746 26.4681 20.724 35.232 26.1298 35.5477C29.265 35.7323 32.4387 32.4701 34.0613 29.7913Z" fill="white"/>
<path d="M53.1731 17.8962C54.3864 17.8962 54.3864 17.8962 54.3827 19.1534C54.3827 20.5861 53.5971 21.6587 52.2865 21.8821C51.6128 21.9578 50.2673 21.9523 50.2673 21.9523C49.1036 21.9726 49.2174 21.8193 49.2174 23.0028C49.2174 26.937 49.2064 30.8731 49.2174 34.8073C49.2321 35.1932 49.0504 35.5901 48.4832 35.5883L46.9817 35.5735C45.2727 35.5292 44.3917 34.6504 44.3825 32.9298C44.366 29.5771 44.3953 22.8661 44.3953 22.8661C44.3953 22.148 44.2301 21.8932 43.4886 21.943L40.2561 21.9781C39.4999 21.9892 39.3035 21.5553 39.3255 21.0033C39.3769 19.3584 39.8358 18.5165 41.0766 18.0753C41.5103 17.9506 41.9601 17.8915 42.4111 17.8999L53.1731 17.8962Z" fill="#27282B"/>
<path d="M71.9717 34.7298C71.6835 33.144 71.3696 31.5636 70.9437 30.011C70.0113 26.5863 68.8567 23.2354 67.1918 20.0858C66.3823 18.559 65.1121 17.9479 63.4087 17.8039C61.9274 17.6747 61.1271 18.2895 60.4167 19.4655C59.8514 20.4052 56.573 27.1494 55.5965 31.3753C55.4146 32.0571 55.3196 32.7593 55.3138 33.4652C55.345 34.7465 56.0481 35.5828 57.3146 35.5828H58.9538C59.3668 35.5828 59.5191 35.3668 59.587 35.0123C59.7706 33.9987 60.0257 32.9963 60.2111 31.9827C60.223 31.9035 60.2402 31.8251 60.2625 31.7482C62.5662 31.7482 65.2002 30.0054 65.9712 29.0196C66.3089 30.5445 66.755 32.5846 66.889 33.275C67.1955 34.8665 67.9132 35.5828 69.5028 35.5828H71.2209C71.8358 35.5883 72.0744 35.3114 71.9717 34.7298ZM65.571 27.5629C64.1553 27.9126 62.6889 28.0052 61.2409 27.8361C61.318 27.5278 61.3712 27.3284 61.3767 27.3081C61.9127 25.6281 62.7736 23.1523 63.3702 22.5486C63.4044 22.5154 63.4501 22.4968 63.4977 22.4968C63.5453 22.4968 63.5911 22.5154 63.6253 22.5486C64.1448 23.1228 65.024 25.6041 65.56 27.2195C65.56 27.238 65.5949 27.358 65.6389 27.5463L65.571 27.5629Z" fill="#27282B"/>
</g></symbol><symbol id="icon-mail" viewBox="0 0 32 32"><g fill="none">
<path d="M29.3333 9.33105L17.3453 16.9671C16.9385 17.2033 16.4764 17.3278 16.006 17.3278C15.5355 17.3278 15.0735 17.2033 14.6667 16.9671L2.66666 9.33105M5.33332 5.33105H26.6667C28.1394 5.33105 29.3333 6.52496 29.3333 7.99772V23.9977C29.3333 25.4705 28.1394 26.6644 26.6667 26.6644H5.33332C3.86056 26.6644 2.66666 25.4705 2.66666 23.9977V7.99772C2.66666 6.52496 3.86056 5.33105 5.33332 5.33105Z" stroke="#0D85FF" stroke-width="2.66667" stroke-linecap="round" stroke-linejoin="round"/>
</g></symbol><symbol id="icon-moldova" viewBox="0 0 20 15"><g fill="none">
<rect width="20" height="15" fill="white"/>
<path fill-rule="evenodd" clip-rule="evenodd" d="M13 2H18V14H13V2Z" fill="#D9071E"/>
<path fill-rule="evenodd" clip-rule="evenodd" d="M2 2H8V14H2V2Z" fill="#3D58DB"/>
<path fill-rule="evenodd" clip-rule="evenodd" d="M7 2H13V14H7V2Z" fill="#FBCD17"/>
<path d="M9.52826 8.97693L7.78314 12.1713L7.25677 11.8842L9.00189 8.68982L9.52826 8.97693ZM12.8593 11.807L12.3329 12.0951L10.5878 8.90076L11.1142 8.61267L12.8593 11.807Z" fill="#FD1900"/>
<path d="M10.1699 10.0465C10.1797 10.0717 10.5854 11.1016 11.7499 11.9156C10.493 12.2511 10.1699 12.9254 10.1699 12.9254C10.1699 12.3866 8.57513 11.9156 8.57513 11.9156C9.11592 11.5633 9.90717 9.98499 9.90717 9.98499L10.1699 10.0465ZM10.0605 3.42542C10.8875 3.42542 10.9842 3.81601 10.9843 4.12756C10.9843 4.43918 10.5078 5.11105 10.5078 5.3678C10.5079 5.62455 10.7015 6.12136 10.9843 6.1217C11.1829 6.1217 12.1378 5.74757 12.6904 5.526V4.70374C12.8237 3.72164 13.4738 3.58192 13.4892 3.57874C13.4892 3.57874 14.2887 3.86626 14.289 4.70374V12.1735C14.289 12.1735 13.757 11.488 13.4892 11.1891C13.2214 10.89 12.6905 10.0868 12.6904 9.47034V6.69495H7.68939V9.47034C7.68928 10.0868 7.15836 10.89 6.89056 11.1891C6.6228 11.488 6.09076 12.1735 6.09076 12.1735C6.09076 12.1735 6.09076 5.54152 6.09076 4.70374C6.09101 3.86626 6.89056 3.57874 6.89056 3.57874C6.90521 3.58175 7.55602 3.72102 7.68939 4.70374C7.68939 4.70374 7.68939 5.26675 7.68939 6.00842L7.7724 5.73694C8.04127 5.93511 8.62947 6.30834 9.02435 6.1217C9.54524 5.87526 9.7288 5.17358 9.73236 5.15979C9.73236 5.15979 9.68276 4.43909 9.46674 4.43909C9.25083 4.43879 9.23367 3.42572 10.0605 3.42542ZM8.48822 9.66663C8.85262 9.66674 9.14837 9.94652 9.14838 10.2916C9.14838 10.6367 8.85263 10.9165 8.48822 10.9166C8.12371 10.9166 7.82806 10.6368 7.82806 10.2916C7.82807 9.94646 8.12372 9.66663 8.48822 9.66663ZM11.7001 9.66663C12.0646 9.6667 12.3603 9.9465 12.3603 10.2916C12.3603 10.6368 12.0646 10.9166 11.7001 10.9166C11.3356 10.9166 11.04 10.6368 11.04 10.2916C11.04 9.94646 11.3356 9.66663 11.7001 9.66663Z" fill="#A77B3B"/>
<path d="M14.57 7.20386L15.029 7.40223L13.1592 11.7282L12.7003 11.5298L14.57 7.20386Z" fill="#FDFF00"/>
<path opacity="0.3" fill-rule="evenodd" clip-rule="evenodd" d="M7.52002 5.91675H12.8V9.73619C12.8 9.73619 11.4565 10.1409 10.16 10.8049C9.203 10.095 7.52002 9.73619 7.52002 9.73619V5.91675Z" fill="#E1E5E8"/>
<mask id="mask0_2005_208" style="mask-type:luminance" maskUnits="userSpaceOnUse" x="7" y="5" width="6" height="6">
<path fill-rule="evenodd" clip-rule="evenodd" d="M7.52002 5.91675H12.8V9.73619C12.8 9.73619 11.4565 10.1409 10.16 10.8049C9.203 10.095 7.52002 9.73619 7.52002 9.73619V5.91675Z" fill="white"/>
</mask>
<g mask="url(#mask0_2005_208)">
<rect x="7.52002" y="8.41675" width="5.28" height="2.5" fill="#3D58DB"/>
<rect x="7.52002" y="5.91675" width="5.28" height="2.5" fill="#FD1900"/>
<path fill-rule="evenodd" clip-rule="evenodd" d="M9.89335 7.04118L9.49318 7.0743L9.72398 6.76297L9.47802 6.44055L9.88023 6.49234L10.0344 6.1368L10.2059 6.49992L10.606 6.4668L10.3752 6.77813L10.6212 7.10055L10.219 7.04876L10.0648 7.4043L9.89335 7.04118Z" fill="#FDFF00"/>
<path fill-rule="evenodd" clip-rule="evenodd" d="M9.17505 6.33588C9.17505 6.33588 8.1001 6.98988 8.45842 7.45934C8.81673 7.92881 9.26778 7.98891 9.26778 7.98891C9.26778 7.98891 8.16818 9.63856 10.1035 10.581C12.1755 9.6712 11.0858 7.98891 11.0858 7.98891C11.0858 7.98891 11.7237 7.8478 11.8514 7.34019C11.9791 6.83258 11.0177 6.25037 11.0177 6.25037C11.0177 6.25037 11.6175 7.11977 11.4806 7.34019C11.3436 7.56061 10.6101 7.78502 10.1035 7.78502C9.59697 7.78502 8.81477 7.64279 8.68853 7.25762C8.56229 6.87245 9.17505 6.33588 9.17505 6.33588Z" fill="#FDFF00"/>
</g>
<path d="M6.7785 9.0769C6.77967 9.08515 6.8847 9.83644 6.45428 9.9939C6.02149 10.1516 5.37909 9.59155 5.37909 9.59155H5.83319V9.41772L6.08319 9.59155V9.41772H6.40253L6.7785 9.0769ZM6.12421 8.20776C6.12718 8.22921 6.22642 8.96771 5.79999 9.12378C5.37123 9.28063 4.7366 8.73266 4.72479 8.72241H5.17792V8.54858L5.42792 8.72241V8.54858H5.74823L6.12421 8.20776ZM5.76776 7.24976C5.76843 7.25387 5.88666 7.98117 5.39178 8.18433C4.89552 8.38797 4.36835 7.7644 4.36835 7.7644H4.82147V7.59058L5.07147 7.7644V7.59058H5.39178L5.76776 7.24976Z" fill="#048F02"/>
<path d="M8.98969 3.42212H9.27582V3.92212H8.98969V4.79419H8.48969V3.92212H8.25433V3.42212H8.48969V3.12427H8.98969V3.42212Z" fill="#FDFF00"/>
<path fill-rule="evenodd" clip-rule="evenodd" d="M9.57909 3.69226L8.42102 3.99059L9.57909 4.35653V3.69226Z" fill="#DB4400"/>
</g></symbol><symbol id="icon-noTax" viewBox="0 0 52 42"><g fill="none">
<path d="M28 30.3333H6.99999C5.76232 30.3333 4.57533 29.8416 3.70016 28.9664C2.82499 28.0912 2.33333 26.9043 2.33333 25.6666V6.99992C2.33333 5.76224 2.82499 4.57526 3.70016 3.70009C4.57533 2.82492 5.76232 2.33325 6.99999 2.33325H44.3333C45.571 2.33325 46.758 2.82492 47.6332 3.70009C48.5083 4.57526 49 5.76224 49 6.99992V18.6666M37.3333 27.9999L49 39.6666M39.6667 16.3333H39.69M49 27.9999L37.3333 39.6666M11.6667 16.3333H11.69M30.3333 16.3333C30.3333 18.9106 28.244 20.9999 25.6667 20.9999C23.0893 20.9999 21 18.9106 21 16.3333C21 13.7559 23.0893 11.6666 25.6667 11.6666C28.244 11.6666 30.3333 13.7559 30.3333 16.3333Z" stroke="#0D0F10" stroke-width="4.66667" stroke-linecap="round" stroke-linejoin="round"/>
</g></symbol><symbol id="icon-pass" viewBox="0 0 52 49"><g fill="none">
<path d="M21 42.0001H6.99999C5.76232 42.0001 4.57533 41.5085 3.70016 40.6333C2.82499 39.7581 2.33333 38.5712 2.33333 37.3335V7.00014C2.33333 5.76247 2.82499 4.57548 3.70016 3.70031C4.57533 2.82514 5.76232 2.33348 6.99999 2.33348H16.1C16.8805 2.32582 17.6504 2.51405 18.3393 2.88092C19.0282 3.2478 19.6141 3.7816 20.0433 4.43348L21.9333 7.23348C22.3582 7.87871 22.9367 8.40836 23.6168 8.77488C24.2969 9.14141 25.0574 9.33335 25.83 9.33348H44.3333C45.571 9.33348 46.758 9.82514 47.6332 10.7003C48.5083 11.5755 49 12.7625 49 14.0001V18.6668M49 28.0001L38.5 38.5001M46.6667 30.3335L49 32.6668M39.6667 42.0001C39.6667 44.5775 37.5773 46.6668 35 46.6668C32.4227 46.6668 30.3333 44.5775 30.3333 42.0001C30.3333 39.4228 32.4227 37.3335 35 37.3335C37.5773 37.3335 39.6667 39.4228 39.6667 42.0001Z" stroke="#0D0F10" stroke-width="4.66667" stroke-linecap="round" stroke-linejoin="round"/>
</g></symbol><symbol id="icon-poland" viewBox="0 0 20 15"><g fill="none">
<rect width="20" height="15" fill="white"/>
<path fill-rule="evenodd" clip-rule="evenodd" d="M2 2V14H18V2H2Z" fill="#F7FCFF"/>
<mask id="mask0_2005_76" style="mask-type:luminance" maskUnits="userSpaceOnUse" x="2" y="2" width="16" height="12">
<path fill-rule="evenodd" clip-rule="evenodd" d="M2 2V14H18V2H2Z" fill="white"/>
</mask>
<g mask="url(#mask0_2005_76)">
<path fill-rule="evenodd" clip-rule="evenodd" d="M2 8V14H18V8H2Z" fill="#C51918"/>
</g>
</g></symbol><symbol id="icon-romania" viewBox="0 0 20 15"><g fill="none">
<rect width="20" height="15" fill="white"/>
<path fill-rule="evenodd" clip-rule="evenodd" d="M7 2H13V14H7V2Z" fill="#FBCD17"/>
<path fill-rule="evenodd" clip-rule="evenodd" d="M13 2H18V14H13V2Z" fill="#E11C1B"/>
<path fill-rule="evenodd" clip-rule="evenodd" d="M2 2H7V14H2V2Z" fill="#2E42A5"/>
</g></symbol><symbol id="icon-slovakia" viewBox="0 0 20 15"><g fill="none">
<g clip-path="url(#clip0_2005_96)">
<rect width="20" height="15" fill="white"/>
<path fill-rule="evenodd" clip-rule="evenodd" d="M0 0V15H20V0H0Z" fill="#3D58DB"/>
<mask id="mask0_2005_96" style="mask-type:luminance" maskUnits="userSpaceOnUse" x="0" y="0" width="20" height="15">
<path fill-rule="evenodd" clip-rule="evenodd" d="M0 0V15H20V0H0Z" fill="white"/>
</mask>
<g mask="url(#mask0_2005_96)">
<path fill-rule="evenodd" clip-rule="evenodd" d="M0 0V5H20V0H0Z" fill="#F7FCFF"/>
<path fill-rule="evenodd" clip-rule="evenodd" d="M0 10V15H20V10H0Z" fill="#E31D1C"/>
<path d="M10.0338 3.45642L10.0631 3.73572V3.73865C10.0633 3.74024 10.0638 3.74253 10.0641 3.74548C10.0647 3.75167 10.0658 3.76093 10.067 3.77283C10.0695 3.79665 10.0733 3.83158 10.0778 3.87634C10.0867 3.96604 10.0993 4.09543 10.1139 4.25427C10.143 4.57188 10.1797 5.00881 10.2115 5.48376C10.2743 6.42105 10.3195 7.54919 10.2301 8.19373C10.0528 9.4711 9.28502 11.5391 6.98889 12.5658L6.86389 12.6215L6.73694 12.5668C4.31973 11.5224 3.69487 9.21834 3.55823 8.19177C3.48822 7.66569 3.51487 6.53879 3.5553 5.57654C3.57581 5.08841 3.60027 4.63104 3.61975 4.29626C3.62948 4.129 3.63814 3.992 3.64417 3.89685C3.64718 3.8493 3.64934 3.81179 3.651 3.7865C3.65181 3.77416 3.65252 3.76467 3.65295 3.75818C3.65317 3.7549 3.65382 3.75205 3.65393 3.75037V3.74841V3.74744L3.67346 3.45642H10.0338Z" fill="#E31D1C" stroke="white" stroke-width="0.625"/>
<mask id="mask1_2005_96" style="mask-type:luminance" maskUnits="userSpaceOnUse" x="3" y="3" width="8" height="10">
<path d="M10.0338 3.45642L10.0631 3.73572V3.73865C10.0633 3.74024 10.0638 3.74253 10.0641 3.74548C10.0647 3.75167 10.0658 3.76093 10.067 3.77283C10.0695 3.79665 10.0733 3.83158 10.0778 3.87634C10.0867 3.96604 10.0993 4.09543 10.1139 4.25427C10.143 4.57188 10.1797 5.00881 10.2115 5.48376C10.2743 6.42105 10.3195 7.54919 10.2301 8.19373C10.0528 9.4711 9.28502 11.5391 6.98889 12.5658L6.86389 12.6215L6.73694 12.5668C4.31973 11.5224 3.69487 9.21834 3.55823 8.19177C3.48822 7.66569 3.51487 6.53879 3.5553 5.57654C3.57581 5.08841 3.60027 4.63104 3.61975 4.29626C3.62948 4.129 3.63814 3.992 3.64417 3.89685C3.64718 3.8493 3.64934 3.81179 3.651 3.7865C3.65181 3.77416 3.65252 3.76467 3.65295 3.75818C3.65317 3.7549 3.65382 3.75205 3.65393 3.75037V3.74841V3.74744L3.67346 3.45642H10.0338Z" fill="white" stroke="white" stroke-width="0.625"/>
</mask>
<g mask="url(#mask1_2005_96)">
<path fill-rule="evenodd" clip-rule="evenodd" d="M6.41067 4.11853C6.41067 4.11853 6.53972 4.31517 6.5975 4.61585C6.65527 4.91652 6.66524 5.44335 6.66524 5.44335L5.44094 5.29261V6.22091L6.69259 6.06151L6.67225 6.9426C6.67225 6.9426 6.29779 6.98141 5.99068 6.9426C5.68357 6.90378 5.07855 6.74116 5.07855 6.74116V7.80389C5.07855 7.80389 5.69324 7.60724 5.99068 7.56212C6.28812 7.51699 6.67225 7.56212 6.67225 7.56212V8.86731H7.18039V7.56212C7.18039 7.56212 7.73586 7.51383 8.06722 7.56611C8.39858 7.61838 8.7129 7.80389 8.7129 7.80389V6.74116C8.7129 6.74116 8.39446 6.8998 8.09412 6.93928C7.79377 6.97876 7.18039 6.9426 7.18039 6.9426L7.20073 6.06151C7.20073 6.06151 7.6165 6.01846 7.84976 6.05013C8.08302 6.08179 8.37497 6.22091 8.37497 6.22091V5.29261C8.37497 5.29261 8.09042 5.44744 7.86652 5.47553C7.64263 5.50362 7.17338 5.44335 7.17338 5.44335C7.17338 5.44335 7.1817 4.89968 7.22984 4.63495C7.27798 4.37023 7.41431 4.11853 7.41431 4.11853H6.41067Z" fill="#F7FCFF"/>
<path fill-rule="evenodd" clip-rule="evenodd" d="M4.31079 10.1533C4.31079 10.1533 4.58547 9.56373 5.03243 9.45163C5.47939 9.33954 5.94807 9.80246 5.94807 9.80246C5.94807 9.80246 6.23426 8.86719 6.93182 8.86719C7.62938 8.86719 7.8742 9.80246 7.8742 9.80246C7.8742 9.80246 8.17182 9.45163 8.5998 9.45163C9.02779 9.45163 9.42431 10.1533 9.42431 10.1533C9.42431 10.1533 8.14593 12.4742 6.86755 12.4742C5.58917 12.4742 4.31079 10.1533 4.31079 10.1533Z" fill="#2E42A5"/>
</g>
</g>
</g>

</g></symbol><symbol id="icon-telegram" viewBox="0 0 32 32"><g fill="none">
<path d="M29.1387 2.86242L14.552 17.4478M19.3813 28.9144C19.432 29.0407 19.5201 29.1484 19.6337 29.2231C19.7474 29.2979 19.8811 29.3361 20.0171 29.3326C20.1531 29.3291 20.2848 29.2841 20.3944 29.2037C20.5041 29.1232 20.5865 29.0111 20.6307 28.8824L29.2973 3.54908C29.34 3.43094 29.3482 3.30309 29.3208 3.18049C29.2935 3.05789 29.2318 2.94561 29.143 2.85679C29.0541 2.76796 28.9419 2.70628 28.8193 2.67894C28.6967 2.6516 28.5688 2.65974 28.4507 2.70242L3.11734 11.3691C2.98867 11.4132 2.87657 11.4956 2.7961 11.6053C2.71563 11.715 2.67063 11.8466 2.66715 11.9826C2.66367 12.1186 2.70186 12.2524 2.77662 12.3661C2.85137 12.4797 2.95909 12.5678 3.08534 12.6184L13.6587 16.8584C13.9929 16.9922 14.2966 17.1924 14.5514 17.4467C14.8062 17.7011 15.0069 18.0044 15.1413 18.3384L19.3813 28.9144Z" stroke="#0D85FF" stroke-width="2.66667" stroke-linecap="round" stroke-linejoin="round"/>
</g></symbol><symbol id="icon-tik" viewBox="0 0 20 15">
<path d="M16.1718 0.520345C16.9324 -0.173448 18.1688 -0.173448 18.9294 0.520345C19.6314 1.16351 19.686 2.17608 19.0912 2.87362L18.9294 3.04238L5.84955 15L0.570426 10.1734C-0.190142 9.47778 -0.190142 8.34896 0.570426 7.65329C1.27249 7.01013 2.38019 6.9595 3.14465 7.50328L3.32797 7.65329L5.84955 9.95594L16.1718 0.520345Z" fill="#0d85ff"/>
</symbol></svg>