<svg width="88" height="48" viewBox="0 0 88 48" fill="none" xmlns="http://www.w3.org/2000/svg">
<path d="M86.7918 17.8962C88.0033 17.8962 88.0033 17.8962 87.9996 19.1534C87.9996 20.5861 87.214 21.6587 85.9034 21.8821C85.2316 21.9578 83.8843 21.9523 83.8843 21.9523C82.7187 21.9726 82.8325 21.8193 82.8325 23.0028C82.8325 26.937 82.8215 30.8731 82.8325 34.8073C82.849 35.1932 82.6655 35.5901 82.0983 35.5883L80.5949 35.5735C78.886 35.5292 78.0068 34.6504 77.9976 32.9298C77.9811 29.5771 78.0086 22.8661 78.0086 22.8661C78.0086 22.148 77.8434 21.8932 77.1037 21.943L73.8712 21.9781C73.115 21.9892 72.9186 21.5553 72.9388 21.0033C72.9902 19.3584 73.449 18.5165 74.6899 18.0753C75.1236 17.9507 75.5734 17.8916 76.0244 17.8999L86.7918 17.8962Z" fill="#27282B"/>
<path d="M6.32053 9.58831C7.89362 12.2321 14.0042 18.8488 16.4749 16.7626C17.4937 15.9023 18.9695 16.9066 18.8612 16.0352C18.6905 14.6801 11.7887 6.77286 9.22991 6.36854C7.9652 6.16731 7.8257 7.13471 7.12451 7.52241C6.82715 7.74027 6.49307 7.48549 6.20672 7.67196C5.76986 8.15012 6.05804 9.06768 6.32053 9.58831Z" fill="white"/>
<path d="M12.4716 28.2035C11.9632 27.0478 13.0223 26.8816 13.6409 26.1468C14.0282 25.4508 13.3545 24.8545 12.3431 24.9247C11.3317 24.9948 12.3541 24.9357 12.3541 24.9357C8.99503 25.2921 6.13705 25.5025 2.72288 26.1376C1.26543 26.3998 0.367839 27.4687 0.112695 29.0306C-0.0102887 29.6694 -0.10941 30.5463 0.248527 30.947C0.745967 31.5802 7.06217 31.4602 10.4378 29.9574C11.284 29.5808 12.6074 29.0675 12.4716 28.2035Z" fill="white"/>
<path d="M26.3032 11.981C26.5913 12.8801 26.9254 12.954 27.5881 12.8746C28.5059 12.81 28.0378 15.0697 28.996 15.2248C29.0875 15.229 29.178 15.2046 29.2553 15.1551C29.3325 15.1055 29.3926 15.0331 29.4273 14.9479C30.8168 11.6505 31.7567 7.62399 32.3073 4.98393C32.858 2.37526 31.7567 0.990608 29.33 0.0767407C28.2287 -0.342346 27.7257 1.05707 27.4761 1.80663C26.2261 5.60056 25.9673 8.49171 26.3032 11.981Z" fill="white"/>
<path d="M38.7105 43.7078C37.9965 42.3786 37.2806 41.0235 36.4399 39.7681C35.1311 37.7594 33.3708 36.8012 30.8763 36.6794L30.3568 36.6498C30.2813 36.6507 30.2071 36.6702 30.1408 36.7066C30.0745 36.743 30.018 36.7951 29.9764 36.8585C29.9347 36.9219 29.9092 36.9946 29.9019 37.0702C29.8946 37.1458 29.9058 37.2221 29.9346 37.2923C31.1351 40.141 32.2529 42.0038 33.7361 44.4131C34.3859 45.4303 34.9127 46.6156 36.2508 46.6987C36.7299 46.6987 37.332 46.311 37.9028 46.1725C38.4737 46.034 38.9308 46.0488 39.1492 45.7534C39.5604 45.1811 39.0097 44.2691 38.7105 43.7078Z" fill="white"/>
<path d="M18.4416 35.3742C18.4287 35.0714 17.8211 34.6098 16.9731 35.5071C16.1251 36.4043 13.6562 40.3607 12.1713 43.9387C12.107 44.0728 12.07 44.2184 12.0624 44.3671C12.0549 44.5158 12.0769 44.6645 12.1272 44.8045C12.4757 45.639 12.9022 46.4383 13.4011 47.1917C13.8343 47.836 14.0068 47.9301 14.3427 47.9929C14.6236 48.0391 14.9962 47.8581 15.367 47.5092C17.6871 45.1941 19.899 41.5128 20.2863 38.1361C20.5965 35.4462 18.4893 36.5114 18.4416 35.3742Z" fill="white"/>
<path d="M34.0613 29.7913C35.6619 27.1512 36.0804 24.1973 35.0764 21.3302C32.2735 15.0291 24.6632 18.1067 25.0799 24.9967C25.1037 25.401 25.4635 25.942 25.9169 25.6392C26.3703 25.3364 26.8145 22.6077 28.573 22.2533C29.9368 21.9782 31.3025 22.953 31.4989 24.4964C31.6953 26.0398 30.6912 28.6817 27.9415 30.7531C26.027 32.195 24.3823 30.5593 23.2681 28.8368C22.3333 27.4052 21.9214 25.6917 22.1026 23.9887C22.2512 22.905 22.3999 22.1203 22.8772 21.7566C23.5141 21.3985 24.2594 22.0243 25.0799 21.5905C25.5351 21.2988 25.1386 20.6064 24.8761 20.215C22.8294 17.4458 19.5713 17.2205 18.1028 21.1381C15.746 26.4681 20.724 35.232 26.1298 35.5477C29.265 35.7323 32.4387 32.4701 34.0613 29.7913Z" fill="white"/>
<path d="M53.1731 17.8962C54.3864 17.8962 54.3864 17.8962 54.3827 19.1534C54.3827 20.5861 53.5971 21.6587 52.2865 21.8821C51.6128 21.9578 50.2673 21.9523 50.2673 21.9523C49.1036 21.9726 49.2174 21.8193 49.2174 23.0028C49.2174 26.937 49.2064 30.8731 49.2174 34.8073C49.2321 35.1932 49.0504 35.5901 48.4832 35.5883L46.9817 35.5735C45.2727 35.5292 44.3917 34.6504 44.3825 32.9298C44.366 29.5771 44.3953 22.8661 44.3953 22.8661C44.3953 22.148 44.2301 21.8932 43.4886 21.943L40.2561 21.9781C39.4999 21.9892 39.3035 21.5553 39.3255 21.0033C39.3769 19.3584 39.8358 18.5165 41.0766 18.0753C41.5103 17.9506 41.9601 17.8915 42.4111 17.8999L53.1731 17.8962Z" fill="#27282B"/>
<path d="M71.9717 34.7298C71.6835 33.144 71.3696 31.5636 70.9437 30.011C70.0113 26.5863 68.8567 23.2354 67.1918 20.0858C66.3823 18.559 65.1121 17.9479 63.4087 17.8039C61.9274 17.6747 61.1271 18.2895 60.4167 19.4655C59.8514 20.4052 56.573 27.1494 55.5965 31.3753C55.4146 32.0571 55.3196 32.7593 55.3138 33.4652C55.345 34.7465 56.0481 35.5828 57.3146 35.5828H58.9538C59.3668 35.5828 59.5191 35.3668 59.587 35.0123C59.7706 33.9987 60.0257 32.9963 60.2111 31.9827C60.223 31.9035 60.2402 31.8251 60.2625 31.7482C62.5662 31.7482 65.2002 30.0054 65.9712 29.0196C66.3089 30.5445 66.755 32.5846 66.889 33.275C67.1955 34.8665 67.9132 35.5828 69.5028 35.5828H71.2209C71.8358 35.5883 72.0744 35.3114 71.9717 34.7298ZM65.571 27.5629C64.1553 27.9126 62.6889 28.0052 61.2409 27.8361C61.318 27.5278 61.3712 27.3284 61.3767 27.3081C61.9127 25.6281 62.7736 23.1523 63.3702 22.5486C63.4044 22.5154 63.4501 22.4968 63.4977 22.4968C63.5453 22.4968 63.5911 22.5154 63.6253 22.5486C64.1448 23.1228 65.024 25.6041 65.56 27.2195C65.56 27.238 65.5949 27.358 65.6389 27.5463L65.571 27.5629Z" fill="#27282B"/>
</svg>
