<svg width="18" height="18" viewBox="0 0 18 18" fill="none" xmlns="http://www.w3.org/2000/svg">
<path d="M2.56066 0.43934C1.97487 -0.146447 1.02513 -0.146447 0.43934 0.43934C-0.146446 1.02513 -0.146446 1.97487 0.439341 2.56066L6.8033 8.92462L0.43934 15.2886C-0.146447 15.8744 -0.146446 16.8241 0.43934 17.4099C1.02513 17.9957 1.97487 17.9957 2.56066 17.4099L8.92462 11.0459L15.2886 17.4099C15.8744 17.9957 16.8241 17.9957 17.4099 17.4099C17.9957 16.8241 17.9957 15.8744 17.4099 15.2886L11.0459 8.92462L17.4099 2.56066C17.9957 1.97487 17.9957 1.02513 17.4099 0.43934C16.8241 -0.146447 15.8744 -0.146446 15.2886 0.43934L8.92462 6.8033L2.56066 0.43934Z" fill="#8F9397"/>
</svg>
