<svg width="32" height="32" viewBox="0 0 32 32" fill="none" xmlns="http://www.w3.org/2000/svg">
<path d="M29.1387 2.86242L14.552 17.4478M19.3813 28.9144C19.432 29.0407 19.5201 29.1484 19.6337 29.2231C19.7474 29.2979 19.8811 29.3361 20.0171 29.3326C20.1531 29.3291 20.2848 29.2841 20.3944 29.2037C20.5041 29.1232 20.5865 29.0111 20.6307 28.8824L29.2973 3.54908C29.34 3.43094 29.3482 3.30309 29.3208 3.18049C29.2935 3.05789 29.2318 2.94561 29.143 2.85679C29.0541 2.76796 28.9419 2.70628 28.8193 2.67894C28.6967 2.6516 28.5688 2.65974 28.4507 2.70242L3.11734 11.3691C2.98867 11.4132 2.87657 11.4956 2.7961 11.6053C2.71563 11.715 2.67063 11.8466 2.66715 11.9826C2.66367 12.1186 2.70186 12.2524 2.77662 12.3661C2.85137 12.4797 2.95909 12.5678 3.08534 12.6184L13.6587 16.8584C13.9929 16.9922 14.2966 17.1924 14.5514 17.4467C14.8062 17.7011 15.0069 18.0044 15.1413 18.3384L19.3813 28.9144Z" stroke="#0D85FF" stroke-width="2.66667" stroke-linecap="round" stroke-linejoin="round"/>
</svg>
