<svg width="52" height="47" viewBox="0 0 52 47" fill="none" xmlns="http://www.w3.org/2000/svg">
<path d="M28 2.33325H6.99998C5.7623 2.33325 4.57532 2.82492 3.70015 3.70009C2.82498 4.57526 2.33331 5.76224 2.33331 6.99992V30.3333C2.33331 31.5709 2.82498 32.7579 3.70015 33.6331C4.57532 34.5083 5.7623 34.9999 6.99998 34.9999H44.3333C45.571 34.9999 46.758 34.5083 47.6331 33.6331C48.5083 32.7579 49 31.5709 49 30.3333V23.3333M16.3333 44.3333H35M25.6666 34.9999V44.3333M37.3333 13.9999L49 2.33325M49 2.33325H37.3333M49 2.33325V13.9999" stroke="black" stroke-width="4.66667" stroke-linecap="round" stroke-linejoin="round"/>
</svg>
