<svg width="20" height="15" viewBox="0 0 20 15" fill="none" xmlns="http://www.w3.org/2000/svg">
<path fill-rule="evenodd" clip-rule="evenodd" d="M0 0V15H20V0H0Z" fill="white"/>
<path d="M7.54527 3.14044C7.793 2.57664 8.15247 2.06962 8.60181 1.64857C7.57443 1.896 6.63043 2.41033 5.86538 3.14044H7.54527Z" fill="#0D85FF"/>
<path d="M7.54527 11.8596H5.86534C6.63041 12.5897 7.57441 13.104 8.60177 13.3514C8.15243 12.9304 7.79302 12.4234 7.54527 11.8596Z" fill="#0D85FF"/>
<path d="M9.79277 13.5V11.8597H8.02542C8.49986 12.7878 9.11757 13.3954 9.79277 13.5Z" fill="#0D85FF"/>
<path d="M11.9746 11.8596H10.2072V13.4999C10.8824 13.3952 11.5002 12.7876 11.9746 11.8596Z" fill="#0D85FF"/>
<path d="M10.2073 1.5V3.14032H11.9746C11.5002 2.21225 10.8825 1.60465 10.2073 1.5Z" fill="#0D85FF"/>
<path d="M9.79277 7.70768H7.10319C7.10966 8.98782 7.3566 10.2559 7.83182 11.4442H9.79267L9.79277 7.70768Z" fill="#0D85FF"/>
<path d="M10.2073 11.4442H12.1681C12.6434 10.2557 12.8903 8.9878 12.8968 7.70768H10.2072L10.2073 11.4442Z" fill="#0D85FF"/>
<path d="M9.79277 1.5C9.11757 1.60465 8.49984 2.21227 8.02542 3.14032H9.79277V1.5Z" fill="#0D85FF"/>
<path d="M12.4548 3.14044H14.1347C13.3696 2.41033 12.4257 1.896 11.3991 1.64857C11.8477 2.0696 12.207 2.57664 12.4548 3.14044Z" fill="#0D85FF"/>
<path d="M12.1682 3.5558H10.2073V7.29232H12.8969C12.8904 6.01218 12.6434 4.74412 12.1682 3.5558Z" fill="#0D85FF"/>
<path d="M9.79277 3.5558H7.83193C7.35669 4.74427 7.10976 6.0122 7.10329 7.29232H9.79288L9.79277 3.5558Z" fill="#0D85FF"/>
<path d="M14.5313 3.5558H12.6344C13.0789 4.75156 13.308 6.01636 13.3112 7.29232H16C15.9539 5.91484 15.4356 4.59501 14.5313 3.5558Z" fill="#0D85FF"/>
<path d="M7.36558 11.4442C6.92111 10.2484 6.69199 8.98365 6.68876 7.70768H4C4.04615 9.08516 4.5643 10.405 5.46861 11.4442H7.36558Z" fill="#0D85FF"/>
<path d="M4.00012 7.29232H6.68888C6.69212 6.01625 6.92124 4.7516 7.3657 3.5558H5.46882C4.56449 4.59499 4.04626 5.9148 4.00012 7.29232Z" fill="#0D85FF"/>
<path d="M15.9999 7.70768H13.3112C13.3079 8.98375 13.0788 10.2484 12.6344 11.4442H14.5312C15.4356 10.405 15.9538 9.0852 15.9999 7.70768Z" fill="#0D85FF"/>
<path d="M12.4548 11.8596C12.2071 12.4234 11.8476 12.9304 11.3991 13.3514C12.4256 13.104 13.3696 12.5897 14.1347 11.8596H12.4548Z" fill="#0D85FF"/>
</svg>
