<svg width="52" height="48" viewBox="0 0 52 48" fill="none" xmlns="http://www.w3.org/2000/svg">
<path d="M23.3333 28.5605H28C29.2377 28.5605 30.4246 28.0688 31.2998 27.1936C32.175 26.3185 32.6666 25.1315 32.6666 23.8938C32.6666 22.6561 32.175 21.4691 31.2998 20.594C30.4246 19.7188 29.2377 19.2271 28 19.2271H21C19.6 19.2271 18.4333 19.6938 17.7333 20.6271L4.66665 33.2271M14 42.5605L17.7333 39.2938C18.4333 38.3605 19.6 37.8938 21 37.8938H30.3333C32.9 37.8938 35.2333 36.9605 36.8666 35.0938L47.6 24.8271C48.5004 23.9762 49.0259 22.8025 49.0609 21.5641C49.0959 20.3258 48.6375 19.1242 47.7866 18.2238C46.9357 17.3234 45.762 16.7979 44.5236 16.7629C43.2853 16.7279 42.0837 17.1862 41.1833 18.0371L31.3833 27.1371M2.33331 30.8938L16.3333 44.8938M43.1666 15.7271C44.8 14.0938 46.6666 11.9938 46.6666 9.42713C46.8297 8.0013 46.5066 6.56216 45.7495 5.34295C44.9924 4.12375 43.8459 3.19591 42.4956 2.7098C41.1453 2.22369 39.6704 2.2078 38.3099 2.6647C36.9494 3.1216 35.7831 4.02452 35 5.22713C34.167 4.11783 33.0004 3.30476 31.6714 2.9073C30.3423 2.50983 28.9208 2.54891 27.6156 3.01878C26.3104 3.48866 25.1902 4.36458 24.4195 5.51797C23.6487 6.67136 23.2681 8.04146 23.3333 9.42713C23.3333 12.2271 25.2 14.0938 26.8333 15.9605L35 23.8938L43.1666 15.7271Z" stroke="#0D0F10" stroke-width="4.66667" stroke-linecap="round" stroke-linejoin="round"/>
</svg>
