<svg width="81" height="420" viewBox="0 0 81 420" fill="none" xmlns="http://www.w3.org/2000/svg">
<path opacity="0.3" d="M76.8 0.510951C48 1.53285 33 22.9927 33 50.073C33 50.073 33 115.985 33 161.46C33 206.934 3.59999 210 3.59999 210H0L3.59999 210.511C3.59999 210.511 33 213.577 33 259.051C33 304.526 33 370.438 33 370.438C33 397.518 48 418.978 76.8 420C78 420 79.8 420 81 420C81 420 54 409.781 54 367.372V314.234V260.073C54 220.73 32.4 211.533 17.4 210C32.4 208.467 54 199.27 54 159.927V105.766V52.6277C54 10.219 81 0 81 0C79.8 0 78.6 1.96695e-06 76.8 0.510951Z" fill="#7A8085"/>
</svg>
